<svg width="56" height="57" viewBox="0 0 56 57" fill="none" xmlns="http://www.w3.org/2000/svg">
<g clip-path="url(#clip0_161_3075)">
<path d="M36.2031 32.9183C36.2947 32.9182 36.3863 32.9181 36.4806 32.918C37.0552 32.9257 37.5611 32.9957 38.1172 33.1409C38.7423 33.2995 39.0985 33.2481 39.6993 33.0409C40.7972 32.7504 41.9512 32.8987 43.0027 33.2901C43.6146 33.5137 43.6146 33.5137 44.2306 33.3988C44.3179 33.3459 44.4052 33.2929 44.4951 33.2383C45.3925 32.7916 46.3943 32.817 47.3589 33.0231C48.3454 33.3724 49.0252 34.0557 49.4922 34.9918C49.7121 35.4774 49.8926 35.9081 49.916 36.446C49.9214 36.5295 49.9267 36.613 49.9322 36.6991C49.7864 37.3661 49.0051 37.7692 48.4805 38.1368C48.3135 38.2552 48.1466 38.3736 47.9797 38.4921C47.8948 38.5521 47.8098 38.6121 47.7223 38.6739C47.3264 38.9543 46.9328 39.2379 46.5391 39.5214C46.3841 39.6328 46.2292 39.7441 46.0742 39.8554C45.9975 39.9105 45.9208 39.9656 45.8418 40.0224C44.9896 40.6347 44.1374 41.247 43.2852 41.8593C43.2085 41.9144 43.1318 41.9695 43.0528 42.0263C42.8976 42.1378 42.7424 42.2493 42.5872 42.3608C42.128 42.6906 41.669 43.0207 41.2101 43.351C41.0571 43.4609 40.9039 43.5707 40.7506 43.6803C40.334 43.9783 39.92 44.2792 39.5087 44.5847C37.5648 46.018 35.5731 47.1128 33.25 47.7597C33.1764 47.7809 33.1028 47.8021 33.027 47.824C30.196 48.6015 27.1661 48.0588 24.3668 47.4447C23.7925 47.3208 23.2264 47.237 22.6406 47.2031C22.5388 47.1969 22.437 47.1907 22.3321 47.1844C20.4063 47.1678 18.5806 47.5903 16.8437 48.4277C16.7716 48.4277 16.6994 48.4277 16.625 48.4277C16.6882 48.554 16.7513 48.6803 16.8164 48.8104C16.8985 48.9796 16.9805 49.1489 17.0625 49.3183C17.1042 49.4011 17.146 49.4839 17.189 49.5692C17.465 50.1462 17.5947 50.5686 17.5 51.2109C17.0734 51.8516 16.3127 52.1434 15.6543 52.4912C15.3964 52.6298 15.1386 52.7686 14.881 52.9078C14.8159 52.9428 14.7509 52.9778 14.6839 53.0139C14.0573 53.352 13.4402 53.7061 12.8242 54.0637C12.6196 54.1815 12.4149 54.2994 12.2103 54.4172C11.8946 54.5992 11.5794 54.7818 11.265 54.9662C10.9403 55.1564 10.6143 55.3443 10.2881 55.5318C10.1903 55.5899 10.0926 55.6481 9.99189 55.708C9.40196 56.0438 8.99073 56.2188 8.31249 56.1093C7.95921 55.8093 7.76213 55.4908 7.55664 55.0755C7.49714 54.9562 7.43764 54.837 7.37633 54.7142C7.28051 54.5188 7.28051 54.5188 7.18275 54.3195C7.11379 54.1804 7.04476 54.0414 6.97566 53.9024C6.78863 53.5256 6.60273 53.1482 6.41713 52.7707C6.30102 52.5346 6.18466 52.2987 6.06821 52.0628C5.66168 51.2394 5.25605 50.4154 4.85127 49.5911C4.47437 48.8236 4.09553 48.057 3.71577 47.291C3.3894 46.6324 3.0644 45.9732 2.74043 45.3134C2.54709 44.9197 2.35323 44.5263 2.15799 44.1336C1.97437 43.7641 1.79246 43.3938 1.6118 43.0228C1.51382 42.8227 1.41412 42.6234 1.31436 42.4242C0.993062 41.7598 0.773208 41.2676 0.874995 40.5234C1.14479 40.1436 1.49715 39.9503 1.89739 39.728C2.01407 39.6626 2.13075 39.5973 2.25097 39.53C2.43949 39.4259 2.43949 39.4259 2.63183 39.3196C2.76374 39.2461 2.89561 39.1724 3.02743 39.0986C3.30199 38.9451 3.57674 38.792 3.85162 38.6391C4.37883 38.3454 4.90399 38.0481 5.42906 37.7506C5.67764 37.6098 5.9264 37.4694 6.17536 37.3293C6.72393 37.0204 7.27046 36.7094 7.81091 36.386C7.90015 36.3333 7.98939 36.2806 8.08133 36.2263C8.24213 36.131 8.40211 36.0343 8.56097 35.9357C9.08526 35.6274 9.45614 35.5423 10.0625 35.6249C10.5244 35.9389 10.729 36.4778 10.9648 36.9748C11.0046 37.0559 11.0444 37.137 11.0853 37.2205C11.375 37.8202 11.375 37.8202 11.375 38.0742C12.4076 37.5707 13.353 36.964 14.2975 36.3094C17.0965 34.371 19.9826 33.3417 23.428 33.9237C24.4311 34.1343 25.4299 34.4856 26.314 35.0149C27.2562 35.5658 28.1358 35.6634 29.1963 35.6667C29.2803 35.6677 29.3643 35.6687 29.4509 35.6698C31.107 35.6729 32.0433 35.1215 33.2274 33.9444C33.6276 33.5927 34.0779 33.3822 34.5625 33.1757C34.7283 33.1045 34.7283 33.1045 34.8975 33.0318C35.3361 32.9243 35.7533 32.9155 36.2031 32.9183ZM34.4531 35.4023C34.417 35.4758 34.3809 35.5492 34.3437 35.6249C35.1631 35.803 35.1631 35.803 35.9382 35.5741C36.1553 35.3789 36.3506 35.1873 36.5312 34.957C36.5312 34.9202 36.5312 34.8835 36.5312 34.8456C35.7084 34.7781 35.1476 34.9394 34.4531 35.4023ZM37.2969 36.7382C37.4419 37.1415 37.6188 37.4769 37.8574 37.8306C37.9164 37.9186 37.9753 38.0066 38.036 38.0972C38.0808 38.1631 38.1257 38.2289 38.1719 38.2968C38.7676 37.8649 39.3108 37.3928 39.8505 36.8909C40.3339 36.451 40.8398 36.0399 41.3437 35.6249C41.5632 35.4403 41.7817 35.2545 42 35.0683C41.6853 34.748 41.4547 34.8084 41.0156 34.8039C39.3904 34.8237 38.4779 35.7014 37.2969 36.7382ZM43.0502 36.5873C42.7623 36.8526 42.4662 37.1023 42.1641 37.3505C41.7709 37.6743 41.3894 38.0057 41.0156 38.3525C40.5104 38.8204 39.993 39.2729 39.4507 39.6963C39.2517 39.861 39.2517 39.861 39.0438 40.0978C38.2449 40.8978 37.6097 40.9848 36.5254 40.9879C36.3287 40.9852 36.132 40.9824 35.9352 40.9796C35.731 40.9802 35.5267 40.9813 35.3224 40.9828C34.7885 40.9855 34.2548 40.9823 33.7209 40.9778C33.1746 40.9742 32.6284 40.9764 32.0821 40.978C31.013 40.9805 29.9441 40.9761 28.875 40.9687C28.875 40.3809 28.875 39.7931 28.875 39.1874C31.4016 39.1874 33.9281 39.1874 36.5312 39.1874C36.1644 38.4407 35.7688 37.9751 35.041 37.5871C34.4908 37.4397 33.9688 37.3933 33.4007 37.3992C33.1875 37.4008 33.1875 37.4008 32.97 37.4023C32.8947 37.403 32.8193 37.4037 32.7417 37.4044C32.3362 37.4075 31.9306 37.4063 31.525 37.4058C31.0119 37.4051 30.4989 37.4056 29.9859 37.4119C26.4506 37.4526 26.4506 37.4526 24.8081 36.4076C23.2106 35.4855 20.8299 35.4709 19.0996 35.9311C18.8557 36.0072 18.6142 36.0913 18.375 36.1816C18.2916 36.2123 18.2082 36.243 18.1223 36.2746C17.4545 36.5309 16.8725 36.8562 16.2764 37.2531C16.187 37.3115 16.0976 37.3698 16.0055 37.4299C15.512 37.7534 15.0243 38.0847 14.5389 38.4203C14.4716 38.4668 14.4043 38.5133 14.335 38.5612C14.2694 38.6066 14.2038 38.6519 14.1362 38.6986C13.5342 39.1083 12.9063 39.4325 12.25 39.7441C12.9751 41.3224 13.7308 42.8837 14.499 44.4407C14.6105 44.6671 14.7219 44.8934 14.8333 45.1198C15.1022 45.6659 15.3713 46.2119 15.6406 46.7578C15.7955 46.7057 15.9504 46.6535 16.1052 46.6012C16.1915 46.5721 16.2777 46.5431 16.3666 46.5131C16.6016 46.4319 16.8342 46.3461 17.0663 46.2568C20.2812 45.0298 23.3683 45.2324 26.674 45.965C28.0148 46.2535 29.3405 46.3817 30.707 46.2429C30.8593 46.2277 30.8593 46.2277 31.0147 46.2123C33.9012 45.8892 36.3081 44.6104 38.6013 42.863C39.1022 42.4826 39.6141 42.1186 40.1269 41.7549C40.2199 41.689 40.3128 41.623 40.4085 41.5551C40.5944 41.4232 40.7803 41.2912 40.9662 41.1593C41.3733 40.8699 41.779 40.5785 42.1846 40.2868C42.26 40.2326 42.3354 40.1783 42.4131 40.1224C42.5643 40.0137 42.7154 39.9049 42.8666 39.7962C43.2521 39.5188 43.6378 39.2418 44.0234 38.9648C44.4973 38.6244 44.9711 38.2839 45.4449 37.9433C46.2641 37.3543 47.0837 36.7658 47.9062 36.1816C47.7201 35.6967 47.5511 35.2937 47.0996 35.0196C45.517 34.3252 44.1771 35.5273 43.0502 36.5873ZM8.59875 38.1172C8.49937 38.1751 8.39999 38.233 8.29759 38.2927C8.18972 38.356 8.08184 38.4194 7.9707 38.4847C6.74067 39.2003 5.49866 39.8911 4.25029 40.573C3.97458 40.7255 3.70003 40.8799 3.42576 41.0352C3.33722 41.0853 3.24868 41.1354 3.15745 41.187C3.09002 41.2252 3.02259 41.2633 2.95312 41.3027C3.66534 42.8516 4.40516 44.3849 5.15814 45.9137C5.272 46.1453 5.38585 46.3769 5.49968 46.6085C5.79562 47.2105 6.09182 47.8124 6.38808 48.4143C6.69184 49.0315 6.99533 49.6488 7.29885 50.2661C7.8917 51.4718 8.48482 52.6773 9.07812 53.8828C9.47103 53.7257 9.84012 53.552 10.212 53.3483C10.3258 53.2861 10.4396 53.2238 10.5568 53.1597C10.7385 53.0595 10.7385 53.0595 10.9238 52.9573C11.0488 52.8886 11.1737 52.8199 11.3024 52.7491C12.1646 52.2738 13.0226 51.791 13.8769 51.3013C13.9821 51.2412 14.0873 51.1811 14.1956 51.1192C14.2932 51.0629 14.3908 51.0066 14.4913 50.9486C14.5763 50.8997 14.6613 50.8507 14.7489 50.8003C14.9828 50.6552 15.2027 50.4875 15.4219 50.3203C13.4006 46.2056 11.3794 42.0909 9.29687 37.8515C9.00203 37.8515 8.85426 37.9671 8.59875 38.1172Z" fill="#001B6A"/>
<path d="M19.4254 0.834469C19.5509 0.833308 19.6765 0.832147 19.8059 0.83095C20.0129 0.83244 20.0129 0.83244 20.2241 0.83396C20.3722 0.833447 20.5202 0.83274 20.6682 0.831855C21.0755 0.829993 21.4826 0.830917 21.8898 0.832294C22.3288 0.8333 22.7678 0.831748 23.2068 0.830522C24.067 0.828539 24.9271 0.828971 25.7873 0.830261C26.4862 0.831265 27.1851 0.831403 27.884 0.830918C27.9834 0.83085 28.0828 0.830781 28.1851 0.830711C28.387 0.830569 28.5889 0.830424 28.7908 0.830278C30.6848 0.829007 32.5789 0.830469 34.4729 0.832861C36.099 0.834851 37.725 0.834505 39.3511 0.832452C41.2382 0.83007 43.1254 0.82913 45.0126 0.830498C45.2137 0.83064 45.4148 0.83078 45.616 0.830918C45.715 0.830987 45.8139 0.831055 45.9159 0.831126C46.6142 0.831511 47.3124 0.830861 48.0107 0.829814C48.8614 0.828566 49.712 0.8289 50.5627 0.831275C50.9969 0.832447 51.4311 0.8329 51.8654 0.831431C52.2626 0.830107 52.6598 0.830828 53.0571 0.833202C53.2694 0.833938 53.4818 0.832478 53.6941 0.83095C53.8825 0.832692 53.8825 0.832692 54.0746 0.834469C54.1832 0.834541 54.2918 0.834614 54.4036 0.834688C54.7703 0.906791 54.9001 1.03712 55.125 1.33582C55.168 1.649 55.1841 1.91861 55.1805 2.23166C55.1816 2.36815 55.1816 2.36815 55.1826 2.50739C55.1844 2.8127 55.183 3.11791 55.1816 3.42322C55.1822 3.64193 55.183 3.86064 55.1839 4.07934C55.1859 4.6737 55.1851 5.26802 55.1838 5.86238C55.1827 6.48384 55.1837 7.10529 55.1844 7.72675C55.1852 8.77046 55.1841 9.81415 55.182 10.8579C55.1796 12.0652 55.1804 13.2725 55.1828 14.4799C55.1848 15.5158 55.1851 16.5516 55.1839 17.5875C55.1833 18.2065 55.1832 18.8255 55.1846 19.4445C55.1859 20.0264 55.185 20.6082 55.1825 21.1901C55.1819 21.4039 55.1821 21.6177 55.183 21.8315C55.1842 22.1229 55.1827 22.4142 55.1805 22.7056C55.182 22.8332 55.182 22.8332 55.1835 22.9633C55.178 23.3383 55.1499 23.5645 54.939 23.8767C54.6353 24.082 54.4703 24.1018 54.1075 24.1003C53.9901 24.1009 53.8726 24.1015 53.7515 24.1022C53.5591 24.0998 53.5591 24.0998 53.3627 24.0973C53.2272 24.0974 53.0916 24.0974 52.952 24.0975C52.5807 24.0973 52.2095 24.095 51.8382 24.0919C51.4501 24.0891 51.0619 24.0889 50.6738 24.0883C49.9389 24.087 49.2042 24.0833 48.4693 24.0788C47.6327 24.0739 46.7961 24.0714 45.9594 24.0692C44.2386 24.0645 42.5177 24.0567 40.7969 24.0468C40.7471 24.176 40.7471 24.176 40.6963 24.3078C40.575 24.6111 40.4329 24.8871 40.2756 25.1726C40.215 25.2829 40.1545 25.3931 40.092 25.5066C40.0269 25.6241 39.9617 25.7417 39.8945 25.8628C39.8273 25.9843 39.7601 26.1058 39.6908 26.2309C39.4768 26.6166 39.262 27.0017 39.0469 27.3866C39.011 27.4508 38.9752 27.515 38.9383 27.5811C38.6957 28.0158 38.4513 28.4494 38.206 28.8826C38.1418 28.9972 38.0775 29.1118 38.0113 29.23C37.921 29.3884 37.921 29.3884 37.8288 29.5501C37.7761 29.6432 37.7234 29.7362 37.6691 29.8321C37.5156 30.0585 37.5156 30.0585 37.1875 30.2811C36.5761 30.3514 36.5761 30.3514 36.3125 30.2811C35.92 29.9216 35.6528 29.5705 35.4033 29.0987C35.3383 28.9773 35.2732 28.8559 35.2062 28.7308C35.1381 28.6018 35.0701 28.4728 35 28.3398C34.8557 28.0696 34.7107 27.7998 34.5655 27.5301C34.529 27.4622 34.4926 27.3944 34.455 27.3245C34.0319 26.5401 33.5809 25.7727 33.1254 25.0074C33.0697 24.913 33.0139 24.8185 32.9565 24.7212C32.9073 24.6389 32.8582 24.5566 32.8076 24.4718C32.7031 24.2694 32.7031 24.2694 32.7031 24.0468C32.6319 24.0472 32.5607 24.0476 32.4874 24.048C30.7558 24.0578 29.0241 24.0652 27.2924 24.0698C26.455 24.0721 25.6176 24.0753 24.7802 24.0804C24.0504 24.0848 23.3205 24.0877 22.5907 24.0887C22.2042 24.0892 21.8177 24.0906 21.4312 24.0938C20.9999 24.0974 20.5686 24.0975 20.1373 24.0973C20.009 24.0989 19.8806 24.1005 19.7484 24.1022C19.631 24.1016 19.5135 24.1009 19.3924 24.1003C19.2904 24.1007 19.1884 24.1011 19.0833 24.1016C18.7101 24.026 18.5906 23.9206 18.375 23.6014C18.332 23.2883 18.3158 23.0187 18.3194 22.7056C18.3184 22.5691 18.3184 22.5691 18.3174 22.4299C18.3156 22.1246 18.317 21.8194 18.3184 21.514C18.3178 21.2953 18.317 21.0766 18.3161 20.8579C18.3141 20.2636 18.3148 19.6692 18.3162 19.0749C18.3173 18.4534 18.3163 17.832 18.3156 17.2105C18.3148 16.1668 18.3159 15.1231 18.318 14.0794C18.3203 12.872 18.3196 11.6647 18.3172 10.4574C18.3152 9.4215 18.3149 8.38565 18.316 7.34979C18.3167 6.73079 18.3168 6.1118 18.3154 5.49279C18.3141 4.91089 18.315 4.32903 18.3175 3.74714C18.3181 3.53333 18.3179 3.31953 18.317 3.10572C18.3158 2.81432 18.3172 2.52306 18.3194 2.23166C18.3185 2.14663 18.3175 2.0616 18.3165 1.97399C18.3218 1.60911 18.3376 1.38546 18.5589 1.09159C18.8728 0.842653 19.0306 0.834732 19.4254 0.834469ZM20.125 2.67176C20.125 9.1377 20.125 15.6036 20.125 22.2655C24.5687 22.2845 24.5687 22.2845 29.0125 22.2987C29.8714 22.3037 29.8714 22.3037 30.2733 22.3066C30.5544 22.3083 30.8354 22.3092 31.1165 22.3091C31.542 22.309 31.9674 22.3124 32.3928 22.3161C32.5811 22.3152 32.5811 22.3152 32.7731 22.3144C32.8876 22.3159 33.002 22.3175 33.12 22.3191C33.2196 22.3195 33.3192 22.3199 33.4218 22.3203C33.7719 22.3948 33.899 22.5463 34.125 22.8221C34.2554 23.0333 34.3785 23.2493 34.4958 23.4684C34.5641 23.5948 34.6323 23.7211 34.7026 23.8514C34.7744 23.9861 34.8462 24.1208 34.918 24.2555C34.9914 24.3921 35.065 24.5286 35.1387 24.6651C35.2477 24.8671 35.3567 25.0692 35.4654 25.2714C35.7402 25.7825 36.0202 26.2902 36.3057 26.7952C36.3721 26.9127 36.4385 27.0302 36.5069 27.1513C36.551 27.229 36.5951 27.3066 36.6406 27.3866C36.7128 27.3866 36.785 27.3866 36.8594 27.3866C36.9033 27.3055 36.9473 27.2243 36.9926 27.1407C38.4731 24.4113 38.4731 24.4113 39.1357 23.2535C39.1796 23.176 39.2235 23.0984 39.2688 23.0185C39.5676 22.5015 39.5676 22.5015 39.8125 22.3768C39.9926 22.3652 40.1732 22.3605 40.3537 22.3592C40.4679 22.3581 40.582 22.357 40.6997 22.3559C40.826 22.3553 40.9522 22.3546 41.0823 22.354C41.284 22.3523 41.284 22.3523 41.4898 22.3506C41.8542 22.3477 42.2185 22.3452 42.5829 22.343C42.9246 22.3408 43.2662 22.338 43.6079 22.3353C44.6077 22.3277 45.6076 22.321 46.6074 22.3142C48.8407 22.2981 51.074 22.2821 53.375 22.2655C53.375 15.7996 53.375 9.33363 53.375 2.67176C42.4025 2.67176 31.43 2.67176 20.125 2.67176Z" fill="#001B6A"/>
<path d="M32.8326 6.43369C34.3657 7.47278 35.4544 9.12801 35.8318 10.964C36.0484 12.3688 36.0166 13.9485 35.4375 15.2519C35.3856 15.3712 35.3337 15.4904 35.2803 15.6133C34.4019 17.4379 32.9404 18.6833 31.0625 19.3711C29.1574 19.934 27.0601 19.7095 25.3293 18.7543C23.6402 17.759 22.5434 16.1819 21.9715 14.2913C21.5255 12.3777 21.8641 10.3278 22.8201 8.64835C23.8735 6.90978 25.4394 5.95249 27.3303 5.39448C29.2265 4.9801 31.2098 5.41517 32.8326 6.43369ZM24.8931 9.02452C23.8624 10.2998 23.617 11.6245 23.7112 13.2331C23.8423 14.5801 24.6005 15.6629 25.5322 16.5792C26.803 17.6281 28.2817 17.8448 29.8594 17.7012C31.1907 17.4367 32.2929 16.6499 33.1406 15.5859C33.9857 14.1744 34.2511 12.6953 33.9404 11.0745C33.5527 9.79527 32.7419 8.6259 31.6094 7.92341C29.2525 6.68798 26.7412 7.03687 24.8931 9.02452Z" fill="#001B6A"/>
<path d="M37.625 16.0312C42.245 16.0312 46.865 16.0312 51.625 16.0312C51.625 16.6191 51.625 17.2069 51.625 17.8125C47.005 17.8125 42.385 17.8125 37.625 17.8125C37.625 17.2247 37.625 16.6369 37.625 16.0312Z" fill="#001B6A"/>
<path d="M37.625 12.4688C42.245 12.4688 46.865 12.4688 51.625 12.4688C51.625 13.0566 51.625 13.6444 51.625 14.25C47.005 14.25 42.385 14.25 37.625 14.25C37.625 13.6622 37.625 13.0744 37.625 12.4688Z" fill="#001B6A"/>
<path d="M37.625 8.90625C42.245 8.90625 46.865 8.90625 51.625 8.90625C51.625 9.49406 51.625 10.0819 51.625 10.6875C47.005 10.6875 42.385 10.6875 37.625 10.6875C37.625 10.0997 37.625 9.51188 37.625 8.90625Z" fill="#001B6A"/>
<path d="M30.7344 9.24023C31.154 9.39045 31.4619 9.58285 31.8076 9.86646C31.894 9.93677 31.9805 10.0071 32.0695 10.0795C32.1342 10.1332 32.1989 10.1869 32.2656 10.2422C32.1244 10.5502 31.9696 10.8044 31.7568 11.0658C31.6708 11.1723 31.6708 11.1723 31.5832 11.2809C31.4912 11.3936 31.4912 11.3936 31.3975 11.5085C31.2685 11.6683 31.1396 11.8282 31.0108 11.9882C30.9461 12.0686 30.8813 12.1489 30.8146 12.2317C30.5332 12.5835 30.2572 12.9395 29.9824 13.2968C29.9333 13.3605 29.8842 13.4242 29.8336 13.4899C29.6157 13.7731 29.3994 14.0573 29.1848 14.3431C29.1164 14.434 29.048 14.525 28.9775 14.6188C28.9199 14.6964 28.8622 14.7741 28.8028 14.854C28.5635 15.1402 28.416 15.1436 28.041 15.1963C27.4143 15.1848 27.104 14.7967 26.6875 14.3613C26.5891 14.2625 26.4907 14.1636 26.3893 14.0617C26.1221 13.7924 25.8572 13.5211 25.5938 13.248C25.7618 12.8383 26.0074 12.5814 26.3184 12.2739C26.4077 12.185 26.4971 12.096 26.5892 12.0043C26.6578 11.9371 26.7263 11.87 26.7969 11.8008C27.1241 11.9526 27.3755 12.1291 27.6445 12.3713C27.7116 12.4313 27.7788 12.4913 27.8479 12.5531C27.8981 12.5988 27.9483 12.6444 28 12.6914C28.1055 12.5536 28.1055 12.5536 28.2132 12.4131C28.7963 11.6538 29.3853 10.8997 29.9824 10.1517C30.0446 10.0739 30.1067 9.99603 30.1707 9.91581C30.6102 9.36664 30.6102 9.36664 30.7344 9.24023Z" fill="#001B6A"/>
<path d="M39.375 5.34375C41.685 5.34375 43.995 5.34375 46.375 5.34375C46.375 5.93156 46.375 6.51937 46.375 7.125C44.065 7.125 41.755 7.125 39.375 7.125C39.375 6.53719 39.375 5.94938 39.375 5.34375Z" fill="#001B6A"/>
<path d="M48.125 5.34375C49.28 5.34375 50.435 5.34375 51.625 5.34375C51.625 5.93156 51.625 6.51937 51.625 7.125C50.47 7.125 49.315 7.125 48.125 7.125C48.125 6.53719 48.125 5.94938 48.125 5.34375Z" fill="#001B6A"/>
</g>
<defs>
<clipPath id="clip0_161_3075">
<rect width="56" height="57" fill="white"/>
</clipPath>
</defs>
</svg>
