<svg width="52" height="53" viewBox="0 0 52 53" fill="none" xmlns="http://www.w3.org/2000/svg">
<g clip-path="url(#clip0_161_3057)">
<path d="M13.3555 0.161744C14.0226 0.582436 14.4828 1.10391 14.7266 1.86328C14.7601 2.06824 14.7936 2.2732 14.8282 2.48438C20.4923 2.51854 26.1564 2.5527 31.9922 2.58789C32.0593 2.24629 32.1263 1.90469 32.1954 1.55274C32.4945 0.864381 32.956 0.425384 33.6172 0.103516C34.2735 -0.119432 35.2517 -0.140151 35.896 0.148804C36.5057 0.529502 37.072 1.15892 37.2735 1.86328C37.2766 2.1048 37.2769 2.34638 37.2735 2.58789C37.3431 2.58697 37.4127 2.58605 37.4844 2.5851C38.1461 2.57675 38.8077 2.57047 39.4695 2.56644C39.8095 2.56429 40.1495 2.56116 40.4896 2.55665C40.8821 2.55158 41.2747 2.54927 41.6672 2.54746C41.7871 2.54532 41.9069 2.54318 42.0303 2.54098C43.1948 2.54066 44.2503 2.81039 45.1954 3.51953C45.2812 3.57718 45.3671 3.63482 45.4556 3.69421C46.3153 4.52549 46.8217 5.5983 46.8618 6.8123C46.866 7.1967 46.8611 7.58066 46.8548 7.96502C46.8536 8.13843 46.8525 8.31184 46.8516 8.48526C46.8494 8.85636 46.846 9.22742 46.8418 9.5985C46.8353 10.1864 46.833 10.7743 46.8314 11.3623C46.8266 13.0334 46.8188 14.7044 46.8012 16.3754C46.7915 17.3001 46.7866 18.2247 46.7869 19.1495C46.7868 19.6378 46.7843 20.1257 46.7759 20.614C46.768 21.0733 46.7663 21.5323 46.7692 21.9917C46.7692 22.1592 46.7669 22.3268 46.7621 22.4943C46.7425 23.22 46.7372 23.8328 47.2141 24.4095C47.4897 24.7049 47.7853 24.9706 48.0932 25.2303C48.3853 25.4872 48.6064 25.7977 48.8262 26.1183C48.8709 26.182 48.9156 26.2457 48.9616 26.3114C49.456 27.0315 49.8777 27.7903 50.2735 28.5703C50.3059 28.6338 50.3384 28.6972 50.3718 28.7626C50.909 29.8281 51.2924 30.9329 51.5938 32.0898C51.6154 32.1723 51.6371 32.2547 51.6594 32.3396C52.2498 34.7076 52.2776 37.5856 51.6954 39.957C51.679 40.0295 51.6627 40.102 51.6458 40.1767C50.8266 43.7933 48.7271 47.2415 45.8047 49.4805C45.7516 49.5216 45.6985 49.5628 45.6438 49.6053C42.6945 51.88 39.2999 53.0484 35.604 53.0388C35.4763 53.0387 35.4763 53.0387 35.3459 53.0385C32.5722 53.0288 30.0641 52.393 27.625 51.0332C27.503 50.9676 27.3809 50.9021 27.2589 50.8367C26.076 50.1893 25.0649 49.3455 24.0767 48.4259C24.0252 48.378 23.9736 48.3302 23.9206 48.2808C23.8457 48.2095 23.8457 48.2095 23.7692 48.1368C23.7207 48.0911 23.6721 48.0453 23.6221 47.9982C23.461 47.8242 23.461 47.8242 23.3385 47.616C23.1646 47.3437 23.0143 47.1808 22.75 46.9961C22.1528 46.871 21.5621 46.8884 20.9546 46.8975C20.7703 46.8972 20.5861 46.8966 20.4018 46.8956C20.0057 46.8943 19.6098 46.8955 19.2137 46.8989C18.5865 46.9041 17.9595 46.9036 17.3323 46.9023C16.3396 46.901 15.3469 46.9036 14.3542 46.9079C12.5786 46.9154 10.803 46.9168 9.02737 46.916C8.40486 46.9158 7.78239 46.9176 7.15989 46.9209C6.77134 46.9227 6.3828 46.9233 5.99425 46.9236C5.8151 46.924 5.63594 46.9249 5.4568 46.9265C3.86312 46.9397 2.42112 46.7726 1.18785 45.6354C0.165709 44.4952 -0.0460662 43.3491 -0.039333 41.8539C-0.0397572 41.7002 -0.0403145 41.5465 -0.0409912 41.3928C-0.0424556 40.9722 -0.0420282 40.5516 -0.0412779 40.1311C-0.0407966 39.6768 -0.0420687 39.2225 -0.0431081 38.7682C-0.044853 37.8789 -0.0449392 36.9896 -0.0444067 36.1002C-0.043996 35.3772 -0.044143 34.6543 -0.0446857 33.9313C-0.0447617 33.8283 -0.0448383 33.7253 -0.0449166 33.6192C-0.0450721 33.41 -0.0452277 33.2008 -0.0453846 32.9916C-0.0467783 31.0306 -0.0462261 29.0696 -0.0450607 27.1085C-0.044052 25.3154 -0.0453675 23.5223 -0.0477975 21.7291C-0.0502753 19.8869 -0.05125 18.0446 -0.0505746 16.2023C-0.0502201 15.1685 -0.0504458 14.1346 -0.0522251 13.1008C-0.053721 12.2207 -0.0537835 11.3406 -0.0520143 10.4604C-0.0511504 10.0116 -0.0509311 9.56286 -0.052487 9.11406C-0.0538953 8.70271 -0.053407 8.2914 -0.0514471 7.88004C-0.0510658 7.73175 -0.0513604 7.58344 -0.0524234 7.43515C-0.0617344 6.03602 0.245991 4.87569 1.19975 3.83655C2.33003 2.75885 3.59582 2.55432 5.09126 2.56767C5.2162 2.56797 5.34115 2.56826 5.46988 2.56856C5.86618 2.56971 6.26245 2.57231 6.65873 2.57495C6.92857 2.57611 7.19841 2.57694 7.46826 2.57778C8.1273 2.58006 8.78632 2.58351 9.44535 2.58789C9.45857 2.51649 9.47179 2.44509 9.48541 2.37153C9.50313 2.27804 9.52086 2.18455 9.53913 2.08823C9.55654 1.99548 9.57394 1.90273 9.59188 1.80717C9.73718 1.154 10.1383 0.6675 10.6831 0.310548C11.4272 -0.12024 12.5634 -0.210888 13.3555 0.161744ZM11.5401 2.0509C11.233 2.47222 11.2557 2.88602 11.2528 3.38892C11.2523 3.46743 11.2517 3.54593 11.2511 3.62682C11.2501 3.79292 11.2495 3.95903 11.2491 4.12513C11.2481 4.378 11.2449 4.63078 11.2417 4.88363C11.2411 5.04531 11.2405 5.20698 11.2402 5.36866C11.2389 5.44373 11.2376 5.5188 11.2364 5.59615C11.2384 6.085 11.326 6.41646 11.5782 6.83203C11.8196 7.02067 11.9349 7.04159 12.2383 7.02612C12.5505 6.91476 12.6927 6.78371 12.8985 6.52148C13.0333 6.13788 13.0165 5.74031 13.0171 5.33793C13.0174 5.26392 13.0178 5.18991 13.0181 5.11366C13.0186 4.95749 13.0189 4.80131 13.0189 4.64514C13.0191 4.40706 13.0209 4.16903 13.0229 3.93097C13.0231 3.77886 13.0234 3.62675 13.0234 3.47465C13.0242 3.4039 13.0249 3.33315 13.0257 3.26025C13.0233 2.76496 12.9426 2.40041 12.6763 1.98621C12.2901 1.72833 11.8962 1.77392 11.5401 2.0509ZM33.9219 2.27734C33.7604 2.60654 33.8016 2.96259 33.7997 3.32423C33.7991 3.40772 33.7986 3.49121 33.798 3.57723C33.797 3.75414 33.7963 3.93104 33.796 4.10795C33.795 4.37787 33.7918 4.6477 33.7886 4.9176C33.7879 5.08952 33.7874 5.26144 33.787 5.43336C33.7858 5.51382 33.7845 5.59427 33.7832 5.67717C33.7851 6.15088 33.8375 6.45509 34.125 6.83203C34.367 7.01287 34.4851 7.04142 34.7852 7.02612C35.1147 6.90856 35.2353 6.80913 35.4454 6.52148C35.5064 6.20364 35.5023 5.89024 35.4993 5.5672C35.4999 5.42825 35.4999 5.42825 35.5005 5.28649C35.5008 5.09089 35.5 4.89529 35.4983 4.6997C35.4961 4.40044 35.4983 4.10143 35.5009 3.80218C35.5006 3.61199 35.5001 3.42181 35.4993 3.23163C35.5001 3.14223 35.5009 3.05283 35.5018 2.96072C35.4944 2.45337 35.4944 2.45337 35.2611 2.01391C34.7413 1.66118 34.2838 1.79507 33.9219 2.27734ZM2.33598 5.38281C1.06196 7.97984 1.82817 11.1746 1.82817 14.0781C16.0723 14.0781 30.3164 14.0781 44.9922 14.0781C45.5779 10.4134 45.5779 10.4134 44.3412 5.21541C43.6189 4.57512 42.9044 4.43503 41.9755 4.44106C41.8479 4.44128 41.8479 4.44128 41.7177 4.44151C41.4465 4.44209 41.1754 4.44338 40.9043 4.4447C40.7203 4.44522 40.5362 4.44569 40.3521 4.44612C39.9014 4.44726 39.4507 4.44904 39 4.45117C39.0636 4.58957 39.0636 4.58957 39.1284 4.73076C39.1837 4.85186 39.239 4.97297 39.296 5.09774C39.3509 5.21776 39.4059 5.33778 39.4625 5.46144C39.9701 6.62026 39.9354 7.82436 39.5079 9.00586C38.9961 10.3297 38.1285 11.2851 36.8672 11.9043C35.5404 12.4592 34.0552 12.504 32.7032 12.0078C31.3594 11.4105 30.4135 10.4787 29.8269 9.10614C29.3726 7.79807 29.3918 6.44282 29.961 5.17578C30.0158 5.08331 30.0707 4.99084 30.1272 4.89556C30.283 4.67457 30.283 4.67457 30.2657 4.45117C25.7075 4.45117 21.1494 4.45117 16.4532 4.45117C16.6543 4.86109 16.8554 5.27102 17.0625 5.69336C17.4901 6.90158 17.3537 8.25532 16.8594 9.41992C16.1608 10.777 15.1767 11.6949 13.7316 12.1586C12.2643 12.5272 10.7245 12.3837 9.38902 11.6528C8.19585 10.8718 7.39167 9.75021 7.04991 8.34756C6.82932 6.91377 7.1124 5.69549 7.82035 4.45117C7.28746 4.44344 6.7546 4.43784 6.22166 4.43411C6.04071 4.43256 5.85977 4.43045 5.67884 4.42774C5.41738 4.42394 5.15596 4.42221 4.89448 4.42085C4.81478 4.41924 4.73508 4.41764 4.65296 4.41599C3.71061 4.4157 2.98608 4.68198 2.33598 5.38281ZM31.8907 5.38281C31.8075 5.52911 31.7252 5.67584 31.6431 5.82275C31.5972 5.90442 31.5512 5.98608 31.5039 6.07022C31.2018 6.67982 31.1811 7.37604 31.3507 8.03217C31.7169 9.03572 32.2716 9.75236 33.211 10.248C34.1277 10.6374 34.9694 10.6746 35.9111 10.3552C36.7122 10.0051 37.4281 9.31712 37.8142 8.52184C38.1708 7.59997 38.1717 6.95767 37.8083 6.03464C37.664 5.76777 37.493 5.58779 37.2735 5.38281C37.272 5.48289 37.2706 5.58297 37.2691 5.68608C37.2387 6.53168 37.1994 7.27903 36.6641 7.9707C36.0294 8.55097 35.3017 8.85317 34.4404 8.8243C33.6939 8.73537 33.1 8.44267 32.6016 7.86719C32.0676 7.16809 32.0691 6.23187 31.9922 5.38281C31.9587 5.38281 31.9252 5.38281 31.8907 5.38281ZM9.34379 5.48633C8.79352 6.24619 8.62129 6.93384 8.73442 7.86719C8.99428 8.8441 9.46251 9.57443 10.3186 10.0992C11.295 10.6152 12.3037 10.7518 13.3746 10.4098C14.3022 10.0164 14.9418 9.33628 15.3522 8.41186C15.6398 7.62249 15.596 6.90546 15.3407 6.11187C15.2099 5.85166 15.0382 5.68314 14.8282 5.48633C14.8132 5.60255 14.7983 5.71878 14.7829 5.83852C14.5384 7.56885 14.5384 7.56885 13.9141 8.17773C13.206 8.69393 12.5425 8.87634 11.6797 8.79883C10.9798 8.64982 10.4623 8.36925 10.0135 7.7847C9.56645 7.08008 9.51613 6.30358 9.44535 5.48633C9.41184 5.48633 9.37832 5.48633 9.34379 5.48633ZM1.82817 15.9414C1.81769 20.395 1.80722 24.8487 1.79643 29.4373C1.7918 30.8437 1.78718 32.2502 1.78242 33.6993C1.78072 34.9596 1.78072 34.9596 1.7797 36.2198C1.77922 36.7814 1.77736 37.3429 1.77455 37.9044C1.77097 38.6209 1.77003 39.3373 1.77075 40.0538C1.7706 40.3166 1.76959 40.5794 1.76763 40.8422C1.7651 41.1977 1.76571 41.553 1.7671 41.9084C1.76562 42.0109 1.76414 42.1134 1.76262 42.2189C1.77091 43.0107 1.96757 43.7245 2.53212 44.2963C3.48697 45.1087 4.58758 45.073 5.76056 45.0645C5.9318 45.0645 6.10304 45.0645 6.27428 45.0647C6.73692 45.0648 7.19953 45.063 7.66216 45.0608C8.14647 45.0588 8.63078 45.0587 9.11509 45.0583C10.0312 45.0573 10.9473 45.0548 11.8634 45.0517C12.9068 45.0482 13.9502 45.0465 14.9936 45.0449C17.139 45.0417 19.2843 45.0362 21.4297 45.0293C21.2908 44.6661 21.1338 44.3229 20.956 43.9776C18.9288 40.0076 18.5328 35.4084 19.846 31.1372C20.737 28.3622 22.2158 25.9486 24.2735 23.9121C24.1975 23.8882 24.1216 23.8643 24.0434 23.8397C23.0275 23.4968 23.0275 23.4968 22.75 22.9805C22.4956 22.3216 22.5127 21.6831 22.5149 20.987C22.5152 20.7691 22.5128 20.5514 22.5102 20.3335C22.5068 19.603 22.5198 18.9808 22.8516 18.3223C23.4411 17.7214 24.0284 17.6685 24.8214 17.6664C24.9134 17.6657 25.0054 17.665 25.1003 17.6643C25.2946 17.6633 25.489 17.6628 25.6834 17.6628C25.979 17.6624 26.2744 17.6586 26.5699 17.6547C26.7594 17.6541 26.9488 17.6537 27.1383 17.6535C27.2258 17.652 27.3133 17.6505 27.4035 17.6489C27.9939 17.6534 28.4562 17.7659 28.9454 18.1152C29.3974 18.6823 29.4613 19.1364 29.5103 19.8491C29.5231 20.0309 29.5231 20.0309 29.5361 20.2163C29.5422 20.3086 29.5484 20.401 29.5547 20.4961C29.6386 20.4715 29.6386 20.4715 29.7241 20.4464C34.4751 19.0875 39.1507 19.0511 43.5767 21.5636C43.9386 21.7721 44.2918 21.9787 44.6237 22.2344C44.782 22.3799 44.782 22.3799 44.9922 22.3594C44.9922 20.2414 44.9922 18.1235 44.9922 15.9414C30.7481 15.9414 16.5039 15.9414 1.82817 15.9414ZM24.2735 19.4609C24.2735 20.3149 24.2735 21.1689 24.2735 22.0488C24.8453 22.068 24.8453 22.068 25.4287 22.0876C25.6058 22.0961 25.6058 22.0961 25.7864 22.1048C26.4629 22.1157 26.975 22.0219 27.5411 21.6289C27.762 21.3894 27.7999 21.2617 27.8258 20.9368C27.82 20.7594 27.8069 20.5822 27.7901 20.4055C27.7691 20.0938 27.7482 19.7821 27.7266 19.4609C26.5871 19.4609 25.4475 19.4609 24.2735 19.4609ZM24.9844 25.7754C24.8972 25.8631 24.81 25.9507 24.7202 26.0411C22.1718 28.7415 20.8546 32.4926 20.7886 36.2046C20.7953 36.4549 20.806 36.7051 20.8204 36.9551C20.8241 37.0237 20.8279 37.0924 20.8318 37.1631C20.9606 39.2302 21.522 41.2216 22.4454 43.0625C22.4781 43.1279 22.5108 43.1934 22.5445 43.2608C23.5119 45.1585 24.9343 46.8511 26.6094 48.1348C26.6881 48.1959 26.7668 48.257 26.8478 48.32C29.3882 50.2133 32.3485 51.1599 35.4834 51.1626C35.5929 51.1627 35.5929 51.1627 35.7045 51.1628C36.8007 51.1611 37.8324 51.1073 38.8985 50.8262C38.9971 50.8028 38.9971 50.8028 39.0978 50.779C41.6634 50.1697 43.9351 48.7517 45.8047 46.8926C45.8898 46.8134 45.9749 46.7343 46.0626 46.6528C47.8644 44.9301 49.1405 42.4798 49.7657 40.0605C49.7867 39.9818 49.8078 39.903 49.8295 39.8219C50.3929 37.6292 50.4285 35.0105 49.8672 32.8144C49.8503 32.7447 49.8334 32.6749 49.816 32.603C48.8594 28.6958 46.383 25.3998 43.0316 23.3044C41.0022 22.0846 38.6212 21.3057 36.2579 21.2207C36.15 21.2154 36.0421 21.21 35.9309 21.2045C31.7837 21.0943 27.8934 22.8033 24.9844 25.7754Z" fill="#001B6A"/>
<path d="M46.4141 34.4707C46.7736 34.7284 47.0713 35.0425 47.379 35.3618C47.5247 35.512 47.6737 35.658 47.8235 35.8041C48.61 36.6069 48.61 36.6069 48.6235 37.11C48.5266 37.5687 48.4225 37.7297 48.0391 37.9902C47.7378 38.0535 47.5422 38.0311 47.2266 37.9902C46.9985 37.8317 46.9985 37.8317 46.8203 37.6797C46.7981 37.795 46.7758 37.9103 46.7529 38.0291C46.1232 41.1666 44.6092 43.9466 41.9681 45.7979C39.3697 47.5457 36.2044 48.1785 33.1411 47.5525C30.2587 46.9091 27.6268 45.1235 26.0272 42.5857C25.0497 40.984 25.0497 40.984 25.1875 40.2676C25.3902 39.9642 25.5357 39.7867 25.8957 39.7039C26.2281 39.6849 26.4499 39.7024 26.7122 39.9178C26.9523 40.2106 27.1179 40.5136 27.295 40.8499C27.6518 41.5058 28.0476 42.0872 28.5391 42.6484C28.614 42.7345 28.6889 42.8206 28.766 42.9093C30.3168 44.5906 32.6593 45.6914 34.9236 45.7786C37.6885 45.8363 40.0668 45.0459 42.1183 43.0975C43.5368 41.6958 44.4251 39.8568 44.7891 37.8867C44.6885 37.938 44.6885 37.938 44.586 37.9902C44.28 38.026 44.0688 38.0494 43.7735 37.9902C43.3968 37.6768 43.3968 37.6768 43.2657 37.3691C43.2398 36.9021 43.2725 36.669 43.5507 36.2931C43.7965 36.0246 44.051 35.7708 44.313 35.5188C44.4012 35.4305 44.4894 35.3421 44.5802 35.2511C45.5846 34.258 45.5846 34.258 46.4141 34.4707Z" fill="#001B6A"/>
<path d="M43.4453 27.8994C44.4217 28.8501 45.8159 30.3707 45.9332 31.7966C45.8981 32.1786 45.7586 32.3361 45.5 32.6074C45.1727 32.7741 44.8407 32.7548 44.4915 32.6547C44.1666 32.4216 44.0276 32.0791 43.8496 31.7275C43.478 31.0268 43.081 30.4056 42.5547 29.8124C42.4443 29.6855 42.4443 29.6855 42.3317 29.5561C40.6048 27.6797 38.2402 26.7278 35.7413 26.6039C33.0714 26.6011 30.7179 27.6479 28.7803 29.5148C27.4191 30.9503 26.6883 32.6603 26.2031 34.5742C26.2805 34.5397 26.3579 34.5053 26.4376 34.4698C26.7833 34.3399 26.9689 34.364 27.3203 34.4706C27.5824 34.6394 27.6945 34.7673 27.7782 35.0735C27.8197 35.4963 27.7778 35.7393 27.5407 36.096C27.324 36.3461 27.1016 36.5843 26.8655 36.8154C26.7175 36.9613 26.5749 37.1116 26.4322 37.2629C25.647 38.0532 25.647 38.0532 25.1363 38.1204C24.5206 38.0418 24.1102 37.5288 23.7051 37.0898C23.5623 36.9354 23.4163 36.7849 23.2693 36.6346C22.4837 35.8092 22.4837 35.8092 22.4453 35.2988C22.5438 34.9473 22.6581 34.6854 22.9531 34.4706C23.3518 34.3442 23.5167 34.3473 23.9053 34.5159C23.9933 34.5693 24.0812 34.6227 24.1719 34.6777C24.2738 34.322 24.3714 33.9688 24.4551 33.6081C25.0816 30.9495 26.551 28.5239 28.7422 26.914C28.8472 26.8366 28.9522 26.7592 29.0604 26.6795C33.5718 23.4869 39.4834 24.2258 43.4453 27.8994Z" fill="#001B6A"/>
<path d="M14.7336 17.5793C14.8164 17.578 14.8991 17.5767 14.9844 17.5753C15.0736 17.5745 15.1628 17.5738 15.2547 17.573C15.3931 17.5717 15.3931 17.5717 15.5344 17.5705C15.73 17.569 15.9256 17.5679 16.1212 17.5671C16.4186 17.5653 16.7158 17.5608 17.0132 17.5562C17.2035 17.5552 17.3939 17.5543 17.5842 17.5536C17.6724 17.5518 17.7606 17.55 17.8514 17.5481C18.5727 17.5507 19.1233 17.7312 19.6397 18.2576C20.0809 18.9841 20.0457 19.742 20.0455 20.567C20.0459 20.7924 20.0496 21.0176 20.0535 21.2429C20.0596 22.0164 20.041 22.6304 19.6016 23.291C19.0021 23.8864 18.431 23.9448 17.6319 23.9469C17.4938 23.9479 17.4938 23.9479 17.353 23.949C17.1586 23.95 16.9642 23.9505 16.7698 23.9505C16.4743 23.9509 16.1788 23.9547 15.8833 23.9586C15.6938 23.9592 15.5044 23.9596 15.315 23.9598C15.1837 23.9621 15.1837 23.9621 15.0498 23.9643C14.4548 23.9598 14.0049 23.8399 13.5079 23.4981C13.0165 22.9715 12.9824 22.5275 12.9758 21.8272C12.975 21.7444 12.9742 21.6615 12.9734 21.5762C12.972 21.4008 12.9709 21.2253 12.9701 21.0499C12.9689 20.8712 12.9668 20.6925 12.9638 20.5138C12.9595 20.255 12.9578 19.9964 12.9568 19.7375C12.955 19.6585 12.9532 19.5794 12.9514 19.4979C12.9537 18.9218 13.0821 18.5895 13.4063 18.1152C13.838 17.7741 14.1875 17.587 14.7336 17.5793ZM14.8282 19.4609C14.8282 20.3149 14.8282 21.169 14.8282 22.0488C15.9342 22.0488 17.0402 22.0488 18.1797 22.0488C18.1797 21.1948 18.1797 20.3408 18.1797 19.4609C17.0737 19.4609 15.9677 19.4609 14.8282 19.4609Z" fill="#001B6A"/>
<path d="M5.29042 17.5793C5.37114 17.578 5.45185 17.5767 5.53501 17.5753C5.66467 17.5742 5.66467 17.5742 5.79694 17.573C5.93183 17.5717 5.93183 17.5717 6.06944 17.5705C6.25964 17.569 6.44984 17.5679 6.64004 17.5671C6.83369 17.5659 7.02733 17.5638 7.22095 17.5607C7.50168 17.5563 7.7823 17.5546 8.06306 17.5536C8.14867 17.5518 8.23429 17.55 8.3225 17.5481C8.91392 17.5503 9.35658 17.6748 9.85151 18.0117C10.5502 18.7426 10.4957 19.5452 10.4929 20.5056C10.4926 20.7405 10.495 20.9753 10.4976 21.2102C10.4978 21.3612 10.4979 21.5121 10.4978 21.6631C10.4981 21.7991 10.4984 21.9351 10.4987 22.0753C10.4508 22.5658 10.328 22.9784 10.011 23.3642C9.36405 23.8686 8.87603 23.9448 8.08488 23.9469C7.94683 23.9479 7.94683 23.9479 7.80599 23.949C7.61161 23.95 7.41724 23.9505 7.22286 23.9505C6.92728 23.9509 6.63185 23.9547 6.3363 23.9586C6.14686 23.9592 5.95742 23.9596 5.76798 23.9598C5.63671 23.9621 5.63671 23.9621 5.50277 23.9643C4.84079 23.9593 4.28569 23.8127 3.79523 23.3376C3.26953 22.7157 3.37731 21.7863 3.38687 21.0166C3.38959 20.7554 3.38689 20.4948 3.38364 20.2337C3.38043 18.6809 3.38043 18.6809 3.96088 18.0117C4.37917 17.6894 4.77282 17.5868 5.29042 17.5793ZM5.2812 19.4609C5.2812 20.3149 5.2812 21.169 5.2812 22.0488C6.38721 22.0488 7.49323 22.0488 8.63276 22.0488C8.63276 21.1948 8.63276 20.3408 8.63276 19.4609C7.52674 19.4609 6.42073 19.4609 5.2812 19.4609Z" fill="#001B6A"/>
<path d="M5.10703 35.2821C5.19451 35.2812 5.28198 35.2802 5.37211 35.2791C5.46638 35.2787 5.56064 35.2783 5.65776 35.2778C5.75507 35.2772 5.85239 35.2766 5.95265 35.276C6.15865 35.275 6.36465 35.2744 6.57066 35.274C6.88495 35.273 7.19918 35.2697 7.51346 35.2665C7.71374 35.2658 7.91402 35.2653 8.1143 35.2649C8.20795 35.2636 8.3016 35.2623 8.39808 35.261C9.01599 35.2632 9.46738 35.3437 9.93926 35.7873C9.98783 35.8481 10.0364 35.909 10.0864 35.9717C10.1613 36.0629 10.1613 36.0629 10.2376 36.1561C10.5052 36.547 10.4804 36.9589 10.4852 37.4156C10.486 37.4914 10.4868 37.5671 10.4876 37.6451C10.489 37.8054 10.4901 37.9658 10.4909 38.1262C10.4921 38.2891 10.4942 38.452 10.4972 38.6149C10.5314 40.4697 10.5314 40.4697 9.88094 41.1826C9.79728 41.2389 9.79728 41.2389 9.71193 41.2963C9.65668 41.3356 9.60143 41.375 9.54451 41.4155C9.03464 41.6548 8.4585 41.631 7.90721 41.6343C7.79003 41.6352 7.79003 41.6352 7.67047 41.6361C7.50582 41.6371 7.34117 41.6377 7.17651 41.6381C6.92711 41.6392 6.67779 41.6424 6.42841 41.6456C4.59331 41.6586 4.59331 41.6586 3.94508 41.1212C3.90005 41.0594 3.85501 40.9976 3.80861 40.934C3.76148 40.8719 3.71435 40.8099 3.66579 40.7459C3.4071 40.3551 3.43495 39.992 3.43251 39.5349C3.43193 39.4516 3.43135 39.3684 3.43076 39.2826C3.4298 39.1061 3.42913 38.9297 3.42874 38.7532C3.42776 38.4844 3.42461 38.2157 3.4214 37.947C3.42074 37.7754 3.42021 37.6038 3.41982 37.4322C3.41856 37.3523 3.41731 37.2724 3.41602 37.19C3.4183 36.6213 3.52077 36.1848 3.91017 35.7497C4.31606 35.4276 4.5964 35.2868 5.10703 35.2821ZM5.28127 37.1621C5.28127 38.0161 5.28127 38.8701 5.28127 39.75C6.38728 39.75 7.4933 39.75 8.63283 39.75C8.63283 38.896 8.63283 38.042 8.63283 37.1621C7.52681 37.1621 6.4208 37.1621 5.28127 37.1621Z" fill="#001B6A"/>
<path d="M5.011 26.4817C5.14784 26.4797 5.14784 26.4797 5.28744 26.4777C5.38635 26.4769 5.48527 26.4761 5.58718 26.4753C5.6889 26.4745 5.79062 26.4737 5.89543 26.4728C6.11117 26.4714 6.32692 26.4703 6.54267 26.4695C6.87148 26.4677 7.20018 26.4631 7.52896 26.4586C7.73863 26.4575 7.9483 26.4566 8.15798 26.4559C8.25586 26.4541 8.35375 26.4523 8.4546 26.4504C9.07755 26.4525 9.44562 26.5384 9.95317 26.9141C10.3847 27.4812 10.478 27.9167 10.4852 28.6168C10.486 28.6925 10.4868 28.7683 10.4877 28.8463C10.4891 29.0066 10.4902 29.167 10.491 29.3274C10.4921 29.4903 10.4942 29.6532 10.4972 29.8161C10.5306 31.6228 10.5306 31.6228 10.0547 32.1934C9.46785 32.7032 8.94055 32.7871 8.18813 32.776C8.08952 32.7763 7.99091 32.7765 7.88932 32.7768C7.68199 32.7767 7.47466 32.7753 7.26735 32.7727C6.95125 32.7692 6.63544 32.7706 6.31934 32.7726C6.11707 32.7719 5.91481 32.7709 5.71254 32.7696C5.61879 32.7701 5.52504 32.7706 5.42845 32.7711C4.8199 32.7599 4.46045 32.6565 3.96099 32.2969C3.47444 31.7618 3.43557 31.3277 3.42897 30.6224C3.42815 30.5393 3.42733 30.4562 3.42649 30.3706C3.42508 30.1948 3.42399 30.0189 3.4232 29.8431C3.42145 29.5752 3.41699 29.3074 3.41251 29.0396C3.41148 28.8685 3.41061 28.6974 3.40993 28.5262C3.40815 28.4466 3.40637 28.367 3.40454 28.285C3.40666 27.7459 3.5139 27.4474 3.85942 27.0176C4.25277 26.6644 4.48941 26.4883 5.011 26.4817ZM5.2813 28.3633C5.2813 29.1831 5.2813 30.003 5.2813 30.8477C6.38731 30.8477 7.49333 30.8477 8.63286 30.8477C8.63286 30.0278 8.63286 29.208 8.63286 28.3633C7.52684 28.3633 6.42083 28.3633 5.2813 28.3633Z" fill="#001B6A"/>
<path d="M35.9532 31.7794C36.3337 32.0472 36.6458 32.3754 36.9688 32.711C37.0623 32.8027 37.1558 32.8944 37.2521 32.9888C38.1774 33.9034 38.1774 33.9034 38.1959 34.3709C38.1563 34.6742 38.1237 34.9222 37.9717 35.1889C37.6697 35.3634 37.4153 35.3903 37.0704 35.4024C36.7935 35.248 36.7935 35.248 36.5626 35.0919C36.562 35.1634 36.5614 35.2348 36.5608 35.3085C36.5543 36.0524 36.5457 36.7963 36.5359 37.5401C36.5324 37.8178 36.5296 38.0954 36.5274 38.373C36.524 38.7721 36.5187 39.1711 36.513 39.5701C36.512 39.7563 36.512 39.7563 36.511 39.9463C36.509 40.0623 36.507 40.1783 36.5049 40.2979C36.5038 40.3997 36.5027 40.5015 36.5015 40.6064C36.4534 40.942 36.356 41.1364 36.1563 41.4063C35.789 41.5658 35.5583 41.6395 35.1661 41.5487C34.9049 41.386 34.7922 41.2581 34.6329 40.9923C34.5924 40.7185 34.5924 40.7185 34.589 40.4036C34.5869 40.2855 34.5849 40.1674 34.5829 40.0458C34.5822 39.9188 34.5816 39.7919 34.5809 39.6611C34.5782 39.4656 34.5782 39.4656 34.5754 39.266C34.5708 38.9202 34.5675 38.5745 34.5649 38.2286C34.5618 37.8754 34.5571 37.5223 34.5525 37.1691C34.5439 36.4767 34.537 35.7843 34.5313 35.0919C34.455 35.1431 34.3787 35.1944 34.3 35.2472C34.0235 35.4024 34.0235 35.4024 33.6617 35.4024C33.3126 35.2989 33.3126 35.2989 33.065 35.0789C32.8556 34.6863 32.8255 34.4987 32.9063 34.0567C33.1023 33.7403 33.3574 33.4913 33.6172 33.2286C33.7287 33.1127 33.84 32.9966 33.9513 32.8805C35.2016 31.5847 35.2016 31.5847 35.9532 31.7794Z" fill="#001B6A"/>
<path d="M14.5534 26.4801C14.6436 26.4784 14.7337 26.4767 14.8266 26.475C15.2387 26.4704 15.6508 26.4662 16.0629 26.4638C16.2804 26.4621 16.4979 26.4592 16.7154 26.4553C17.0287 26.4496 17.3419 26.4474 17.6553 26.4458C17.8011 26.4423 17.8011 26.4423 17.9499 26.4387C18.6223 26.4409 18.6223 26.4409 18.952 26.7395C19.1391 27.1065 19.151 27.3337 19.0938 27.7422C18.8139 28.2109 18.8139 28.2109 18.5198 28.3247C18.1756 28.3804 17.8338 28.3759 17.4863 28.3734C17.4102 28.3733 17.3341 28.3731 17.2557 28.373C17.0136 28.3724 16.7715 28.3711 16.5293 28.3698C16.3648 28.3692 16.2003 28.3688 16.0358 28.3684C15.6333 28.3673 15.2307 28.3653 14.8282 28.3633C14.8282 29.1831 14.8282 30.003 14.8282 30.8477C15.4404 30.8314 15.4404 30.8314 16.0526 30.8104C16.4751 30.8047 16.7004 30.8113 17.0677 31.0434C17.3232 31.3251 17.3624 31.425 17.4053 31.8117C17.3678 32.1872 17.3233 32.3492 17.0532 32.6055C16.6005 32.8518 16.0442 32.775 15.5455 32.7627C15.4269 32.763 15.3084 32.7632 15.1862 32.7635C14.5032 32.7556 13.9646 32.7383 13.4424 32.2415C13.0356 31.6993 12.9819 31.3846 12.9758 30.7134C12.975 30.6279 12.9742 30.5423 12.9734 30.4542C12.972 30.2729 12.9709 30.0915 12.9701 29.9102C12.9683 29.6339 12.9639 29.3577 12.9594 29.0814C12.9584 28.9051 12.9575 28.7288 12.9568 28.5525C12.955 28.4703 12.9532 28.3882 12.9514 28.3035C12.9535 27.7568 13.0542 27.453 13.4063 27.0176C13.7972 26.6666 14.0349 26.4887 14.5534 26.4801Z" fill="#001B6A"/>
<path d="M15.5263 35.2601C15.6467 35.2562 15.767 35.2524 15.8909 35.2484C16.7749 35.2392 16.7749 35.2392 17.1922 35.5343C17.4388 35.932 17.4388 35.932 17.437 36.2306C17.4395 36.2968 17.442 36.3629 17.4445 36.4311C17.3151 36.7883 17.081 36.9926 16.7578 37.1622C16.4198 37.2224 16.0966 37.2115 15.7549 37.1946C15.449 37.1839 15.1432 37.1732 14.8281 37.1622C14.8281 38.0162 14.8281 38.8702 14.8281 39.7501C15.036 39.7453 15.2439 39.7405 15.4581 39.7355C15.6601 39.7327 15.8621 39.7298 16.0641 39.7274C16.2042 39.7253 16.3443 39.7225 16.4844 39.7189C16.686 39.7138 16.8877 39.7117 17.0894 39.7097C17.2107 39.7075 17.332 39.7053 17.4569 39.7031C17.8377 39.7597 17.9519 39.8536 18.1797 40.1642C18.2861 40.5618 18.317 40.7923 18.1733 41.1799C17.8674 41.5319 17.5118 41.6 17.0608 41.6418C16.7122 41.6447 16.3637 41.6467 16.0151 41.6457C15.8947 41.6474 15.7743 41.6491 15.6503 41.6508C14.8121 41.6513 14.0757 41.6113 13.4126 41.0505C13.0082 40.5384 12.9676 40.1423 12.9658 39.4921C12.9652 39.4069 12.9645 39.3216 12.9638 39.2338C12.9628 39.0537 12.9623 38.8736 12.9623 38.6935C12.9619 38.419 12.9582 38.1447 12.9543 37.8702C12.9537 37.6949 12.9533 37.5195 12.9532 37.3442C12.9517 37.2626 12.9502 37.1811 12.9487 37.0971C12.9531 36.5531 13.0571 36.2501 13.4062 35.8165C14.0663 35.2094 14.675 35.2704 15.5263 35.2601Z" fill="#001B6A"/>
</g>
<defs>
<clipPath id="clip0_161_3057">
<rect width="52" height="53" fill="white"/>
</clipPath>
</defs>
</svg>
