<svg width="50" height="50" viewBox="0 0 50 50" fill="none" xmlns="http://www.w3.org/2000/svg">
<path d="M49 4.51953V36.7914C49 37.207 48.6625 37.5414 48.25 37.5414H29.3937L30.7719 40.857H33.1688C35.7188 40.857 37.7906 42.932 37.7906 45.4789C37.7906 45.8945 37.4563 46.2289 37.0406 46.2289H12.9625C12.5469 46.2289 12.2125 45.8945 12.2125 45.4789C12.2125 42.932 14.2844 40.857 16.8344 40.857H19.2313L20.6094 37.5414H1.75C1.33437 37.5414 1 37.207 1 36.7914V4.51953C1 4.10391 1.3375 3.76953 1.75 3.76953H48.25C48.6656 3.76953 49 4.10391 49 4.51953ZM47.5 36.0383V5.26953H2.5V36.0414H21.7156H21.7406H28.2563H28.2812L47.5 36.0383ZM13.8031 44.7258H36.2C35.8625 43.3664 34.6313 42.3539 33.1688 42.3539H30.2844H30.2594H19.7437H19.7188H16.8344C15.3688 42.3539 14.1375 43.3664 13.8031 44.7258ZM29.1469 40.8539L27.7687 37.5383H22.2313L20.8531 40.8539H29.1469Z" fill="#001B6A"/>
<path d="M45.8214 7.69727V33.6098C45.8214 34.0254 45.487 34.3598 45.0714 34.3598H4.92761C4.51199 34.3598 4.17761 34.0254 4.17761 33.6098V7.69727C4.17761 7.28164 4.51199 6.94727 4.92761 6.94727H45.0714C45.4839 6.94727 45.8214 7.28164 45.8214 7.69727ZM44.3214 32.8598V8.44727H25.7495V32.8598H44.3214ZM24.2495 32.8598V8.44727H5.67761V32.8598H24.2495Z" fill="#001B6A"/>
<path d="M41.223 12.8828C41.6387 12.8828 41.973 13.2203 41.973 13.6328C41.973 14.0484 41.6387 14.3828 41.223 14.3828H37.8887C37.473 14.3828 37.1387 14.0484 37.1387 13.6328C37.1387 13.2172 37.4762 12.8828 37.8887 12.8828H41.223Z" fill="#001B6A"/>
<path d="M41.2246 16.4258C41.6402 16.4258 41.9746 16.7633 41.9746 17.1758C41.9746 17.5914 41.6402 17.9258 41.2246 17.9258H35.5059C35.0902 17.9258 34.7559 17.5914 34.7559 17.1758C34.7559 16.7602 35.0934 16.4258 35.5059 16.4258H41.2246Z" fill="#001B6A"/>
<path d="M41.2199 19.9727C41.6355 19.9727 41.9699 20.3102 41.9699 20.7227C41.9699 21.1383 41.6355 21.4727 41.2199 21.4727H37.8418C37.4262 21.4727 37.0918 21.1383 37.0918 20.7227C37.0918 20.307 37.4293 19.9727 37.8418 19.9727H41.2199Z" fill="#001B6A"/>
<path d="M41.2227 23.5156C41.6383 23.5156 41.9727 23.8531 41.9727 24.2656C41.9727 24.6812 41.6383 25.0156 41.2227 25.0156H35.207C34.7914 25.0156 34.457 24.6812 34.457 24.2656C34.457 23.85 34.7914 23.5156 35.207 23.5156H41.2227Z" fill="#001B6A"/>
<path d="M41.2219 27.0645C41.6375 27.0645 41.9719 27.402 41.9719 27.8145C41.9719 28.2301 41.6375 28.5645 41.2219 28.5645H38.6562C38.2406 28.5645 37.9062 28.2301 37.9062 27.8145C37.9062 27.3988 38.2406 27.0645 38.6562 27.0645H41.2219Z" fill="#001B6A"/>
<path d="M36.7402 27.0645C37.1559 27.0645 37.4902 27.402 37.4902 27.8145C37.4902 28.2301 37.1559 28.5645 36.7402 28.5645H28.8496C28.434 28.5645 28.0996 28.2301 28.0996 27.8145C28.0996 27.3988 28.434 27.0645 28.8496 27.0645H36.7402Z" fill="#001B6A"/>
<path d="M36.059 12.8828C36.4746 12.8828 36.809 13.2203 36.809 13.6328C36.809 14.0484 36.4746 14.3828 36.059 14.3828H28.8496C28.434 14.3828 28.0996 14.0484 28.0996 13.6328C28.0996 13.2172 28.434 12.8828 28.8496 12.8828H36.059Z" fill="#001B6A"/>
<path d="M36.0125 19.9727C36.4281 19.9727 36.7625 20.3102 36.7625 20.7227C36.7625 21.1383 36.425 21.4727 36.0125 21.4727H28.8438C28.4281 21.4727 28.0938 21.1383 28.0938 20.7227C28.0938 20.307 28.4281 19.9727 28.8438 19.9727H36.0125Z" fill="#001B6A"/>
<path d="M33.6746 16.4258C34.0902 16.4258 34.4246 16.7633 34.4246 17.1758C34.4246 17.5914 34.0902 17.9258 33.6746 17.9258H28.8496C28.434 17.9258 28.0996 17.5914 28.0996 17.1758C28.0996 16.7602 28.434 16.4258 28.8496 16.4258H33.6746Z" fill="#001B6A"/>
<path d="M33.334 23.5156C33.7496 23.5156 34.084 23.8531 34.084 24.2656C34.084 24.6812 33.7496 25.0156 33.334 25.0156H28.8496C28.434 25.0156 28.0996 24.6812 28.0996 24.2656C28.0996 23.85 28.434 23.5156 28.8496 23.5156H33.334Z" fill="#001B6A"/>
<path d="M21.5246 25.656V27.906C21.5246 28.3216 21.1902 28.656 20.7746 28.656H9.05273C8.63711 28.656 8.30273 28.3216 8.30273 27.906V25.656C8.30273 24.4685 8.73711 23.3247 9.52148 22.4341C10.2996 21.5529 11.3684 20.9841 12.5309 20.831C12.759 20.7997 12.9871 20.8779 13.1527 21.0372C13.6277 21.4997 14.2527 21.756 14.9152 21.756C15.5777 21.756 16.2027 21.4997 16.6746 21.0372C16.8402 20.8779 17.0684 20.7997 17.2965 20.831C18.459 20.9841 19.5246 21.5529 20.3059 22.4341C21.0934 23.3247 21.5246 24.4685 21.5246 25.656ZM20.0246 27.156V25.656C20.0246 24.081 18.9277 22.7247 17.4246 22.3779C16.7152 22.9466 15.8371 23.256 14.9152 23.256C13.9934 23.256 13.1152 22.9466 12.4059 22.3779C10.9027 22.7279 9.80586 24.0841 9.80586 25.656V27.156H20.0246Z" fill="#001B6A"/>
<path d="M14.9168 12.6504C17.0449 12.6504 18.7731 14.3816 18.7731 16.5066C18.7731 18.6348 17.0418 20.3629 14.9168 20.3629C12.7918 20.3629 11.0606 18.6316 11.0606 16.5066C11.0574 14.3816 12.7887 12.6504 14.9168 12.6504ZM17.2731 16.5066C17.2731 15.2066 16.2137 14.1504 14.9168 14.1504C13.6168 14.1504 12.5606 15.2066 12.5606 16.5066C12.5606 17.8066 13.6168 18.8629 14.9168 18.8629C16.2168 18.866 17.2731 17.8066 17.2731 16.5066Z" fill="#001B6A"/>
</svg>
