<svg width="56" height="57" viewBox="0 0 56 57" fill="none" xmlns="http://www.w3.org/2000/svg">
<path d="M48.6552 6.58281C51.4617 9.16171 53.5537 12.4431 54.5439 16.1775C54.5648 16.2551 54.5856 16.3327 54.607 16.4127C55.0203 18.057 55.1827 19.6745 55.166 21.3681C55.1655 21.4607 55.165 21.5532 55.1645 21.6485C55.1558 22.9902 55.122 24.2986 54.7969 25.6056C54.774 25.6993 54.7511 25.7931 54.7275 25.8897C53.9442 29.0209 52.618 32.1459 50.3138 34.4366C50.177 34.624 50.177 34.624 50.2331 34.88C50.317 35.1968 50.4314 35.428 50.5966 35.709C50.6564 35.8118 50.7162 35.9146 50.7778 36.0205C50.8431 36.1311 50.9083 36.2417 50.9756 36.3557C51.1149 36.5951 51.254 36.8346 51.393 37.0741C51.4663 37.2002 51.5397 37.3262 51.6152 37.4561C51.9692 38.067 52.3148 38.6828 52.6602 39.2988C52.7704 39.4954 52.8809 39.6918 52.9914 39.8882C54.9526 43.3839 54.9526 43.3839 54.5025 45.5659C54.0593 46.9041 53.1867 47.9625 51.9668 48.6366C50.844 49.1459 49.6649 49.1282 48.4574 49.1246C48.2844 49.1249 48.1114 49.1253 47.9385 49.1258C47.472 49.1268 47.0056 49.1264 46.5392 49.1257C46.0493 49.1251 45.5593 49.1257 45.0694 49.126C44.247 49.1264 43.4246 49.1259 42.6022 49.1248C41.6535 49.1236 40.7049 49.124 39.7562 49.1252C38.9392 49.1262 38.1223 49.1264 37.3053 49.1258C36.8184 49.1255 36.3316 49.1254 35.8447 49.1261C35.3869 49.1268 34.9291 49.1263 34.4714 49.1251C34.3041 49.1248 34.1368 49.1248 33.9696 49.1253C32.2467 49.13 30.7087 48.9114 29.4014 47.6529C28.387 46.4913 28.015 45.2779 28.0726 43.746C28.1845 42.4091 28.8724 41.3186 29.5313 40.1895C29.2312 39.986 28.9476 39.8588 28.6132 39.7269C26.9328 39.0611 25.4064 38.1544 23.9531 37.0724C23.4635 37.4877 23.0053 37.9169 22.5624 38.3835C22.35 38.5938 22.1333 38.7901 21.9088 38.9867C21.4001 39.4363 20.9266 39.9179 20.4531 40.4052C20.326 40.5354 20.326 40.5354 20.1964 40.6681C19.99 40.8794 19.784 41.091 19.5781 41.3028C19.6135 41.4201 19.6489 41.5373 19.6854 41.6581C19.8788 42.3935 19.9047 43.1498 19.6008 43.859C19.0938 44.7307 18.2827 45.4001 17.5558 46.0785C16.7519 46.8336 15.9847 47.6264 15.2163 48.4186C14.3586 49.3006 14.3586 49.3006 13.9005 49.6981C13.2597 50.2559 12.678 50.8792 12.0859 51.4894C10.7191 52.8979 10.7191 52.8979 10.0252 53.4994C9.76451 53.7305 9.52829 53.9831 9.29004 54.2378C8.61172 54.9346 8.05297 55.282 7.08203 55.358C6.04422 55.2876 5.41577 54.8588 4.70313 54.1056C4.59172 53.9739 4.48068 53.842 4.36987 53.7098C4.04045 53.3229 3.69152 52.9605 3.33167 52.6031C3.27778 52.5494 3.22389 52.4957 3.16837 52.4403C2.94487 52.2178 2.72117 51.9956 2.49586 51.775C0.991686 50.2994 0.991686 50.2994 0.798523 49.2284C0.801621 48.2519 0.909646 47.6211 1.53125 46.8692C1.7274 46.679 1.92714 46.4926 2.12939 46.3091C2.60367 45.8738 3.06526 45.4291 3.51538 44.968C3.59804 44.8833 3.59804 44.8833 3.68236 44.7969C3.84965 44.6251 4.01667 44.453 4.18359 44.2809C5.42002 43.0057 5.42002 43.0057 5.89771 42.5918C6.55803 42.0179 7.15576 41.3743 7.76563 40.7462C9.17215 39.2976 9.17215 39.2976 9.86394 38.6989C10.0844 38.4999 10.2881 38.2897 10.4923 38.0734C10.5635 37.9981 10.6347 37.9228 10.7081 37.8451C10.8519 37.6917 10.9949 37.5375 11.137 37.3824C11.7345 36.7551 12.3857 36.2772 13.2455 36.1195C13.3366 36.124 13.4276 36.1284 13.5215 36.133C13.6219 36.1365 13.7223 36.1399 13.8257 36.1435C14.0981 36.1802 14.3067 36.2532 14.5605 36.3557C14.9768 36.453 14.9768 36.453 15.2262 36.2235C15.389 36.056 15.547 35.8835 15.6987 35.7055C15.9115 35.4667 16.1155 35.2683 16.355 35.0606C16.9881 34.5063 17.5686 33.8972 18.1563 33.2942C18.2734 33.1743 18.3906 33.0545 18.5079 32.9347C18.792 32.6443 19.0758 32.3536 19.3594 32.0626C19.228 31.7151 19.0858 31.388 18.9069 31.0633C18.0497 29.4783 17.4164 27.8874 16.9736 26.1344C16.9523 26.0504 16.931 25.9663 16.909 25.8798C16.5568 24.3959 16.4743 22.9214 16.4814 21.4029C16.4816 21.315 16.4818 21.227 16.4821 21.1363C16.4871 19.8182 16.5351 18.5419 16.8438 17.256C16.8631 17.1733 16.8825 17.0906 16.9024 17.0054C17.6338 13.9561 18.9521 11.0512 21 8.68369C21.0811 8.58898 21.1621 8.49426 21.2457 8.39667C21.4883 8.11761 21.7348 7.84309 21.9844 7.57041C22.0592 7.48818 22.1341 7.40595 22.2112 7.32123C28.8947 0.241802 40.3045 -0.0416768 48.6552 6.58281ZM24.1907 8.12488C23.9824 8.32197 23.7695 8.50711 23.5498 8.69065C23.1274 9.05864 22.7736 9.47092 22.4219 9.9083C22.2967 10.0629 22.2967 10.0629 22.1689 10.2205C20.4757 12.3577 19.3634 14.8263 18.7031 17.4786C18.6835 17.5553 18.6639 17.632 18.6437 17.7109C18.0765 20.0396 18.1354 22.9511 18.7031 25.2716C18.7213 25.3517 18.7395 25.4317 18.7582 25.5142C19.0628 26.8415 19.5398 28.0561 20.125 29.2794C20.1592 29.3524 20.1935 29.4254 20.2288 29.5007C20.9983 31.1266 22.0744 32.5421 23.2969 33.8438C23.3675 33.9228 23.4382 34.0017 23.5109 34.083C25.3604 36.0771 28.0082 37.7219 30.625 38.4083C30.6935 38.2916 30.762 38.175 30.8326 38.0547C30.9229 37.9012 31.0132 37.7477 31.1035 37.5942C31.1712 37.4789 31.1712 37.4789 31.2402 37.3613C31.2839 37.2871 31.3277 37.2128 31.3727 37.1363C31.4128 37.0681 31.4529 36.9999 31.4942 36.9296C31.6013 36.7518 31.7145 36.5779 31.8281 36.4044C31.8281 36.2942 31.8281 36.184 31.8281 36.0704C31.7313 36.0406 31.6344 36.0107 31.5346 35.98C29.4169 35.2981 27.6334 34.2927 25.9219 32.8419C25.8522 32.7848 25.7826 32.7277 25.7108 32.6688C23.0878 30.4736 21.4071 26.7757 21 23.379C20.9879 23.279 20.9757 23.179 20.9633 23.0759C20.5484 19.1101 21.6371 15.0428 24.1031 11.93C26.6916 8.73664 30.2178 6.71944 34.2785 6.25975C35.9259 6.11313 37.5408 6.22131 39.1563 6.56846C39.2963 6.59816 39.4363 6.62787 39.5805 6.65848C41.7516 7.18575 43.8188 8.30972 45.5 9.79697C45.5908 9.8759 45.6816 9.95483 45.7752 10.0362C48.7664 12.6979 50.4551 16.4761 50.75 20.4845C50.8901 23.7772 50.1398 27.7898 47.899 30.3135C47.7494 30.5926 47.8282 30.7582 47.9063 31.0606C48.0165 31.311 48.0165 31.311 48.1562 31.5534C48.2052 31.642 48.2542 31.7306 48.3047 31.8219C48.3559 31.9128 48.4072 32.0037 48.46 32.0974C48.5116 32.1905 48.5633 32.2835 48.6166 32.3794C48.7437 32.6082 48.8715 32.8365 49 33.0645C51.1534 30.9659 52.5001 27.7686 53.0469 24.8263C53.0661 24.725 53.0854 24.6238 53.1052 24.5195C53.2807 23.4983 53.3049 22.4988 53.2998 21.4656C53.2996 21.3794 53.2993 21.2932 53.2991 21.2045C53.2935 19.9369 53.2561 18.7097 52.9375 17.4786C52.9152 17.3903 52.8929 17.302 52.8699 17.211C52.2209 14.7046 51.1597 12.3714 49.5469 10.3536C49.4974 10.2913 49.4479 10.2291 49.3969 10.1649C46.4187 6.44244 42.199 4.13639 37.5027 3.62563C32.6906 3.16189 27.7403 4.75393 24.1907 8.12488ZM25.5938 12.9142C25.2234 13.3696 24.9094 13.8555 24.6094 14.3614C24.5345 14.4866 24.4596 14.6117 24.3825 14.7406C23.1488 16.8953 22.4637 19.5448 22.6406 22.0431C22.6539 22.2504 22.6539 22.2504 22.6675 22.4619C22.8292 24.4502 23.415 26.3283 24.3906 28.0548C24.4538 28.1666 24.517 28.2784 24.582 28.3936C26.3222 31.3004 28.9998 33.2675 32.1451 34.3287C32.5064 34.4051 32.6841 34.4074 33.0313 34.2892C33.2222 34.062 33.2222 34.062 33.3658 33.7634C33.4252 33.6519 33.4847 33.5405 33.5459 33.4256C33.6084 33.3042 33.6709 33.1827 33.7354 33.0576C33.8716 32.8015 34.008 32.5455 34.1447 32.2896C34.1793 32.2241 34.214 32.1587 34.2497 32.0912C34.5974 31.4354 34.964 30.7916 35.335 30.1491C35.3978 30.0403 35.4606 29.9314 35.5253 29.8193C35.6515 29.6006 35.7778 29.3821 35.9042 29.1636C36.0974 28.8278 36.2884 28.4908 36.4791 28.1535C36.6036 27.935 36.7281 27.7166 36.8525 27.4981C36.908 27.3991 36.9635 27.3 37.0207 27.198C37.7392 25.9445 38.5618 25.064 39.9492 24.6175C41.2853 24.2977 42.5904 24.4449 43.812 25.0846C44.8305 25.7266 45.4192 26.6724 45.9854 27.7208C46.0445 27.8283 46.1036 27.9358 46.1646 28.0465C46.3086 28.3085 46.4516 28.571 46.5938 28.8341C46.6659 28.8341 46.7381 28.8341 46.8125 28.8341C48.0162 26.7867 48.9132 24.5745 49 22.1544C49.0044 22.0387 49.0087 21.9231 49.0132 21.8039C49.0823 18.1253 47.7799 14.7863 45.2813 12.1349C45.1983 12.0434 45.1154 11.952 45.03 11.8578C42.7314 9.39969 39.4223 8.06576 36.113 7.97658C31.9567 7.93954 28.3364 9.77306 25.5938 12.9142ZM38.9375 27.4981C38.659 27.9237 38.4152 28.3661 38.1719 28.8132C38.0641 29.0073 37.9563 29.2014 37.8484 29.3954C37.7373 29.5957 37.6266 29.7962 37.5161 29.9968C37.175 30.6143 36.8253 31.2268 36.4766 31.8399C36.3398 32.0811 36.2031 32.3223 36.0664 32.5636C35.793 33.046 35.5195 33.5284 35.2461 34.0108C35.1784 34.1303 35.1107 34.2497 35.041 34.3727C34.9044 34.6137 34.7677 34.8548 34.6311 35.0958C34.2878 35.7015 33.9445 36.3073 33.6016 36.9132C33.4639 37.1564 33.3262 37.3997 33.1885 37.6429C33.1212 37.7618 33.0538 37.8808 32.9845 38.0033C32.5769 38.7224 32.1665 39.4398 31.7541 40.1561C30.2446 42.434 30.2446 42.434 30.0397 45.0467C30.3736 45.9981 30.9403 46.5794 31.829 47.011C32.322 47.194 32.7949 47.2175 33.3165 47.2189C33.4233 47.2194 33.4233 47.2194 33.5322 47.2199C33.7697 47.2208 34.0073 47.221 34.2449 47.2212C34.4156 47.2217 34.5864 47.2222 34.7571 47.2228C35.2204 47.2243 35.6837 47.225 36.1469 47.2255C36.4367 47.2258 36.7265 47.2263 37.0162 47.2268C37.9238 47.2283 38.8313 47.2294 39.7388 47.2298C40.7847 47.2303 41.8305 47.2323 42.8764 47.2355C43.6859 47.2379 44.4955 47.239 45.305 47.2392C45.788 47.2393 46.2709 47.2399 46.7539 47.2419C47.2086 47.2438 47.6633 47.244 48.118 47.243C48.2842 47.2429 48.4505 47.2434 48.6167 47.2445C49.7362 47.2515 50.8551 47.2253 51.778 46.4974C52.5038 45.7316 52.7832 44.8642 52.7675 43.8216C52.6779 43.0795 52.3183 42.4924 51.9531 41.8595C51.8417 41.6625 51.7303 41.4655 51.619 41.2685C51.3608 40.814 51.1003 40.3609 50.8384 39.9086C50.4242 39.193 50.0156 38.4741 49.6084 37.7542C49.5064 37.574 49.5064 37.574 49.4023 37.3901C49.2642 37.1463 49.1261 36.9024 48.9881 36.6585C48.646 36.0541 48.3034 35.45 47.9609 34.8458C47.8242 34.6046 47.6875 34.3634 47.5508 34.1222C47.4493 33.9431 47.4493 33.9431 47.3457 33.7603C46.7305 32.6749 46.7305 32.6749 46.5251 32.3125C46.3894 32.0732 46.2537 31.8339 46.1179 31.5946C45.798 31.0308 45.4787 30.4667 45.1616 29.9013C45.0121 29.635 44.8623 29.3689 44.7125 29.1029C44.6073 28.9155 44.5025 28.7279 44.3977 28.5403C44.3336 28.4264 44.2694 28.3126 44.2033 28.1952C44.1473 28.0953 44.0913 27.9954 44.0336 27.8924C43.711 27.3685 43.4021 27.0018 42.875 26.691C42.7363 26.6075 42.7363 26.6075 42.5947 26.5223C41.2635 25.8361 39.8355 26.3942 38.9375 27.4981ZM20.5625 33.6212C20.4475 33.7402 20.4475 33.7402 20.3301 33.8617C20.2253 33.9694 20.1205 34.0771 20.0156 34.1848C19.9656 34.2367 19.9155 34.2885 19.864 34.342C19.5703 34.643 19.2691 34.928 18.9526 35.2041C18.3861 35.7034 17.8631 36.2455 17.3359 36.7871C17.1854 36.9411 17.1854 36.9411 17.0317 37.0982C16.7865 37.3491 16.5416 37.6003 16.2969 37.8517C16.7099 38.3544 17.1364 38.8328 17.5957 39.292C17.6773 39.3743 17.6773 39.3743 17.7606 39.4583C17.8922 39.591 18.0242 39.7233 18.1563 39.8556C18.3377 39.6978 18.519 39.5399 18.6999 39.3815C18.8354 39.2632 18.9713 39.1453 19.1079 39.0284C19.8317 38.4 20.4945 37.7105 21.1641 37.0237C21.2865 36.8985 21.409 36.7733 21.5315 36.6481C21.8286 36.3445 22.1253 36.0406 22.4219 35.7364C21.9328 35.0503 21.9328 35.0503 21.3691 34.4283C21.279 34.3396 21.279 34.3396 21.1871 34.2491C21.1254 34.1889 21.0636 34.1286 21 34.0665C20.8539 33.9183 20.708 33.77 20.5625 33.6212ZM12.4141 38.7979C12.336 38.8761 12.258 38.9542 12.1776 39.0347C11.9078 39.3061 11.6414 39.5807 11.375 39.8556C11.1587 40.0764 10.9419 40.2967 10.7252 40.517C10.3947 40.8528 10.0645 41.1889 9.73651 41.5272C8.88598 42.4014 8.88598 42.4014 8.43597 42.7914C7.77417 43.3677 7.17426 44.0126 6.5625 44.6427C5.12981 46.1183 5.12981 46.1183 4.46216 46.6979C4.1121 47.0031 3.77751 47.3235 3.44531 47.6485C3.37623 47.7128 3.30714 47.7771 3.23596 47.8434C2.90492 48.1701 2.75048 48.354 2.6485 48.8214C2.76557 49.3473 3.01077 49.5725 3.39746 49.9238C3.52208 50.0416 3.64641 50.1598 3.77045 50.2782C3.83407 50.3387 3.89769 50.3991 3.96324 50.4614C4.23307 50.7312 4.47597 51.0216 4.72243 51.3133C5.07075 51.718 5.43953 52.1013 5.81055 52.4843C5.88598 52.5644 5.96141 52.6444 6.03912 52.7268C6.14973 52.8408 6.14973 52.8408 6.26257 52.9571C6.32815 53.0254 6.39373 53.0938 6.4613 53.1642C6.72936 53.3705 6.88104 53.432 7.21875 53.4376C7.75535 53.1475 8.1581 52.7323 8.57825 52.2943C8.64322 52.2276 8.70819 52.1609 8.77513 52.0922C8.98148 51.8802 9.18708 51.6674 9.39258 51.4546C9.66308 51.1751 9.93393 50.8961 10.2052 50.6174C10.2706 50.5502 10.336 50.483 10.4034 50.4138C10.7833 50.0258 11.1725 49.6586 11.5831 49.3042C12.1592 48.7808 12.6918 48.2074 13.2344 47.6485C14.6414 46.1994 14.6414 46.1994 15.3113 45.6182C15.8018 45.1807 16.2631 44.7116 16.7275 44.2461C16.78 44.1947 16.8325 44.1434 16.8866 44.0905C17.041 43.9395 17.1934 43.7864 17.3458 43.6333C17.4359 43.5438 17.5259 43.4544 17.6187 43.3622C17.8628 43.0381 17.9147 42.8206 17.9375 42.4161C17.8341 42.1924 17.8341 42.1924 17.6436 42.0125C17.538 41.9002 17.538 41.9002 17.4304 41.7855C17.3451 41.6997 17.2598 41.6139 17.1719 41.5255C17.0663 41.418 16.9608 41.3104 16.8553 41.2028C16.6845 41.0289 16.5135 40.8554 16.3417 40.6825C16.0365 40.3745 15.7423 40.0632 15.4629 39.7303C15.1642 39.3781 14.8603 39.0323 14.5469 38.6936C14.4612 38.5996 14.3754 38.5056 14.2871 38.4087C13.4748 37.7775 13.0223 38.1608 12.4141 38.7979Z" fill="#001B6A"/>
<path d="M42.6084 30.2257C43.0595 30.523 43.3163 30.8965 43.5313 31.3947C43.6031 31.787 43.5928 32.1658 43.5791 32.5636C43.5759 32.7417 43.5759 32.7417 43.5726 32.9234C43.5645 33.2881 43.5531 33.6524 43.5404 34.017C43.5301 34.3227 43.5214 34.6285 43.5127 34.9343C43.4955 35.5326 43.476 36.1308 43.4551 36.729C43.4466 36.971 43.4386 37.2131 43.4309 37.4552C43.4197 37.8001 43.4063 38.1448 43.3924 38.4896C43.3893 38.5933 43.3862 38.697 43.383 38.8039C43.352 39.5005 43.264 40.0876 42.7964 40.6305C42.7 40.7085 42.7 40.7085 42.6016 40.788C42.5373 40.8416 42.473 40.8953 42.4068 40.9506C41.922 41.2848 41.3579 41.2397 40.7969 41.1915C40.2298 40.9955 39.9367 40.6841 39.5938 40.1896C39.3139 39.5521 39.3264 38.8981 39.3058 38.2118C39.299 38.0202 39.299 38.0202 39.292 37.8247C39.2826 37.5541 39.2736 37.2834 39.2651 37.0128C39.2522 36.6053 39.2379 36.1978 39.2233 35.7904C39.1969 35.0303 39.1756 34.2702 39.1563 33.5099C39.1532 33.4045 39.1501 33.2991 39.147 33.1905C39.1394 32.9125 39.1341 32.6346 39.1298 32.3566C39.1274 32.2785 39.125 32.2004 39.1225 32.1199C39.1179 31.5182 39.2702 31.0744 39.6724 30.6306C39.7367 30.5773 39.801 30.5241 39.8672 30.4692C39.9315 30.4146 39.9958 30.3599 40.062 30.3035C40.7121 29.8419 41.9043 29.914 42.6084 30.2257ZM41.0156 31.9513C41.0096 32.9125 41.0257 33.8702 41.0635 34.8306C41.0683 34.9595 41.0732 35.0884 41.0782 35.2213C41.0936 35.6273 41.1093 36.0332 41.125 36.4392C41.1356 36.7169 41.1461 36.9945 41.1566 37.2722C41.1823 37.9478 41.2082 38.6234 41.2344 39.2989C41.3066 39.2989 41.3788 39.2989 41.4531 39.2989C41.485 38.6283 41.5161 37.9577 41.5466 37.287C41.557 37.06 41.5676 36.8329 41.5784 36.606C41.6522 35.0531 41.6862 33.506 41.6719 31.9513C41.4553 31.9513 41.2388 31.9513 41.0156 31.9513Z" fill="#001B6A"/>
<path d="M42.875 42.1934C43.4939 42.8743 43.5758 43.3815 43.5578 44.2943C43.5095 44.9292 43.282 45.2561 42.834 45.6724C42.264 46.1331 41.8025 46.2535 41.0772 46.236C40.4724 46.1609 40.0094 45.8905 39.6074 45.4288C39.1367 44.7383 39.0686 44.1315 39.1563 43.3066C39.3344 42.5959 39.7402 42.2545 40.3355 41.8737C41.1913 41.4305 42.1231 41.6423 42.875 42.1934ZM41.2344 43.5293C41.1622 43.6028 41.09 43.6763 41.0156 43.752C41.0505 43.9867 41.0505 43.9867 41.125 44.1973C41.3416 44.2524 41.3416 44.2524 41.5625 44.3086C41.5986 44.1249 41.6347 43.9412 41.6719 43.752C41.5275 43.6785 41.3831 43.605 41.2344 43.5293Z" fill="#001B6A"/>
</svg>
