<svg width="57" height="57" viewBox="0 0 57 57" fill="none" xmlns="http://www.w3.org/2000/svg">
<path d="M29.2145 3.6512C29.3004 3.65042 29.3862 3.64964 29.4747 3.64883C29.7505 3.64689 30.0263 3.64618 30.3021 3.64598C30.3966 3.6459 30.4912 3.64583 30.5886 3.64575C32.0693 3.64762 33.5014 3.7165 34.957 4.0078C35.0567 4.0269 35.1563 4.04601 35.2589 4.06569C39.7507 4.94348 43.8964 7.04236 47.2305 10.1817C47.4464 10.3811 47.6612 10.5696 47.8881 10.7553C48.1365 10.9639 48.345 11.1581 48.553 11.4042C48.7934 11.6879 49.035 11.9694 49.284 12.2456C52.3147 15.6411 54.2837 20.0098 54.9961 24.4922C55.0158 24.6105 55.0354 24.7288 55.0557 24.8506C55.2364 26.0431 55.2631 27.2193 55.2605 28.4234C55.2605 28.526 55.2604 28.6286 55.2604 28.7343C55.2565 30.4366 55.1433 32.0654 54.7734 33.7324C54.7532 33.8264 54.7329 33.9203 54.7121 34.0171C53.6714 38.707 51.2486 42.8237 47.8711 46.2012C47.7867 46.2907 47.7023 46.3803 47.6154 46.4725C45.7259 48.4463 43.334 49.9688 40.8574 51.0996C40.7388 51.1546 40.7388 51.1546 40.6178 51.2108C38.3527 52.2512 35.9765 52.8794 33.5098 53.2148C33.426 53.2263 33.3423 53.2378 33.256 53.2496C32.3355 53.3586 31.4087 53.3533 30.483 53.354C30.3943 53.3541 30.3055 53.3541 30.2141 53.3542C28.7308 53.3522 27.288 53.2739 25.8281 52.9922C25.7318 52.9737 25.6355 52.9552 25.5363 52.9361C20.8367 51.9946 16.5841 49.7326 13.1367 46.4238C13.0741 46.3643 13.0115 46.3047 12.9471 46.2433C9.71803 43.156 9.71803 43.156 9.64379 41.3793C9.6618 40.6419 9.83646 40.0789 10.3274 39.5206C10.9389 38.9452 11.5571 38.6295 12.3992 38.5821C13.2928 38.6236 13.9394 38.9323 14.5422 39.591C14.7072 39.7884 14.8696 39.9879 15.0293 40.1894C15.1036 40.2821 15.178 40.3749 15.2546 40.4704C15.4014 40.6543 15.5478 40.8385 15.6938 41.0231C16.3372 41.8187 17.017 42.5512 17.8125 43.1953C17.9138 43.2785 18.0151 43.3618 18.1195 43.4475C21.645 46.2573 25.8746 47.7833 30.3787 47.7876C30.5012 47.7878 30.5012 47.7878 30.6261 47.7879C31.9123 47.7867 33.1431 47.7074 34.4004 47.4258C34.5485 47.3958 34.6967 47.3657 34.8448 47.3357C37.8784 46.6828 40.7573 45.1113 43.084 43.084C43.1913 42.9916 43.2987 42.8991 43.4093 42.8039C46.946 39.7015 49.1805 35.1717 49.6523 30.5039C49.6909 29.848 49.6903 29.1916 49.6871 28.5348C49.6869 28.4464 49.6866 28.358 49.6864 28.267C49.6807 26.946 49.6359 25.669 49.3184 24.3808C49.2861 24.245 49.2861 24.245 49.2531 24.1065C48.4048 20.6288 46.6913 17.671 44.3086 15.0293C44.1958 14.9042 44.1958 14.9042 44.0807 14.7766C42.5027 13.121 40.4698 11.8632 38.4082 10.9101C38.2788 10.8494 38.1493 10.7887 38.0159 10.7262C37.0215 10.279 36.0143 9.94491 34.957 9.68553C34.8675 9.66338 34.778 9.64122 34.6857 9.6184C32.0749 9.00263 28.9982 8.93209 26.3848 9.5742C26.2469 9.60738 26.2469 9.60738 26.1063 9.64123C22.5317 10.5266 19.4557 12.2562 16.8105 14.8066C16.7173 14.8929 16.624 14.9791 16.5279 15.068C14.9278 16.5894 13.7641 18.5111 12.8027 20.4844C12.8795 20.5007 12.9563 20.5171 13.0354 20.5339C14.0009 20.7644 14.8226 21.0851 15.3633 21.9595C15.7628 22.7877 15.7889 23.5852 15.4894 24.4513C15.2686 24.9128 14.9388 25.243 14.584 25.6055C14.4328 25.7767 14.2821 25.9484 14.1317 26.1203C13.6347 26.6727 13.11 27.1941 12.5821 27.7166C12.2491 28.0473 11.9241 28.3786 11.6199 28.7366C11.2847 29.1298 10.9307 29.5018 10.5692 29.8707C10.5141 29.9282 10.459 29.9857 10.4022 30.0449C9.80225 30.6504 9.16874 30.9588 8.32177 30.977C7.32319 30.9591 6.70249 30.5282 6.01171 29.8359C5.7423 29.5062 5.50403 29.1597 5.26721 28.8061C5.16781 28.6609 5.16781 28.6609 5.0664 28.5127C4.92889 28.3116 4.79189 28.11 4.65539 27.9082C4.46162 27.6219 4.26618 27.3369 4.07 27.0523C3.82729 26.7002 3.58618 26.347 3.34636 25.9929C3.12722 25.6698 2.90392 25.3504 2.67578 25.0336C2.00855 24.0956 1.5372 23.2723 1.72558 22.0847C1.95069 21.2947 2.35768 20.6732 3.07544 20.2617C3.81155 19.8898 4.49848 19.8201 5.29504 20.0669C5.83791 20.2624 6.26888 20.5189 6.67968 20.9297C6.702 20.8682 6.72431 20.8067 6.74731 20.7433C7.24302 19.3866 7.78219 18.0857 8.46093 16.8105C8.51805 16.7 8.57517 16.5895 8.63401 16.4757C9.50543 14.8223 10.6388 13.3121 11.9043 11.9408C12.1107 11.7156 12.3074 11.4852 12.5035 11.2511C13.9568 9.59589 15.8192 8.25198 17.7012 7.12498C17.7729 7.08129 17.8446 7.03759 17.9185 6.99256C21.2339 4.98969 25.3174 3.67516 29.2145 3.6512ZM26.1621 5.90037C26.0686 5.91948 25.9752 5.93858 25.8789 5.95827C20.3171 7.10442 15.2792 10.3428 11.9121 14.918C11.8066 15.0596 11.8066 15.0596 11.699 15.2041C9.85489 17.7556 8.66052 20.6134 7.8956 23.655C7.79296 23.9355 7.79296 23.9355 7.45898 24.1582C7.08325 24.2069 7.08325 24.2069 6.67968 24.1582C6.15756 23.708 5.79771 23.1571 5.41746 22.5894C5.0805 22.0918 5.0805 22.0918 4.56445 21.8203C4.25915 21.8426 4.06582 21.8956 3.80603 22.0569C3.59782 22.3856 3.59398 22.6751 3.67382 23.0449C3.88896 23.4591 4.15877 23.8295 4.43225 24.2069C4.50833 24.315 4.58442 24.423 4.66281 24.5344C4.81678 24.753 4.97141 24.9711 5.12674 25.1888C5.36973 25.5307 5.60695 25.8761 5.84285 26.2229C6.08258 26.5752 6.32535 26.9254 6.56836 27.2754C6.61935 27.349 6.67035 27.4225 6.7229 27.4984C6.87476 27.7168 7.02754 27.9345 7.18066 28.1521C7.22627 28.2177 7.27188 28.2834 7.31887 28.351C7.53528 28.6562 7.69995 28.8462 8.01562 29.0566C8.40508 29.066 8.67807 29.0368 8.99116 28.7916C9.19994 28.581 9.39469 28.3629 9.58813 28.1382C9.73431 27.975 9.88072 27.8121 10.0274 27.6494C10.1003 27.5676 10.1732 27.4859 10.2484 27.4017C10.5684 27.0504 10.9049 26.7173 11.2441 26.3848C11.686 25.9486 12.1104 25.5052 12.5105 25.0301C12.7189 24.7951 12.9436 24.583 13.1715 24.3669C13.5152 24.0253 13.7492 23.7672 13.8047 23.2676C13.6598 22.869 13.5281 22.7428 13.1576 22.537C12.7962 22.4538 12.7962 22.4538 12.4757 22.6483C12.1372 22.9316 11.8281 23.2275 11.5242 23.5472C11.2831 23.7839 11.1526 23.8221 10.8127 23.859C10.4648 23.8242 10.4648 23.8242 10.2004 23.6503C9.95189 23.2774 9.99146 23.0446 10.0195 22.5996C10.0916 22.2966 10.1699 22.0161 10.27 21.7229C10.2988 21.6382 10.3275 21.5536 10.3571 21.4664C11.0281 19.5796 11.9346 17.747 13.1367 16.1426C13.1841 16.0783 13.2316 16.0141 13.2804 15.9478C14.2736 14.6111 15.3849 13.2781 16.6992 12.2461C16.7598 12.1982 16.8205 12.1504 16.8829 12.101C21.6399 8.37017 27.3741 6.75278 33.384 7.43402C38.692 8.1739 43.8579 11.0558 47.1405 15.3215C47.3125 15.5562 47.4819 15.7927 47.6484 16.0312C47.7287 16.1455 47.8089 16.2597 47.8915 16.3774C51.1615 21.2502 52.2914 26.9885 51.2366 32.7365C51.0416 33.7226 50.7605 34.6759 50.4316 35.625C50.4067 35.6976 50.3818 35.7701 50.3561 35.8449C48.5294 41.0427 44.5173 45.2989 39.5911 47.6832C36.7066 49.0347 33.642 49.7025 30.4622 49.6941C30.3317 49.694 30.3317 49.694 30.1986 49.6939C27.8391 49.6864 25.6068 49.3263 23.3789 48.539C23.2423 48.4909 23.2423 48.4909 23.103 48.4417C19.2936 47.0673 15.9565 44.6492 13.5124 41.4175C13.1003 40.8734 13.1003 40.8734 12.5314 40.5304C12.1407 40.5209 11.9814 40.5979 11.6894 40.8574C11.5417 41.1952 11.5068 41.2895 11.5781 41.6367C11.8225 42.0855 12.1421 42.4707 12.4687 42.8613C12.5208 42.9245 12.5728 42.9876 12.6264 43.0527C13.6613 44.3052 14.753 45.4158 16.0312 46.4238C16.1438 46.5147 16.2563 46.6055 16.3722 46.6991C21.0616 50.4441 27.1699 51.9198 33.0853 51.3823C33.6413 51.3167 34.1873 51.2173 34.7344 51.0996C34.8392 51.0775 34.944 51.0554 35.052 51.0326C39.5581 50.0554 43.3107 47.8976 46.6465 44.7539C46.728 44.6771 46.8095 44.6003 46.8935 44.5212C50.6344 40.8917 53.2586 35.2361 53.3501 30.0178C53.3514 29.8918 53.3514 29.8918 53.3527 29.7633C53.3543 29.6282 53.3543 29.6282 53.356 29.4904C53.4206 22.8002 51.2396 17.1198 46.6465 12.2461C46.5313 12.1238 46.5313 12.1238 46.4138 11.9991C43.469 8.96395 39.4464 6.98189 35.3675 6.03258C35.2747 6.01087 35.1819 5.98917 35.0863 5.9668C33.5362 5.62678 32.0015 5.52394 30.4204 5.5316C30.3328 5.5318 30.2451 5.53201 30.1549 5.53221C28.7974 5.53749 27.4919 5.61023 26.1621 5.90037Z" fill="#001B6A"/>
<path d="M40.3028 16.9988C43.2257 19.4495 45.3151 22.8427 45.7377 26.6874C46.0283 30.7461 45.1433 34.6753 42.4717 37.8376C42.2711 38.0682 42.0666 38.2948 41.8594 38.5195C41.7677 38.6191 41.676 38.7186 41.5815 38.8213C39.1282 41.3726 35.5829 43.0224 32.032 43.1065C27.6376 43.1554 23.9046 41.9001 20.707 38.7839C17.8417 35.9102 16.5589 32.1384 16.5602 28.1419C16.5962 24.1507 18.3315 20.5819 21.1365 17.7872C26.2655 12.8404 34.7783 12.5324 40.3028 16.9988ZM28.6039 17.5645C27.6995 18.9415 26.7187 20.9276 26.7187 22.5995C29.6578 22.5995 32.5969 22.5995 35.625 22.5995C35.5399 21.9185 35.4424 21.3943 35.2284 20.7626C35.1992 20.6764 35.1701 20.5901 35.1401 20.5013C34.6859 19.2037 34.1053 17.9487 33.1758 16.9218C33.1116 16.8488 33.0475 16.7757 32.9814 16.7004C32.4519 16.1309 31.9682 15.8475 31.1788 15.7598C30.0327 15.8171 29.2495 16.6981 28.6039 17.5645ZM22.0477 19.578C21.1492 20.4831 20.5422 21.473 19.9277 22.5995C21.5075 22.5995 23.0872 22.5995 24.7148 22.5995C24.887 21.9899 24.887 21.9899 25.0627 21.368C25.4985 19.8608 26.018 18.4564 26.7944 17.0901C26.9587 16.8303 26.9587 16.8303 26.9414 16.5878C25.2198 16.5878 23.2182 18.4447 22.0477 19.578ZM35.4023 16.5878C35.5309 16.9312 35.6791 17.2594 35.8424 17.5872C36.652 19.2183 37.1497 20.8424 37.6289 22.5995C39.2086 22.5995 40.7884 22.5995 42.416 22.5995C41.9352 21.718 41.4995 21.0059 40.8574 20.2616C40.7737 20.1618 40.6901 20.0619 40.6039 19.959C39.3396 18.5 37.5841 17.2078 35.7363 16.5878C35.6261 16.5878 35.5159 16.5878 35.4023 16.5878ZM19.1484 24.4921C18.213 26.6748 18.1524 29.4481 18.8144 31.7284C18.9247 31.9856 19.0349 32.2428 19.1484 32.5077C20.8751 32.5077 22.6018 32.5077 24.3808 32.5077C24.3441 31.9199 24.3074 31.3321 24.2695 30.7265C24.2606 30.3637 24.2537 30.0036 24.2547 29.641C24.2546 29.5489 24.2545 29.4568 24.2544 29.362C24.2543 29.1704 24.2545 28.9789 24.255 28.7874C24.2556 28.5002 24.255 28.2131 24.2543 27.9259C24.2544 27.7369 24.2545 27.5478 24.2547 27.3588C24.2545 27.2762 24.2543 27.1936 24.254 27.1084C24.2577 26.2306 24.3257 25.3737 24.3808 24.4921C22.6541 24.4921 20.9274 24.4921 19.1484 24.4921ZM26.2734 24.4921C26.0855 25.9633 26.0855 25.9633 26.0212 27.4284C26.021 27.5151 26.0208 27.6019 26.0206 27.6912C26.0204 27.8711 26.0208 28.051 26.0217 28.231C26.0229 28.4998 26.0217 28.7686 26.0203 29.0374C26.0205 29.2154 26.0208 29.3934 26.0212 29.5715C26.0207 29.6483 26.0203 29.7251 26.0198 29.8043C26.028 30.7223 26.1642 31.5797 26.2734 32.5077C29.5064 32.5077 32.7394 32.5077 36.0703 32.5077C36.2582 31.0366 36.2582 31.0366 36.3225 29.5715C36.3227 29.4847 36.323 29.398 36.3232 29.3086C36.3233 29.1287 36.3229 28.9488 36.322 28.7689C36.3208 28.5 36.322 28.2313 36.3234 27.9624C36.3232 27.7844 36.323 27.6064 36.3225 27.4284C36.323 27.3516 36.3234 27.2747 36.3239 27.1956C36.3157 26.2776 36.1795 25.4202 36.0703 24.4921C32.8373 24.4921 29.6044 24.4921 26.2734 24.4921ZM37.9629 24.4921C37.9996 25.0799 38.0364 25.6677 38.0742 26.2734C38.0832 26.6361 38.09 26.9963 38.089 27.3588C38.0891 27.4509 38.0892 27.543 38.0893 27.6379C38.0894 27.8294 38.0892 28.0209 38.0887 28.2125C38.0881 28.4996 38.0887 28.7868 38.0894 29.074C38.0894 29.263 38.0892 29.452 38.089 29.641C38.0892 29.7237 38.0894 29.8063 38.0897 29.8914C38.086 30.7692 38.018 31.6261 37.9629 32.5077C39.6896 32.5077 41.4163 32.5077 43.1953 32.5077C44.1307 30.3251 44.1913 27.5518 43.5293 25.2714C43.4191 25.0142 43.3089 24.7571 43.1953 24.4921C41.4686 24.4921 39.7419 24.4921 37.9629 24.4921ZM19.9277 34.4003C20.4086 35.2818 20.8443 35.9939 21.4863 36.7382C21.57 36.8381 21.6536 36.938 21.7398 37.0409C23.1521 38.6706 24.9341 39.7587 26.9414 40.5234C26.9414 40.1405 26.8177 39.9482 26.6303 39.6228C25.6937 37.9928 25.2068 36.2041 24.7148 34.4003C23.1351 34.4003 21.5553 34.4003 19.9277 34.4003ZM26.7187 34.4003C26.8039 35.0813 26.9013 35.6055 27.1153 36.2372C27.1445 36.3235 27.1736 36.4097 27.2036 36.4986C27.6578 37.7961 28.2384 39.0511 29.168 40.0781C29.2321 40.1511 29.2963 40.2241 29.3623 40.2994C29.8918 40.869 30.3755 41.1523 31.1649 41.24C32.0487 41.1959 32.6664 40.6761 33.2545 40.0546C34.4462 38.6051 35.625 36.3046 35.625 34.4003C32.6859 34.4003 29.7469 34.4003 26.7187 34.4003ZM37.6289 34.4003C37.5141 34.8067 37.3993 35.2132 37.281 35.6319C36.8452 37.139 36.3257 38.5435 35.5493 39.9098C35.3851 40.1696 35.3851 40.1696 35.4023 40.412C36.0049 40.3516 36.451 40.1388 36.9748 39.8554C37.0582 39.8106 37.1415 39.7658 37.2273 39.7197C37.9742 39.3088 38.6424 38.8427 39.2988 38.2968C39.4014 38.2124 39.504 38.128 39.6098 38.0411C40.1883 37.5417 40.6948 37.0072 41.1705 36.4112C41.2426 36.3216 41.2426 36.3216 41.3162 36.2302C41.767 35.6454 42.0504 35.0707 42.416 34.4003C40.8363 34.4003 39.2565 34.4003 37.6289 34.4003Z" fill="#001B6A"/>
</svg>
