<svg width="86" height="86" viewBox="0 0 86 86" fill="none" xmlns="http://www.w3.org/2000/svg">
<path d="M26.3311 29.6723C25.3145 31.0444 24.4237 32.5041 23.6692 34.0338C22.9486 35.6154 22.4618 37.2919 22.2239 39.0116C21.7959 42.4083 22.0829 45.8562 23.0668 49.137C24.0507 52.4179 25.71 55.4601 27.9396 58.0712C30.2175 60.7321 33.2558 62.6433 36.6521 63.5516C37.0758 63.6686 37.5067 63.758 37.9422 63.8191C38.1627 63.8596 38.375 63.9002 38.5955 63.9245L39.2487 63.9812L39.9101 64.0299H40.6531L41.7963 66.0809L43.0211 68.2212C43.6253 69.2427 44.2132 70.248 44.9399 71.2776C44.9991 71.3162 45.062 71.3488 45.1278 71.3748L45.3482 71.4316C45.3131 71.4461 45.2802 71.4652 45.2502 71.4883C44.5785 72.0375 44.1505 72.8263 44.0581 73.6854C44.0377 73.8984 44.0377 74.1128 44.0581 74.3258C44.0724 74.5415 44.1163 74.7543 44.1887 74.9582C44.2622 75.1527 44.3357 75.3473 44.4174 75.5419C44.5265 75.7322 44.6465 75.9163 44.7767 76.0931C44.9426 76.2848 45.1257 76.4612 45.3237 76.6201C45.538 76.7548 45.7618 76.874 45.9933 76.9768L46.1321 77.0173C46.0966 77.0597 46.0714 77.1096 46.0586 77.1633C45.8906 77.5964 45.8906 78.0759 46.0586 78.509C46.2126 79.0572 46.4435 79.5812 46.7445 80.0656C46.8499 80.2276 46.9702 80.3795 47.1038 80.5196C47.2227 80.6755 47.3598 80.817 47.512 80.9411L48.0019 81.2978C48.1737 81.3967 48.3509 81.486 48.5327 81.5654C48.8394 81.6954 49.1598 81.7906 49.488 81.8491C49.7938 81.8949 50.1018 81.9247 50.4107 81.9383C50.7047 81.9383 50.9986 81.9383 51.2844 81.9383L51.8724 81.8572C51.8724 81.8572 51.8724 81.914 51.8724 81.9464C51.8523 82.0097 51.8523 82.0777 51.8724 82.141C52.0799 82.9322 52.5484 83.6315 53.2033 84.1272C53.784 84.5669 54.4476 84.8866 55.1548 85.0676C56.6141 85.4203 58.1374 85.4203 59.5968 85.0676C60.2058 84.9273 60.8014 84.7347 61.3768 84.492C61.6887 84.3365 61.9914 84.1633 62.2832 83.9732C62.931 83.5566 63.5095 83.0424 63.9979 82.4491C64.4736 81.8502 64.826 81.1643 65.0349 80.4304C65.1334 80.1438 65.175 79.841 65.1574 79.5386C65.2289 78.7609 65.0669 77.9795 64.6919 77.293C64.9166 77.1207 65.132 76.9366 65.337 76.7417C65.9064 76.2297 66.3624 75.6058 66.6761 74.9095C66.8215 74.6188 66.9049 74.3014 66.9211 73.9772C66.9905 73.3478 66.8591 72.7126 66.5455 72.1612C66.4195 71.9057 66.228 71.6876 65.9902 71.5289C66.1209 71.2857 66.1699 71.1316 66.1372 71.1722C66.3791 70.5682 66.3791 69.8953 66.1372 69.2913C66.0346 68.9842 65.8227 68.7248 65.5412 68.5617C65.4024 68.5617 65.3697 68.6752 65.4105 69.0238C65.5069 69.5847 65.3936 70.1613 65.092 70.6452C64.409 71.4685 63.5386 72.1187 62.5526 72.5423C61.6299 72.9963 60.9195 73.2719 60.9195 73.2719C60.3561 73.5394 59.7846 73.7989 59.1967 74.0421C57.5636 74.6987 55.9305 75.25 54.2974 75.8094C53.881 75.9472 53.4809 76.085 53.0155 76.2472L52.3949 76.4823L51.7907 76.7012C50.9899 76.9807 50.1716 77.2082 49.3411 77.3822C49.0879 77.4398 48.8316 77.4831 48.5735 77.5119H48.2142H48.1244C48.0736 77.4899 48.0267 77.4598 47.9856 77.4227C47.9551 77.3648 47.9278 77.3053 47.9039 77.2443V77.1957C48.4597 77.1273 49.007 77.0024 49.537 76.8228C50.1804 76.6145 50.8127 76.3736 51.4314 76.1012C52.0438 75.8337 52.5664 75.6067 53.187 75.3635C55.5794 74.3745 57.9392 73.3286 60.2663 72.1207L61.7769 71.31C61.7769 71.31 63.067 70.4993 64.2265 69.5913C64.7871 69.1704 65.309 68.7011 65.7861 68.1888C66.0039 67.9727 66.1857 67.7237 66.325 67.451C66.4227 67.2888 66.5047 67.1178 66.57 66.9403C66.637 66.7443 66.6727 66.5392 66.6761 66.3323C66.6746 66.1588 66.6377 65.9874 66.5675 65.8286C66.4973 65.6697 66.3954 65.5266 66.2678 65.4081C66.149 65.2778 65.9997 65.1786 65.8331 65.1192C65.6665 65.0598 65.4877 65.0421 65.3125 65.0676C65.1737 65.1162 65.239 65.2459 65.4677 65.5134C65.6053 65.6532 65.6964 65.8314 65.729 66.0242C65.7454 66.1408 65.7255 66.2597 65.6718 66.3647C65.6024 66.5 65.5114 66.6232 65.4023 66.7295C64.5601 67.4552 63.6203 68.061 62.6098 68.5293C61.6789 69.0076 60.9767 69.34 60.9767 69.34C60.4215 69.648 59.8499 69.9399 59.2783 70.2317C57.0328 71.3667 54.7057 72.4044 52.3541 73.3692C51.7825 73.5962 51.1293 73.8718 50.5659 74.1231C50.0025 74.3745 49.4309 74.5933 48.8756 74.7717C48.3709 74.9484 47.8426 75.0495 47.3079 75.0716H46.9894C46.8996 75.0716 46.8261 75.0149 46.7445 75.0068L46.5649 74.9095C46.5649 74.8528 46.4668 74.8284 46.426 74.7717C46.3928 74.7074 46.3517 74.6475 46.3036 74.5933C46.2822 74.512 46.252 74.4332 46.2137 74.3582C46.1628 74.2125 46.1488 74.0566 46.1729 73.9042C46.1842 73.7466 46.2286 73.5931 46.3031 73.4535C46.3776 73.3139 46.4807 73.1913 46.6057 73.0935C46.6096 73.0504 46.6096 73.007 46.6057 72.9638C46.6691 72.5645 46.6355 72.1559 46.5077 71.7721L47.414 71.4883C48.4919 71.1722 49.7983 70.8236 50.8435 70.5641L52.6644 70.0939L55.5141 69.1373C56.3306 68.8698 57.0818 68.5779 57.8575 68.2699C58.6332 67.9618 59.36 67.7591 60.1357 67.4592C60.9114 67.1592 61.7198 66.8916 62.52 66.5268C62.9368 66.3374 63.3405 66.1208 63.7284 65.8783C63.9486 65.7427 64.1563 65.5881 64.349 65.4162C64.4998 65.2956 64.6319 65.1535 64.7409 64.9946C64.8629 64.8406 64.9644 64.6717 65.043 64.492C65.1569 64.1055 65.1569 63.6948 65.043 63.3083C64.9802 63.0672 64.8983 62.8314 64.7981 62.603C64.6266 62.1734 64.4388 61.7923 64.2429 61.4113C63.8591 60.6573 63.4263 59.9358 63.0589 59.2224C62.8629 58.8738 62.6751 58.5171 62.4955 58.1766L62.2668 57.6983V57.6253L62.3648 57.3821C62.4257 57.2316 62.4966 57.0854 62.5771 56.9443C62.7587 56.6426 62.9634 56.3553 63.1895 56.085C65.3215 53.3674 66.7907 50.1965 67.482 46.8209C68.1733 43.4453 68.068 39.9566 67.1742 36.6281C66.3133 33.2938 64.6773 30.2062 62.3975 27.6131C60.1012 25.0286 57.1945 23.0507 53.9382 21.8571C53.5381 21.695 53.1216 21.5814 52.7134 21.4598L51.4886 21.095L50.2393 20.8275C49.8228 20.7383 49.4227 20.641 48.9818 20.5924L47.7162 20.4221C47.2916 20.3573 46.8588 20.3573 46.4342 20.3249C46.0096 20.2924 45.6177 20.2519 45.1522 20.2681H43.8703C40.4208 20.389 37.0453 21.2937 34.0033 22.9128C30.9613 24.5319 28.3337 26.8221 26.3229 29.6074L26.3311 29.6723ZM53.8973 81.5573C53.8649 81.5232 53.826 81.4957 53.783 81.4762L53.7014 81.4276C53.7639 81.4333 53.8267 81.4333 53.8892 81.4276L53.9545 81.7599C53.9282 81.7059 53.9089 81.6487 53.8973 81.5897V81.5573ZM64.1694 78.1523C64.1639 78.3019 64.1475 78.4509 64.1204 78.5982L63.7856 78.4604L63.5733 78.3712L63.4018 78.3145L63.1977 78.2577L63.5815 78.0226C63.7774 77.8929 64.006 77.747 64.2347 77.5767C64.2102 77.7632 64.2021 77.9496 64.1694 78.1847V78.1523ZM49.7739 79.4576C50.681 79.2562 51.5752 79.0018 52.4521 78.6955L53.0972 78.4685L53.7177 78.2253L54.9344 77.8118C56.6164 77.2524 58.323 76.6768 59.9969 75.9877C60.5276 75.7689 61.0583 75.5337 61.5809 75.2905C61.5809 75.2905 61.9239 75.1041 62.3975 74.8041C63.0123 74.4446 63.6016 74.0437 64.1612 73.6043C64.7594 73.1474 65.2874 72.6067 65.729 71.9991L65.8188 71.8694C65.8147 71.8963 65.8147 71.9236 65.8188 71.9504C65.9395 72.516 65.9255 73.1018 65.7779 73.661C65.3319 74.5894 64.5801 75.3387 63.6468 75.7851C63.214 76.0283 62.8303 76.2066 62.5281 76.3363L62.0627 76.539C61.5156 76.8147 60.944 77.0579 60.3643 77.2849C59.4579 77.6335 58.5189 77.9334 57.5718 78.201C56.6246 78.4685 55.5876 78.7441 54.6404 79.0117C53.7065 79.2946 52.758 79.5274 51.7988 79.7089C51.0059 79.902 50.1744 79.8712 49.3982 79.6197C49.3165 79.594 49.2393 79.5557 49.1696 79.5062C49.3492 79.4576 49.5697 79.4576 49.7739 79.4576ZM54.7384 67.2402L53.7259 67.5888L53.2441 67.751L52.6236 67.9537C52.6236 67.8807 52.6236 67.8077 52.6236 67.7429C52.6328 67.7211 52.6375 67.6976 52.6375 67.674C52.6375 67.6503 52.6328 67.6269 52.6236 67.6051C52.1255 66.5674 51.6518 65.5135 51.1619 64.4433C50.266 62.3875 49.2519 60.3844 48.1244 58.4441C46.9761 56.3809 45.4011 54.5823 43.5029 53.1665L42.6863 52.6719L41.9432 52.2585L40.4817 51.4478C39.589 50.9795 38.7464 50.4227 37.9667 49.7858C37.654 49.5376 37.3955 49.2287 37.2073 48.8778C37.1531 48.7666 37.1252 48.6446 37.1257 48.5211C37.1277 48.3918 37.1584 48.2645 37.2155 48.1482C37.6929 47.4116 38.3576 46.8132 39.1425 46.4133C39.4033 46.2723 39.6766 46.1556 39.9591 46.0647C39.8922 46.3554 39.8485 46.6508 39.8284 46.9483C39.8082 47.2642 39.8082 47.581 39.8284 47.8969V48.132V48.4157C39.8559 48.6182 39.8968 48.8186 39.9509 49.0157C40.0926 49.4916 40.3775 49.9131 40.7674 50.2236C41.1736 50.5453 41.6768 50.7224 42.1964 50.7262C43.0459 50.7141 43.8572 50.3739 44.4582 49.7777C44.7702 49.4829 45.0165 49.1264 45.181 48.7312C45.3456 48.336 45.4248 47.9109 45.4135 47.4834C45.3531 46.6937 45.0349 45.9452 44.5072 45.3513C44.2856 45.0828 44.0336 44.8407 43.756 44.6297C44.0703 44.5492 44.3956 44.5191 44.7195 44.5406C45.1611 44.5701 45.5973 44.6545 46.0178 44.7919C45.9577 45.3609 45.9908 45.9358 46.1157 46.4944C46.1564 46.6854 46.2137 46.8726 46.2872 47.0537C46.3934 47.3089 46.5334 47.5488 46.7037 47.7672C46.8705 47.9775 47.0823 48.1484 47.3237 48.2676C47.5652 48.3868 47.8303 48.4512 48.0999 48.4563C48.3612 48.4563 48.6143 48.3265 48.9164 48.2698C49.0526 48.2333 49.1821 48.1759 49.3002 48.0996L49.6105 47.9131C50.0637 47.5905 50.3715 47.1045 50.4679 46.5592C50.5115 46.0257 50.3766 45.4928 50.0841 45.0432C49.8715 44.7382 49.6157 44.4652 49.3247 44.2325C49.0676 44.0155 48.7947 43.8177 48.5082 43.6407C48.5933 43.4609 48.7002 43.2921 48.8266 43.1381C49.0202 42.8758 49.298 42.6871 49.6143 42.6031C49.9306 42.519 50.2663 42.5447 50.5659 42.6759C50.9585 42.8666 51.3021 43.1439 51.5702 43.4867L51.4477 43.7542C51.3237 44.1051 51.2442 44.47 51.2109 44.8405C51.2026 44.9512 51.2026 45.0623 51.2109 45.1729C51.2167 45.2984 51.2331 45.4231 51.26 45.5458C51.2865 45.6983 51.3361 45.8458 51.4069 45.9836C51.4864 46.1498 51.591 46.3029 51.7172 46.4376C51.8583 46.5761 52.021 46.6911 52.1989 46.7781C52.361 46.8455 52.5312 46.8918 52.7052 46.9159C52.8466 46.924 52.9884 46.924 53.1298 46.9159L53.4809 46.8592H53.5625C53.6411 46.8392 53.7177 46.8121 53.7912 46.7781C53.9459 46.7131 54.085 46.6164 54.1995 46.4944C54.3769 46.3138 54.5036 46.0902 54.5669 45.8458C54.618 45.5779 54.618 45.303 54.5669 45.0351C54.4795 44.4513 54.2858 43.8881 53.9953 43.3731C54.0867 43.2413 54.1848 43.1141 54.2893 42.9921C54.5334 42.6977 54.8439 42.4644 55.1956 42.3111C55.3066 42.2657 55.4275 42.249 55.5468 42.2625C55.6605 42.2746 55.7696 42.3135 55.8652 42.376C56.1716 42.6034 56.4251 42.8938 56.6083 43.2272C56.7919 43.5522 56.8928 43.9167 56.9022 44.2892C56.8483 45.2048 56.5679 46.0931 56.0857 46.8754C55.5386 47.7699 54.9416 48.6333 54.2974 49.4615C53.5872 50.385 52.9484 51.3607 52.3867 52.3801C52.3093 52.5326 52.2412 52.6896 52.1826 52.8503C52.1239 53.028 52.0775 53.2095 52.0438 53.3934C51.9677 53.7287 51.9293 54.0713 51.9295 54.4149C51.9283 55.032 51.9829 55.6479 52.0928 56.2552C52.0928 56.5552 52.2071 56.8308 52.2643 57.1146C52.3214 57.3983 52.3949 57.6821 52.4684 57.9253L52.6562 58.5901V58.7117L52.8113 59.2143C52.9093 59.5467 53.0155 59.871 53.1216 60.1952C53.1216 60.1952 53.6851 61.5897 54.2648 62.9192C54.8445 64.2488 55.3998 65.5297 55.3834 65.4081L56.004 66.7214L54.7384 67.2402ZM41.9106 47.7834C41.9003 47.2349 41.9746 46.6881 42.131 46.162C42.2936 46.2448 42.4446 46.3484 42.5802 46.47C42.8519 46.727 43.0685 47.0358 43.217 47.378C43.2607 47.4946 43.2768 47.6195 43.2641 47.7432C43.2513 47.8669 43.2101 47.9861 43.1436 48.0914C42.9833 48.346 42.7418 48.5401 42.4577 48.6427C42.3529 48.6664 42.244 48.6664 42.1392 48.6427C42.0739 48.6427 42.0739 48.6427 42.0494 48.6427C41.9947 48.5653 41.9584 48.4766 41.9432 48.3833C41.9382 48.3023 41.9382 48.2211 41.9432 48.1401L41.9106 47.7834ZM48.1571 46.162L48.2224 46.243L48.2632 46.316H48.2142C48.2387 46.3403 48.1979 46.2187 48.1571 46.0809V46.162ZM34.1943 25.3674C36.8271 23.7705 39.7937 22.7942 42.8659 22.5138C45.9491 22.2402 49.0563 22.5707 52.0112 23.4866C54.9618 24.3377 57.6546 25.9001 59.8499 28.0346C62.0415 30.1786 63.697 32.8024 64.6838 35.6958C65.6787 38.5973 66.0161 41.6811 65.6718 44.727C65.326 47.7674 64.2933 50.6911 62.6506 53.2799C62.4383 53.5718 62.2505 53.9285 62.03 54.1798C61.8096 54.4311 61.5238 54.7879 61.2135 55.1446C60.9233 55.5228 60.6743 55.9304 60.4705 56.3606C60.3643 56.5876 60.2908 56.7822 60.201 57.0254C60.0462 57.3899 60.0204 57.7956 60.1275 58.1766L60.2255 58.4603L60.3071 58.6468L60.446 58.9549L60.7399 59.5224L61.3278 60.6006C61.7197 61.2978 62.1443 61.995 62.4383 62.676C62.603 62.9976 62.7503 63.3277 62.8792 63.665L62.9446 63.8758C62.8982 63.925 62.8461 63.9685 62.7894 64.0056C62.6597 64.104 62.5233 64.1933 62.3812 64.2731C62.0685 64.4514 61.7469 64.6137 61.4176 64.7595C60.7236 65.0595 59.9887 65.327 59.2457 65.5702C58.5026 65.8134 57.7269 66.0566 56.9104 66.3809L56.7471 66.4863C56.7471 66.1377 56.6491 65.6756 56.5429 65.1486C56.3306 64.0218 55.9795 62.7165 55.7264 61.6464L55.2528 59.8385L54.9425 58.8819L54.7955 58.4036L54.7221 58.1604L54.6812 58.0388L54.5016 57.3659C54.2167 56.3879 54.0656 55.3762 54.0525 54.3582V54.0258C54.0525 53.9366 54.0933 53.8474 54.1097 53.7582C54.1569 53.5563 54.2339 53.3623 54.3383 53.1827C54.5862 52.7331 54.8588 52.2974 55.1548 51.8774C55.7835 50.9857 56.4694 50.0777 57.1145 49.1048C57.8163 48.1094 58.3666 47.0167 58.7476 45.862C58.9569 45.1939 59.0291 44.491 58.9599 43.7947C58.8607 43.065 58.5801 42.3712 58.1433 41.7761C57.7233 41.1212 57.1144 40.6071 56.396 40.3006C55.9645 40.1481 55.5031 40.0981 55.0486 40.1546C54.6407 40.2193 54.2479 40.3566 53.8892 40.56C53.4098 40.8336 52.9839 41.1906 52.6317 41.6139L52.5011 41.4923C51.9402 40.9885 51.2512 40.6464 50.5087 40.5033C49.7101 40.3629 48.8872 40.5034 48.1816 40.9005C47.5246 41.287 46.9899 41.8488 46.6383 42.5219C46.5893 42.6111 46.5567 42.6922 46.5158 42.7813C46.2545 42.7003 45.9851 42.6354 45.6993 42.5787C45.0374 42.4535 44.3606 42.4262 43.6906 42.4976C42.953 42.5954 42.2514 42.874 41.6493 43.3083C41.4491 43.4585 41.2632 43.6268 41.0941 43.8109C40.8981 43.8109 40.7103 43.8109 40.5225 43.8109C39.8503 43.8909 39.1946 44.0742 38.5791 44.3541C37.995 44.6242 37.4465 44.9645 36.946 45.3675C36.4005 45.7742 35.926 46.2672 35.5416 46.8267C35.3152 47.1623 35.152 47.5359 35.0598 47.9293C34.9536 48.3607 34.9536 48.8112 35.0598 49.2426C35.2726 49.9724 35.6854 50.6291 36.252 51.1397C37.1652 51.9408 38.1744 52.627 39.2569 53.1827C40.253 53.742 41.2982 54.2366 42.131 54.8041C43.832 56.0336 45.2398 57.6195 46.2546 59.4494C47.3663 61.35 48.3615 63.3155 49.2349 65.3351C49.7167 66.389 50.1984 67.4591 50.7128 68.5293C50.7555 68.5745 50.8051 68.6128 50.8598 68.6428L49.5044 69.2184C48.6365 69.5699 47.7959 69.9845 46.9894 70.4587L46.5649 70.7101C46.6225 70.546 46.6501 70.373 46.6465 70.1993C46.6465 70.1182 46.6465 70.1182 46.6465 70.0777C46.0259 69.2021 45.4217 68.1969 44.8419 67.2078C44.0254 65.8215 43.2742 64.4595 42.474 63.0084C42.278 62.6598 42.0902 62.295 41.8779 61.9626H40.6695C40.2879 61.9738 39.906 61.9603 39.5263 61.922C38.7796 61.8773 38.0388 61.7633 37.3135 61.5816C34.3717 60.8354 31.7269 59.2214 29.7278 56.9524C27.6734 54.6587 26.1367 51.9554 25.2206 49.0237C24.2601 46.1036 23.9236 43.0166 24.2326 39.9601C24.3893 38.4571 24.7491 36.9819 25.3022 35.5742C25.4329 35.2256 25.5962 34.8851 25.7595 34.5527C25.9225 34.2086 26.108 33.8756 26.3147 33.5555C26.6879 32.8789 27.0996 32.2239 27.5477 31.5936C29.2853 29.045 31.5515 26.8946 34.1943 25.2864V25.3674Z" fill="#737588"/>
<path d="M8.57093 40.6024H9.77121C10.1515 40.6356 10.5341 40.6356 10.9144 40.6024C11.9187 40.5294 12.621 40.1727 11.143 39.4674C10.4554 39.111 9.73995 38.8101 9.00371 38.5675C6.4309 38.1158 3.81604 37.9446 1.20575 38.0568H1.01796L0.870994 38.1217L0.66686 38.2108H0.601523L0.536186 38.2514L0.389216 38.3486C0.287394 38.4381 0.199351 38.5419 0.127918 38.6567L0.0462842 38.8351C-0.0154281 39.0414 -0.0154281 39.2611 0.0462842 39.4674C0.102919 39.6725 0.216047 39.8577 0.372919 40.0025L0.519889 40.0998C0.609967 40.1608 0.709158 40.2073 0.81383 40.2376H0.985321H1.13229H1.2221C1.2221 40.2376 1.26292 40.1727 1.26292 40.1565C1.28458 39.9926 1.33428 39.8336 1.40989 39.6863L1.54056 39.9052L1.58138 39.9944L1.33643 40.043C3.76104 39.9759 6.18601 40.1634 8.57093 40.6024Z" fill="#737588"/>
<path d="M83.44 17.8933C83.3899 17.8754 83.335 17.8754 83.2848 17.8933C82.1846 18.4211 81.1231 19.0252 80.1085 19.7012C79.3491 20.2201 78.5979 20.7551 77.8876 21.3226C77.4303 21.6793 77.0057 22.0604 76.5729 22.4414C76.5729 22.4414 75.4869 23.5115 74.5234 24.6141C73.5599 25.7166 72.6454 26.803 72.7434 26.73C71.2818 28.6027 70.5551 30.0296 73.5599 27.5894C74.4581 26.8921 75.5032 26.0166 76.3361 25.3437C77.169 24.6708 77.7977 24.1844 77.7977 24.1844C78.2632 23.7628 78.7449 23.3737 79.2348 22.9602C79.9044 22.409 80.6066 21.9144 81.3088 21.4361C82.2406 20.8277 83.2147 20.2858 84.2239 19.8147C84.2678 19.7728 84.3038 19.7234 84.33 19.6688C84.9016 18.3798 84.0197 17.942 83.44 17.8933Z" fill="#737588"/>
<path d="M19.6914 22.1897C20.557 22.4086 21.202 22.2302 20.3202 21.2087C19.9309 20.7005 19.5081 20.2184 19.0546 19.7657L18.1645 19.1901C17.6338 18.8415 16.9071 18.3794 16.1477 17.9254C15.4318 17.5013 14.6869 17.1275 13.9185 16.8066C13.5325 16.6447 13.1338 16.5146 12.7264 16.4175C12.7264 16.4175 12.6529 16.4661 12.6447 16.4824C12.4386 16.7521 12.2914 17.0616 12.2127 17.3911C12.1339 17.7205 12.1253 18.0627 12.1875 18.3956C12.1875 18.4523 12.1875 18.4524 12.1875 18.4605L12.4488 18.5253C12.6039 18.5821 12.8244 18.6388 13.0857 18.7523C13.7529 19.0311 14.3996 19.3562 15.0209 19.7252C15.7149 20.1224 16.4089 20.5359 16.9234 20.9007L17.7971 21.4682L18.7443 21.8654C19.0473 22.0072 19.3648 22.1159 19.6914 22.1897Z" fill="#737588"/>
<path d="M58.5268 13.07C59.0572 12.6346 59.554 12.1604 60.0129 11.6512L60.6008 10.7189C61.0223 10.0462 61.4802 9.39668 61.9726 8.77325C62.4278 8.17491 62.9511 7.63083 63.5322 7.15184C63.7036 7.0124 63.8866 6.88765 64.0793 6.77892C64.1457 6.73784 64.217 6.70516 64.2916 6.68164C64.2956 6.64934 64.2956 6.61664 64.2916 6.58434C64.2776 6.16839 64.1949 5.75755 64.0466 5.36828C63.9446 5.12128 63.7713 4.90974 63.5485 4.76025C63.4995 4.76025 63.4914 4.76025 63.4669 4.76025C63.0182 4.94634 62.5999 5.19772 62.2258 5.50611C61.5231 6.07978 60.8901 6.73273 60.3396 7.4518C59.7517 8.19764 59.2291 8.95971 58.8616 9.53531L58.2574 10.4919L57.8573 11.5053C57.7115 11.8162 57.602 12.1426 57.5307 12.4782C57.3102 13.3051 57.4082 14.0428 58.5268 13.07Z" fill="#737588"/>
<path d="M17.9944 57.3515C17.435 57.7029 16.9052 58.0987 16.4103 58.5351C16.4103 58.5351 15.3733 59.8971 14.3199 61.2591C13.7974 61.9401 13.2666 62.613 12.8584 63.1075C12.6542 63.3588 12.4828 63.5696 12.3685 63.6993L12.2214 63.8615L12.1725 63.9263C12.1691 63.9559 12.1691 63.9859 12.1725 64.0155C12.3532 64.3897 12.6088 64.7235 12.9237 64.9964C13.1257 65.1676 13.3668 65.2873 13.6259 65.345C13.6831 65.345 13.6912 65.345 13.7075 65.345C13.7239 65.345 14.8997 63.9425 15.9367 62.5886L18.0025 59.889C18.0025 59.889 18.9661 58.0406 18.8762 58.0811C19.1865 57.2785 19.1865 56.5651 17.9944 57.3515Z" fill="#737588"/>
<path d="M74.5059 43.1954C73.477 43.2846 72.7585 43.6332 74.2854 44.3466C74.9959 44.6963 75.7298 44.997 76.4819 45.2465L84.8514 46.6409C84.884 46.6232 84.912 46.5983 84.9331 46.5679C85.1522 46.2992 85.2962 45.9779 85.3507 45.6364C85.4052 45.2948 85.3682 44.9451 85.2434 44.6222C85.2434 44.5655 85.2434 44.5655 85.1944 44.5574L76.9473 43.1954C76.9473 43.1954 74.4079 43.1386 74.5059 43.1954Z" fill="#737588"/>
<path d="M34.8396 1.56633C34.4231 1.20962 34.1128 0.844781 33.7617 0.812353C33.67 0.802794 33.5772 0.811512 33.4889 0.83796C33.4006 0.864408 33.3184 0.908057 33.2473 0.966389C33.0947 1.0858 32.9647 1.23131 32.8636 1.39606C32.8429 1.41909 32.8271 1.44608 32.8173 1.47535C32.8075 1.50463 32.8038 1.53558 32.8064 1.56633C32.7878 2.22928 32.8398 2.89231 32.9615 3.54442C33.0677 4.15245 33.1984 4.74427 33.3453 5.32798V5.3685C33.4814 5.90897 33.6284 6.44944 33.7863 6.98991C33.7863 6.98991 34.2844 8.40054 34.8233 9.75441C35.3622 11.1083 35.8847 12.4216 35.8684 12.3C36.1316 13.0588 36.5299 13.7645 37.0442 14.3835C37.2892 14.5295 37.379 13.9052 37.0442 12.0163C36.8483 10.8894 36.5543 9.58418 36.3257 8.50594C36.097 7.42771 35.9337 6.67375 35.9337 6.67375C35.7541 6.06572 35.5908 5.44959 35.4357 4.83346V4.79291C35.305 4.24163 35.1825 3.69846 35.0845 3.1715C34.9965 2.67637 34.9528 2.17448 34.9539 1.6717C34.9254 1.62747 34.8861 1.59122 34.8396 1.56633Z" fill="#737588"/>
</svg>
