<svg width="40" height="40" viewBox="0 0 40 40" fill="none" xmlns="http://www.w3.org/2000/svg">
<path d="M38.041 32.7449C38.3822 32.7449 38.6568 33.022 38.6568 33.3607C38.6568 34.8667 38.0692 36.283 37.0045 37.3477C35.9397 38.4125 34.5235 39 33.0174 39H6.98112C5.47508 39 4.05883 38.4125 2.99408 37.3477C1.92933 36.283 1.3418 34.8667 1.3418 33.3607C1.3418 33.1965 1.40594 33.04 1.52139 32.9245C1.63685 32.8091 1.79335 32.7449 1.95756 32.7449H3.2096V13.4255C3.2096 12.6968 3.80227 12.1042 4.53091 12.1042H13.2439V10.6187L10.6346 8.00939C10.5192 7.89393 10.455 7.73743 10.455 7.57322V5.21538C9.56731 4.95112 8.91819 4.12754 8.91819 3.15259C8.91819 1.96469 9.88288 1 11.0708 1C12.2587 1 13.2234 1.96469 13.2234 3.15259C13.2234 4.12497 12.5743 4.94855 11.6865 5.21538V7.31922L14.2958 9.92593C14.4113 10.0414 14.478 10.2005 14.478 10.3647V12.1042H19.3835V5.23847C18.4958 4.97164 17.8467 4.14807 17.8467 3.17568C17.8467 1.98778 18.8114 1.02309 19.9993 1.02309C21.1872 1.02309 22.1519 1.98778 22.1519 3.17568C22.1519 4.14807 21.5028 4.97164 20.615 5.23847V12.1067H25.5232V10.3672C25.5232 10.203 25.5899 10.044 25.7053 9.9285L28.312 7.31922V5.21538C27.4243 4.95112 26.7752 4.12754 26.7752 3.15259C26.7752 1.96469 27.7399 1 28.9278 1C30.1157 1 31.0804 1.96469 31.0804 3.15259C31.0804 4.12497 30.4313 4.94855 29.5435 5.21538V7.57322C29.5435 7.73743 29.4794 7.89393 29.3639 8.00939L26.7547 10.6187V12.1042H35.4677C36.1963 12.1042 36.789 12.6968 36.789 13.4255V32.7449H38.041ZM37.3816 33.9764H24.62L24.2147 35.4312C24.1403 35.698 23.8991 35.8802 23.622 35.8802H16.3766C16.0995 35.8802 15.8583 35.6954 15.7839 35.4312L15.3785 33.9764H2.61693C2.91711 36.1162 4.75926 37.7685 6.98112 37.7685H33.0149C34.1925 37.7685 35.2983 37.3092 36.1322 36.478C36.8198 35.7929 37.2508 34.9206 37.3816 33.9764ZM35.5574 32.7449V13.4255C35.5574 13.3767 35.5164 13.3357 35.4677 13.3357H26.1415C26.1389 13.3357 26.1389 13.3357 26.1363 13.3357C26.1338 13.3357 26.1338 13.3357 26.1312 13.3357H20.0018C19.9993 13.3357 19.9993 13.3357 19.9967 13.3357C19.9942 13.3357 19.9942 13.3357 19.9916 13.3357H13.8648C13.8648 13.3357 13.8622 13.3357 13.8597 13.3357C13.8571 13.3357 13.8571 13.3357 13.8545 13.3357H4.53091C4.48217 13.3357 4.44112 13.3767 4.44112 13.4255V32.7449H15.8455C16.1226 32.7449 16.3637 32.9296 16.4381 33.1965L16.8435 34.6512H23.155L23.5604 33.1965C23.6348 32.9296 23.876 32.7449 24.1531 32.7449H35.5574ZM29.8489 3.15515C29.8489 2.64715 29.4358 2.23408 28.9278 2.23408C28.4198 2.23408 28.0067 2.64715 28.0067 3.15515C28.0067 3.66316 28.4198 4.07623 28.9278 4.07623C29.4358 4.07623 29.8489 3.66316 29.8489 3.15515ZM20.9204 3.17568C20.9204 2.66768 20.5073 2.25461 19.9993 2.25461C19.4913 2.25461 19.0782 2.66768 19.0782 3.17568C19.0782 3.68368 19.4913 4.09675 19.9993 4.09675C20.5073 4.09675 20.9204 3.68368 20.9204 3.17568ZM11.9919 3.15515C11.9919 2.64715 11.5788 2.23408 11.0708 2.23408C10.5628 2.23408 10.1497 2.64715 10.1497 3.15515C10.1497 3.66316 10.5628 4.07623 11.0708 4.07623C11.5788 4.07623 11.9919 3.66316 11.9919 3.15515Z" fill="#001B6A"/>
<path d="M32.3754 15.9609C32.7167 15.9609 32.9912 16.238 32.9912 16.5767C32.9912 16.9179 32.7141 17.1925 32.3754 17.1925H19.1392C18.798 17.1925 18.5234 16.9179 18.5234 16.5767C18.5234 16.2355 18.798 15.9609 19.1392 15.9609H32.3754Z" fill="#001B6A"/>
<path d="M32.3754 19.1953C32.7167 19.1953 32.9912 19.4698 32.9912 19.8111C32.9912 20.1523 32.7141 20.4268 32.3754 20.4268H19.1392C18.798 20.4268 18.5234 20.1497 18.5234 19.8111C18.5234 19.4698 18.798 19.1953 19.1392 19.1953H32.3754Z" fill="#001B6A"/>
<path d="M32.3754 22.4277C32.7167 22.4277 32.9912 22.7048 32.9912 23.0435C32.9912 23.3847 32.7141 23.6593 32.3754 23.6593H19.1392C18.798 23.6593 18.5234 23.3847 18.5234 23.0435C18.5234 22.7023 18.798 22.4277 19.1392 22.4277H32.3754Z" fill="#001B6A"/>
<path d="M32.3771 25.6641C32.7183 25.6641 32.9928 25.9386 32.9928 26.2798C32.9928 26.6211 32.7157 26.8956 32.3771 26.8956H7.62357C7.2849 26.8956 7.00781 26.6185 7.00781 26.2798C7.00781 25.9386 7.2849 25.6641 7.62357 25.6641H32.3771Z" fill="#001B6A"/>
<path d="M32.3772 28.8986C32.7184 28.8986 32.9929 29.1757 32.9929 29.5143C32.9929 29.853 32.7159 30.1301 32.3772 30.1301H7.62369C7.28503 30.1301 7.00793 29.853 7.00793 29.5143C7.00793 29.1757 7.28503 28.8986 7.62369 28.8986H32.3772Z" fill="#001B6A"/>
<path d="M14.4713 16.5767V23.0473C14.4713 23.3885 14.1942 23.6631 13.8556 23.6631H7.62357C7.2849 23.6631 7.00781 23.3885 7.00781 23.0473V16.5767C7.00781 16.2355 7.2849 15.9609 7.62357 15.9609H13.8556C14.1942 15.9609 14.4713 16.2355 14.4713 16.5767ZM13.2398 22.429V17.1925H8.23933V22.4315L13.2398 22.429Z" fill="#001B6A"/>
</svg>
