<svg width="40" height="40" viewBox="0 0 40 40" fill="none" xmlns="http://www.w3.org/2000/svg">
<path d="M36.832 8.38425V31.6145C36.832 32.4879 36.1219 33.198 35.2485 33.198H30.0007V36.7064V36.7188C30.0007 37.0479 29.7335 37.3126 29.4069 37.3126H20.5889L21.2643 37.9881C21.4969 38.2206 21.4969 38.5967 21.2643 38.8268C21.148 38.9431 20.9971 39 20.8437 39C20.6928 39 20.5394 38.9431 20.4231 38.8268L18.9064 37.3101H10.5931C10.264 37.3101 9.9993 37.0429 9.9993 36.7163V33.198H4.75152C3.87813 33.198 3.16803 32.4879 3.16803 31.6145V8.38425C3.16803 7.51086 3.87813 6.80076 4.75152 6.80076H9.9993V3.29482C9.9993 3.29235 9.9993 3.2874 9.9993 3.28492C9.9993 2.95833 10.264 2.69359 10.5882 2.69112H19.4112L18.7357 2.01318C18.5031 1.78061 18.5031 1.40453 18.7357 1.17443C18.9683 0.941856 19.3443 0.941856 19.5744 1.17443L21.0911 2.69112H29.4069C29.736 2.69112 30.0007 2.95833 30.0007 3.28492V6.80324H35.2485C36.1219 6.80076 36.832 7.51086 36.832 8.38425ZM35.6444 31.617V29.5238H23.1719V31.617C23.1719 31.8347 23.3501 32.0129 23.5678 32.0129H35.2485C35.4662 32.0129 35.6444 31.8347 35.6444 31.617ZM35.6444 28.3362V10.8461H23.1719V28.3362H35.6444ZM35.6444 9.65846V8.38425C35.6444 8.16652 35.4662 7.98838 35.2485 7.98838H23.5678C23.3501 7.98838 23.1719 8.16652 23.1719 8.38425V9.65846H35.6444ZM28.8131 6.80076V3.87626H21.0911L19.5744 5.39294C19.4582 5.50923 19.3072 5.56614 19.1538 5.56614C19.0004 5.56614 18.8495 5.50923 18.7332 5.39294C18.5006 5.16037 18.5006 4.78429 18.7332 4.55419L19.4112 3.87626H11.1869V6.80076H16.4347C17.3081 6.80076 18.0182 7.51086 18.0182 8.38425V31.6145C18.0182 32.4879 17.3081 33.198 16.4347 33.198H11.1869V36.1225H18.9089L20.4256 34.6058C20.6581 34.3732 21.0342 34.3732 21.2643 34.6058C21.4969 34.8384 21.4969 35.2145 21.2643 35.4446L20.5864 36.1225H28.8106V33.198H23.5629C22.6895 33.198 21.9794 32.4879 21.9794 31.6145V8.38425C21.9794 7.51086 22.6895 6.80076 23.5629 6.80076H28.8131ZM16.8281 31.617V29.5238H4.35565V31.617C4.35565 31.8347 4.53379 32.0129 4.75152 32.0129H16.4322C16.6524 32.0129 16.8281 31.8347 16.8281 31.617ZM16.8281 28.3362V10.8461H4.35565V28.3362H16.8281ZM16.8281 9.65846V8.38425C16.8281 8.16652 16.6499 7.98838 16.4322 7.98838H4.75152C4.53379 7.98838 4.35565 8.16652 4.35565 8.38425V9.65846H16.8281Z" fill="#001B6A"/>
</svg>
