<svg width="57" height="57" viewBox="0 0 57 57" fill="none" xmlns="http://www.w3.org/2000/svg">
<path d="M8.06325 3.10248C8.21968 3.10184 8.21968 3.10184 8.37926 3.10119C8.4946 3.10129 8.60994 3.10138 8.72878 3.10148C8.91168 3.10099 8.91168 3.10099 9.09827 3.10048C9.50962 3.09951 9.92096 3.09934 10.3323 3.09918C10.6261 3.09866 10.9199 3.09811 11.2137 3.0975C12.014 3.09599 12.8142 3.09532 13.6145 3.09483C14.1141 3.09452 14.6137 3.09405 15.1133 3.09355C16.4962 3.09219 17.8792 3.09104 19.2622 3.09067C19.395 3.09063 19.395 3.09063 19.5305 3.09059C19.6193 3.09057 19.7081 3.09055 19.7995 3.09052C19.9794 3.09047 20.1593 3.09042 20.3392 3.09037C20.473 3.09033 20.473 3.09033 20.6096 3.0903C22.055 3.08986 23.5004 3.08791 24.9457 3.08532C26.4293 3.08268 27.9129 3.08129 29.3965 3.08116C30.2297 3.08106 31.0628 3.08042 31.8959 3.0784C32.6055 3.07669 33.315 3.07612 34.0246 3.07704C34.3866 3.07747 34.7485 3.07719 35.1105 3.07581C35.5032 3.0744 35.8958 3.07504 36.2885 3.0762C36.4026 3.07531 36.5167 3.07441 36.6342 3.07349C37.4323 3.07902 37.9759 3.18121 38.6031 3.70855C39.1237 4.33041 39.236 4.82462 39.2084 5.60808C39.2069 5.69003 39.2054 5.77197 39.2038 5.8564C39.1999 6.05662 39.1939 6.2568 39.1875 6.45696C39.3475 6.44103 39.3475 6.44103 39.5106 6.42478C42.3861 6.17171 45.3309 6.92678 47.6249 8.72859C48.9542 9.84364 49.9764 11.1489 50.7656 12.6913C50.8278 12.8126 50.8899 12.9339 50.9539 13.0588C52.1943 15.7043 52.2384 18.867 51.2527 21.5976C50.5235 23.4804 49.4138 24.9768 47.9824 26.3847C48.5229 27.5739 48.5229 27.5739 49.411 28.4747C49.7141 28.5747 49.7141 28.5747 50.0046 28.6156C50.9654 28.9411 51.445 29.815 51.8928 30.6639C52.0174 30.8921 52.1423 31.1203 52.2673 31.3484C52.3311 31.4657 52.3949 31.5831 52.4606 31.704C52.787 32.296 53.1298 32.8782 53.4723 33.461C53.6022 33.683 53.7321 33.9051 53.862 34.1272C53.9225 34.2308 53.9831 34.3343 54.0455 34.441C54.2824 34.8465 54.5183 35.2526 54.7526 35.6597C54.8199 35.7764 54.8872 35.8931 54.9565 36.0133C55.3273 36.7003 55.3003 37.4239 55.2188 38.1855C54.8972 39.1635 54.1895 39.5998 53.3262 40.0781C53.1218 40.2028 52.9177 40.328 52.7139 40.4538C51.9339 40.9273 51.2202 40.9263 50.3203 40.8573C49.4978 40.6517 48.959 40.0321 48.5333 39.3276C48.3004 38.923 48.0784 38.5128 47.8568 38.102C47.5054 37.453 47.1319 36.8177 46.7578 36.1816C46.2775 35.361 45.7984 34.5398 45.3314 33.7115C45.2853 33.6309 45.2392 33.5503 45.1916 33.4673C44.8223 32.8066 44.7144 32.2705 44.7539 31.5058C44.8034 31.3891 44.8529 31.2724 44.904 31.1522C44.9967 30.6088 44.8616 30.4361 44.5608 29.9961C44.5006 29.9134 44.4403 29.8307 44.3782 29.7454C44.261 29.578 44.1441 29.4102 44.0277 29.2423C43.975 29.1691 43.9222 29.0959 43.8679 29.0206C43.752 28.8339 43.752 28.8339 43.752 28.6113C43.6785 28.6113 43.605 28.6113 43.5293 28.6113C43.5296 28.7315 43.5299 28.8517 43.5303 28.9756C43.5377 31.9015 43.5432 34.8274 43.5466 37.7533C43.5483 39.1683 43.5507 40.5832 43.5545 41.9982C43.5578 43.2315 43.56 44.4648 43.5607 45.698C43.5612 46.351 43.5622 47.004 43.5646 47.657C43.5669 48.2718 43.5676 48.8866 43.5671 49.5014C43.5672 49.7268 43.5678 49.9523 43.5691 50.1778C43.5708 50.4861 43.5704 50.7943 43.5695 51.1026C43.5705 51.1914 43.5714 51.2802 43.5724 51.3717C43.567 52.0483 43.4496 52.6732 43.0157 53.2174C42.9533 53.267 42.8909 53.3167 42.8266 53.3678C42.765 53.4192 42.7034 53.4706 42.64 53.5235C41.9255 53.9592 41.19 53.9147 40.3804 53.9125C40.2414 53.913 40.1023 53.9135 39.9591 53.914C39.5739 53.9154 39.1887 53.9154 38.8035 53.9151C38.3878 53.9151 37.9721 53.9163 37.5563 53.9173C36.7422 53.9192 35.928 53.9198 35.1139 53.9199C34.4521 53.92 33.7902 53.9205 33.1284 53.9212C31.2517 53.9232 29.3751 53.9242 27.4984 53.924C27.3972 53.924 27.2961 53.924 27.1919 53.924C27.04 53.924 27.04 53.924 26.885 53.924C25.2435 53.9239 23.6021 53.926 21.9606 53.9291C20.2748 53.9323 18.5891 53.9339 16.9033 53.9337C15.957 53.9336 15.0107 53.9342 14.0644 53.9366C13.2587 53.9387 12.4531 53.9391 11.6475 53.9376C11.2366 53.9369 10.8257 53.9369 10.4147 53.9388C9.96899 53.9409 9.52332 53.9395 9.07756 53.9378C8.94806 53.9389 8.81856 53.9401 8.68514 53.9413C7.88244 53.9344 7.22739 53.8436 6.62216 53.2802C6.0133 52.5963 5.98091 51.9929 5.99783 51.1204C5.99883 51.022 5.99984 50.9237 6.00087 50.8223C6.00348 50.5807 6.00747 50.3391 6.01174 50.0976C5.92756 50.0999 5.84337 50.1022 5.75663 50.1046C5.37318 50.1139 4.98975 50.1197 4.60622 50.1254C4.47377 50.1291 4.34131 50.1329 4.20483 50.1367C2.98393 50.1504 2.98393 50.1504 2.44924 49.6523C1.96237 49.1689 1.7677 48.8155 1.76478 48.1326C1.76394 47.998 1.7631 47.8633 1.76223 47.7246C1.76186 47.5738 1.76149 47.4231 1.76114 47.2723C1.76038 47.1132 1.75957 46.9541 1.75871 46.7949C1.75651 46.3561 1.75502 45.9172 1.75366 45.4784C1.75241 45.1023 1.75075 44.7263 1.74909 44.3502C1.73338 40.7844 1.72611 37.2186 1.72022 33.6527C1.71944 33.1884 1.71864 32.724 1.71784 32.2597C1.71764 32.1443 1.71744 32.0288 1.71723 31.9099C1.71388 30.0412 1.70668 28.1724 1.69794 26.3037C1.68905 24.3853 1.68396 22.4669 1.68247 20.5486C1.68154 19.4713 1.6789 18.3942 1.67193 17.317C1.66601 16.3994 1.66348 15.4818 1.66538 14.5641C1.66624 14.0961 1.66549 13.6282 1.66034 13.1601C1.65565 12.731 1.65565 12.3022 1.65927 11.8731C1.65977 11.7184 1.65859 11.5637 1.65551 11.4091C1.63621 10.3779 1.82072 9.81204 2.52967 9.05304C2.61334 8.96784 2.69702 8.88264 2.78323 8.79485C2.91682 8.63534 3.04909 8.47469 3.17896 8.31214C3.7799 7.58068 4.38241 6.85094 4.99587 6.12993C5.58072 5.44233 6.14492 4.73979 6.70189 4.02949C6.78182 3.92817 6.86176 3.82685 6.94412 3.72246C7.01616 3.63047 7.0882 3.53848 7.16242 3.44371C7.44931 3.11036 7.64054 3.10313 8.06325 3.10248ZM8.79495 4.67571C8.7939 4.81943 8.79286 4.96316 8.79179 5.11124C8.78733 5.64741 8.78001 6.1835 8.77184 6.71962C8.76871 6.95111 8.76634 7.18262 8.76478 7.41412C8.76238 7.74802 8.75718 8.08178 8.75146 8.41564C8.75125 8.56947 8.75125 8.56947 8.75104 8.7264C8.73609 9.39409 8.61781 9.90705 8.2383 10.4648C7.66573 11.0094 7.17485 11.0406 6.414 11.0566C6.27757 11.0601 6.27757 11.0601 6.13838 11.0636C5.84801 11.0709 5.55762 11.0775 5.26724 11.084C5.07031 11.0888 4.87338 11.0937 4.67646 11.0986C4.19383 11.1105 3.71119 11.1218 3.22854 11.1327C3.2158 15.8319 3.20599 20.531 3.20011 25.2301C3.19942 25.7846 3.1987 26.3391 3.19796 26.8936C3.19782 27.004 3.19767 27.1144 3.19752 27.2281C3.1951 29.0167 3.19071 30.8053 3.18559 32.5939C3.18039 34.4284 3.1773 36.263 3.17617 38.0976C3.1754 39.2301 3.17298 40.3626 3.16847 41.495C3.16553 42.2711 3.16464 43.0472 3.16536 43.8232C3.16572 44.2713 3.16516 44.7194 3.16218 45.1675C3.15948 45.5775 3.15934 45.9875 3.16124 46.3976C3.16159 46.6165 3.15918 46.8355 3.15669 47.0544C3.16132 47.5967 3.16611 47.979 3.4278 48.4596C3.98186 48.7553 4.49806 48.7262 5.11706 48.7195C5.2536 48.7202 5.39015 48.7209 5.53083 48.7217C5.90956 48.7231 6.28814 48.722 6.66686 48.7198C7.07537 48.7181 7.48388 48.7196 7.89239 48.7207C8.69251 48.7223 9.4926 48.7209 10.2927 48.7186C11.2242 48.7159 12.1556 48.7161 13.087 48.7164C14.7487 48.7168 16.4104 48.7145 18.0721 48.7107C19.6851 48.707 21.2982 48.7054 22.9112 48.7061C24.6672 48.7068 26.4231 48.7066 28.1791 48.7044C28.3183 48.7042 28.3183 48.7042 28.4603 48.704C28.6468 48.7038 28.8332 48.7036 29.0196 48.7033C29.6692 48.7026 30.3187 48.7025 30.9683 48.7026C31.7596 48.7028 32.5509 48.7017 33.3422 48.6991C33.7461 48.6978 34.1499 48.697 34.5538 48.6976C34.9912 48.6983 35.4285 48.6964 35.8659 48.6942C35.9941 48.6948 36.1224 48.6954 36.2546 48.696C36.4299 48.6945 36.4299 48.6945 36.6088 48.693C36.7098 48.6928 36.8108 48.6926 36.9148 48.6924C37.2409 48.6413 37.3942 48.5461 37.6289 48.3163C37.6953 47.954 37.6953 47.954 37.6825 47.5281C37.6829 47.4473 37.6832 47.3666 37.6836 47.2834C37.6844 47.0121 37.6819 46.7409 37.6795 46.4696C37.6794 46.2754 37.6794 46.0812 37.6797 45.887C37.6798 45.3591 37.6772 44.8313 37.6741 44.3034C37.6713 43.7521 37.671 43.2007 37.6705 42.6493C37.6691 41.6048 37.6655 40.5604 37.661 39.516C37.656 38.3271 37.6536 37.1381 37.6513 35.9492C37.6467 33.5032 37.6388 31.0572 37.6289 28.6113C37.4925 28.5547 37.4925 28.5547 37.3533 28.497C37.2336 28.4473 37.1139 28.3975 36.9905 28.3463C36.872 28.2971 36.7535 28.2479 36.6314 28.1973C34.894 27.4649 33.4737 26.5486 32.1738 25.1601C31.2674 25.7627 31.2674 25.7627 30.6153 26.6073C30.6105 26.8939 30.6507 27.1538 30.6974 27.4362C30.7466 27.9164 30.6274 28.305 30.3926 28.7226C29.9497 29.232 29.4443 29.5634 28.7657 29.6506C27.9612 29.6623 27.3814 29.5607 26.771 29.0157C26.4002 28.5824 26.3718 28.2478 26.35 27.6858C26.2853 27.175 26.2212 26.9938 25.8312 26.6474C25.4532 26.3987 25.0556 26.1877 24.6551 25.9778C24.358 25.8156 24.0733 25.6395 23.7873 25.4584C23.6882 25.3961 23.5891 25.3339 23.4869 25.2697C23.2925 25.1473 23.0984 25.0243 22.9048 24.9007C22.7703 24.8183 22.7703 24.8183 22.6331 24.7343C22.5541 24.6849 22.4751 24.6354 22.3936 24.5844C22.0852 24.4654 21.9106 24.5106 21.5977 24.6034C21.5173 24.6425 21.4369 24.6815 21.3541 24.7217C20.7567 24.9209 20.1379 24.9153 19.559 24.6695C19.1703 24.5656 19.1703 24.5656 18.9323 24.7134C18.6907 24.8977 18.4675 25.0935 18.2439 25.2992C18.0767 25.4453 17.9092 25.5911 17.7416 25.7367C17.6184 25.8456 17.6184 25.8456 17.4927 25.9567C17.1669 26.2392 16.8277 26.5009 16.4835 26.7604C16.3696 26.8487 16.2557 26.9369 16.1383 27.0279C15.9208 27.1911 15.6986 27.3482 15.472 27.4984C14.9016 27.8695 14.9016 27.8695 14.6388 28.4621C14.644 28.6724 14.6565 28.8827 14.6762 29.0922C14.7152 29.6998 14.4816 30.1349 14.1039 30.5943C13.457 31.1208 12.9566 31.2352 12.1317 31.2096C11.5499 31.1431 11.1355 30.9766 10.7401 30.5378C10.4405 30.1087 10.3451 29.7988 10.3187 29.2792C10.2881 28.9873 10.2881 28.9873 10.1309 28.7226C9.57314 28.345 8.96952 28.0907 8.34963 27.832C7.39292 27.4258 7.39292 27.4258 7.0137 27.164C6.86062 26.7535 6.86062 26.7535 6.90237 26.3847C6.97584 26.2745 7.04932 26.1643 7.12502 26.0507C7.97677 25.9163 8.58286 26.2825 9.32375 26.67C9.54985 26.7873 9.77655 26.9034 10.0039 27.0183C10.1032 27.0702 10.2024 27.1221 10.3047 27.1755C10.61 27.2877 10.724 27.2826 11.0215 27.164C11.1225 27.1089 11.2236 27.0538 11.3277 26.997C12.0077 26.6831 12.4588 26.6791 13.1507 26.8996C13.6078 26.9935 13.7642 26.9648 14.1748 26.7269C14.5188 26.4667 14.8408 26.1822 15.1616 25.8941C15.4837 25.6109 15.8239 25.3522 16.1635 25.0905C16.3548 24.9402 16.5457 24.7894 16.7365 24.6386C16.86 24.541 16.9835 24.4437 17.1073 24.3465C17.2803 24.2103 17.4525 24.0729 17.6247 23.9355C17.723 23.8574 17.8213 23.7793 17.9225 23.6989C18.1733 23.4986 18.1733 23.4986 18.2578 23.1562C18.2544 22.9821 18.2471 22.8081 18.237 22.6343C18.2321 21.9636 18.4094 21.485 18.854 20.9814C19.3168 20.5558 19.7927 20.3829 20.4161 20.3656C21.1094 20.4006 21.6314 20.5774 22.1543 21.0409C22.4479 21.4195 22.5919 21.6412 22.6127 22.1203C22.6379 22.6879 22.6933 23.0353 23.1178 23.4332C23.5067 23.7045 23.9215 23.9277 24.3391 24.1512C24.481 24.2311 24.6226 24.3115 24.764 24.3923C25.0342 24.5462 25.3056 24.6974 25.5784 24.8467C25.8832 25.0173 26.176 25.1961 26.4683 25.3871C26.8003 25.645 26.8003 25.645 27.0945 25.5428C27.1909 25.49 27.2874 25.4372 27.3867 25.3827C27.9971 25.1953 28.4267 25.1168 29.0288 25.3479C29.305 25.4409 29.305 25.4409 29.6133 25.3827C30.2083 24.996 30.6915 24.4519 31.1719 23.9355C31.1154 23.8301 31.0588 23.7248 31.0006 23.6163C29.3762 20.5236 28.9282 17.3165 29.9682 13.9507C30.4506 12.6017 31.1197 11.4329 32.0625 10.3534C32.1508 10.2413 32.1508 10.2413 32.2408 10.1269C33.6121 8.42802 35.6305 7.52147 37.6289 6.79094C37.6379 6.50096 37.6446 6.21125 37.6498 5.92119C37.6526 5.83903 37.6554 5.75688 37.6583 5.67223C37.675 5.21825 37.675 5.21825 37.4903 4.81888C37.2449 4.639 37.1113 4.63417 36.8088 4.63461C36.7088 4.63395 36.6089 4.63328 36.5059 4.6326C36.341 4.63406 36.341 4.63406 36.1728 4.63555C35.9978 4.63512 35.9978 4.63512 35.8193 4.63468C35.4264 4.63413 35.0336 4.63597 34.6408 4.63779C34.36 4.63789 34.0791 4.63784 33.7983 4.63765C33.1927 4.63757 32.5871 4.63852 31.9815 4.6404C31.106 4.64311 30.2304 4.64398 29.3548 4.6444C27.9343 4.64513 26.5138 4.64736 25.0932 4.65051C23.7132 4.65358 22.3332 4.65594 20.9531 4.65736C20.8681 4.65745 20.783 4.65754 20.6954 4.65763C20.2688 4.65807 19.8422 4.65849 19.4155 4.6589C15.8753 4.66237 12.3351 4.66827 8.79495 4.67571ZM7.12502 6.01165C6.54272 6.61326 6.0173 7.27054 5.49033 7.92032C5.13807 8.35455 4.78151 8.78523 4.42532 9.21624C4.22819 9.44853 4.22819 9.44853 4.11916 9.68548C4.55518 9.69518 4.99118 9.70111 5.42727 9.70635C5.55097 9.70915 5.67468 9.71195 5.80213 9.71483C5.9808 9.71644 5.9808 9.71644 6.16308 9.71809C6.32749 9.72071 6.32749 9.72071 6.49521 9.72339C6.85282 9.67756 6.99803 9.62378 7.23635 9.35149C7.29802 8.99596 7.29802 8.99596 7.27984 8.58828C7.27921 8.51463 7.27858 8.44097 7.27793 8.36508C7.27544 8.1302 7.26985 7.89551 7.26418 7.6607C7.26195 7.50132 7.25992 7.34193 7.2581 7.18255C7.25319 6.79219 7.24551 6.40194 7.23635 6.01165C7.19961 6.01165 7.16287 6.01165 7.12502 6.01165ZM32.9745 11.4846C31.3134 13.6371 30.5702 16.2233 30.8627 18.9327C31.2283 21.5276 32.6261 23.9102 34.6919 25.5234C36.8413 27.0937 39.5083 27.7605 42.1438 27.3706C44.6804 26.926 47.0609 25.5231 48.5617 23.4132C50.1252 21.1035 50.732 18.3599 50.2059 15.6011C49.6398 13.1115 47.9895 10.7831 45.8453 9.41419C41.6025 6.79999 36.2263 7.7092 32.9745 11.4846ZM19.9556 22.0011C19.6773 22.247 19.6773 22.247 19.6425 22.5995C19.683 22.9393 19.683 22.9393 19.886 23.1979C20.1447 23.401 20.1447 23.401 20.4844 23.4415C20.8347 23.405 20.8347 23.405 21.0897 23.1423C21.2914 22.832 21.2914 22.832 21.2637 22.4743C21.1364 22.1084 21.0488 21.996 20.7071 21.8202C20.2664 21.7825 20.2664 21.7825 19.9556 22.0011ZM27.9782 26.7883C27.6915 27.0324 27.6915 27.0324 27.6651 27.3866C27.7273 27.76 27.7638 27.9219 28.0547 28.1659C28.4396 28.2495 28.4396 28.2495 28.834 28.1659C29.13 27.9444 29.13 27.9444 29.2793 27.6093C29.3075 27.2589 29.3075 27.2589 29.168 26.9413C28.7391 26.6027 28.4651 26.4939 27.9782 26.7883ZM46.5352 27.2753C46.0943 27.4957 45.6535 27.7162 45.1992 27.9433C45.369 28.3678 45.5341 28.707 45.7698 29.0914C45.8298 29.1897 45.8898 29.288 45.9516 29.3892C45.9972 29.4632 46.0428 29.5371 46.0899 29.6132C46.4631 29.4733 46.7917 29.314 47.1266 29.0983C47.2042 29.0487 47.2819 28.999 47.3619 28.9478C47.4197 28.9102 47.4775 28.8727 47.5371 28.8339C47.4339 28.6154 47.3292 28.3975 47.224 28.1799C47.1659 28.0585 47.1078 27.937 47.0479 27.812C46.8862 27.4732 46.8862 27.4732 46.5352 27.2753ZM11.94 28.3956C11.6479 28.7082 11.6479 28.7082 11.6895 29.1331C11.7667 29.5303 11.7667 29.5303 12.1348 29.7245C12.5356 29.7757 12.7311 29.7705 13.0741 29.5506C13.2828 29.2773 13.2828 29.2773 13.255 28.8826C13.1717 28.4878 13.1717 28.4878 12.8723 28.2842C12.4423 28.1102 12.316 28.1135 11.94 28.3956ZM39.1875 28.9452C39.1873 29.3126 39.1873 29.3126 39.187 29.6873C39.1853 31.9938 39.1805 34.3003 39.1728 36.6068C39.169 37.7926 39.1661 38.9784 39.1657 40.1642C39.1654 41.1979 39.1631 42.2315 39.1585 43.2652C39.1561 43.8124 39.1547 44.3596 39.1557 44.9069C39.1565 45.4222 39.1547 45.9376 39.151 46.4529C39.1501 46.6418 39.1501 46.8306 39.1512 47.0195C39.1598 48.7308 39.1598 48.7308 38.7148 49.3698C38.0009 49.9955 37.4225 50.0509 36.5012 50.044C36.3773 50.0449 36.2534 50.0457 36.1258 50.0466C35.7113 50.0488 35.2968 50.0479 34.8823 50.047C34.5849 50.048 34.2876 50.0491 33.9902 50.0505C33.3503 50.0531 32.7104 50.0541 32.0705 50.054C31.1453 50.0538 30.2201 50.056 29.295 50.0589C27.7938 50.0635 26.2926 50.0661 24.7915 50.0674C23.3335 50.0687 21.8755 50.071 20.4175 50.0745C20.2826 50.0748 20.2826 50.0748 20.145 50.0751C19.694 50.0762 19.2429 50.0773 18.7918 50.0784C15.0513 50.0877 11.3108 50.0937 7.57034 50.0976C7.56133 50.4061 7.5547 50.7144 7.54946 51.023C7.54666 51.1105 7.54386 51.1979 7.54098 51.2881C7.53991 51.3724 7.53883 51.4567 7.53772 51.5435C7.53597 51.6211 7.53422 51.6986 7.53242 51.7785C7.5837 52.0647 7.66784 52.1569 7.90432 52.3241C8.16917 52.3744 8.16917 52.3744 8.47129 52.3665C8.58926 52.3674 8.70722 52.3684 8.82876 52.3693C8.95881 52.3687 9.08886 52.368 9.22285 52.3673C9.36065 52.3679 9.49844 52.3685 9.64042 52.3691C10.0236 52.3704 10.4068 52.3703 10.79 52.3694C11.203 52.3689 11.616 52.3703 12.029 52.3714C12.8383 52.3734 13.6476 52.3734 14.457 52.3729C15.1146 52.3724 15.7721 52.3726 16.4297 52.3732C16.5232 52.3733 16.6167 52.3733 16.713 52.3734C16.9029 52.3736 17.0927 52.3738 17.2826 52.3739C19.0644 52.3755 20.8463 52.3749 22.6281 52.3736C24.2595 52.3725 25.8909 52.3739 27.5223 52.3766C29.1961 52.3793 30.87 52.3804 32.5438 52.3796C33.484 52.3792 34.4243 52.3795 35.3645 52.3814C36.1649 52.3831 36.9652 52.3832 37.7656 52.3812C38.1742 52.3803 38.5828 52.38 38.9914 52.3817C39.4337 52.3835 39.8759 52.3819 40.3182 52.3799C40.4483 52.381 40.5783 52.3821 40.7123 52.3832C40.8303 52.3821 40.9482 52.381 41.0698 52.3799C41.1719 52.3799 41.2741 52.3798 41.3794 52.3798C41.6518 52.3452 41.6518 52.3452 41.8366 52.1238C42.0422 51.7483 42.0155 51.3717 42.0109 50.9546C42.0112 50.8606 42.0115 50.7666 42.0118 50.6697C42.0123 50.3541 42.0105 50.0386 42.0086 49.723C42.0085 49.497 42.0086 49.271 42.0088 49.045C42.0089 48.4309 42.0069 47.8168 42.0046 47.2027C42.0025 46.5611 42.0023 45.9196 42.0019 45.278C42.0009 44.0628 41.9981 42.8477 41.9948 41.6325C41.991 40.2492 41.9892 38.8659 41.9875 37.4826C41.984 34.6368 41.9781 31.791 41.9707 28.9452C41.0523 28.9452 40.1338 28.9452 39.1875 28.9452ZM47.6902 30.469C47.6067 30.5175 47.5232 30.5659 47.4371 30.6158C46.9759 30.8918 46.5885 31.1417 46.3125 31.6171C46.1561 32.3099 46.5985 32.8667 46.9387 33.4401C47.0033 33.5515 47.068 33.6629 47.1345 33.7777C47.2717 34.0138 47.4095 34.2495 47.5478 34.4849C47.7573 34.8414 47.9647 35.1991 48.1716 35.5571C49.2221 37.8098 49.2221 37.8098 50.8891 39.4079C51.4863 39.4109 51.8478 39.1879 52.3521 38.8882C52.486 38.8134 52.486 38.8134 52.6226 38.7371C53.1863 38.4133 53.5659 38.1777 53.7544 37.5255C53.7747 37.1198 53.6973 36.9554 53.4893 36.6104C53.3958 36.4509 53.3958 36.4509 53.3005 36.2882C53.203 36.1252 53.203 36.1252 53.1035 35.9589C52.987 35.7491 52.8712 35.5389 52.7561 35.3283C52.0684 34.0893 51.3686 32.8578 50.6474 31.638C50.5785 31.5199 50.5096 31.4017 50.4386 31.28C50.3731 31.1701 50.3075 31.0602 50.2399 30.947C50.1828 30.8504 50.1256 30.7539 50.0668 30.6544C49.7791 30.2615 49.4941 29.9816 49.0096 29.8867C48.5006 29.9724 48.1267 30.2019 47.6902 30.469Z" fill="#001B6A"/>
<path d="M18.4146 29.0116C18.5135 29.0102 18.6123 29.0088 18.7141 29.0073C18.8206 29.0076 18.927 29.008 19.0367 29.0083C19.1464 29.0077 19.2561 29.0071 19.3691 29.0065C19.601 29.0058 19.833 29.006 20.065 29.0069C20.4201 29.0079 20.775 29.0047 21.13 29.0011C21.3553 29.001 21.5807 29.001 21.806 29.0013C21.9654 28.9995 21.9654 28.9995 22.1279 28.9976C22.2767 28.9991 22.2767 28.9991 22.4285 29.0007C22.5155 29.0007 22.6025 29.0008 22.6922 29.0008C23.0321 29.0793 23.1583 29.2356 23.379 29.5019C23.4338 29.7671 23.4338 29.7671 23.4325 30.0668C23.4331 30.1808 23.4337 30.2948 23.4344 30.4122C23.432 30.5987 23.432 30.5987 23.4295 30.789C23.4296 30.9205 23.4296 31.0519 23.4297 31.1874C23.4295 31.5473 23.4272 31.9072 23.4241 32.2672C23.4213 32.6435 23.4211 33.0199 23.4205 33.3962C23.4192 34.1087 23.4155 34.8211 23.411 35.5336C23.4061 36.3448 23.4036 37.156 23.4014 37.9672C23.3967 39.6357 23.3888 41.3041 23.379 42.9726C24.1137 42.9726 24.8485 42.9726 25.6055 42.9726C25.6029 42.4693 25.6029 42.4693 25.6002 41.9559C25.5947 40.8491 25.591 39.7422 25.5882 38.6353C25.5865 37.964 25.5841 37.2927 25.5803 36.6214C25.5767 35.9739 25.5747 35.3265 25.5738 34.679C25.5732 34.4316 25.572 34.1842 25.5702 33.9368C25.5678 33.5911 25.5675 33.2454 25.5676 32.8997C25.5664 32.7968 25.5652 32.6939 25.564 32.5878C25.5644 32.4937 25.5649 32.3996 25.5654 32.3026C25.5651 32.2208 25.5647 32.139 25.5644 32.0547C25.6175 31.7773 25.7202 31.6783 25.9395 31.5058C26.1718 31.4619 26.1718 31.4619 26.4422 31.459C26.5437 31.4573 26.6451 31.4555 26.7496 31.4537C26.9134 31.4536 26.9134 31.4536 27.0806 31.4536C27.193 31.4528 27.3054 31.4519 27.4212 31.451C27.6589 31.4498 27.8966 31.4495 28.1343 31.45C28.4987 31.4501 28.8628 31.4455 29.2272 31.4406C29.4579 31.44 29.6887 31.4397 29.9195 31.4397C30.0287 31.4379 30.138 31.436 30.2505 31.4342C30.4027 31.4357 30.4027 31.4357 30.5579 31.4373C30.6471 31.4371 30.7363 31.4368 30.8283 31.4366C31.0606 31.5058 31.0606 31.5058 31.2566 31.7219C31.4491 32.197 31.4386 32.6191 31.4325 33.1271C31.4326 33.2336 31.4326 33.3401 31.4327 33.4499C31.4324 33.8011 31.4298 34.1522 31.4272 34.5034C31.4266 34.7472 31.4261 34.991 31.4258 35.2348C31.4245 35.876 31.4212 36.5171 31.4175 37.1582C31.4141 37.8126 31.4126 38.4671 31.4109 39.1216C31.4073 40.4052 31.4016 41.6889 31.3946 42.9726C31.467 42.9703 31.5395 42.9679 31.6141 42.9655C31.9422 42.9563 32.2702 42.9505 32.5983 42.9448C32.7123 42.941 32.8264 42.9373 32.9438 42.9335C33.0533 42.932 33.1627 42.9306 33.2754 42.9291C33.3763 42.9268 33.4771 42.9244 33.5811 42.922C33.8438 42.9726 33.8438 42.9726 34.0472 43.1727C34.2445 43.5432 34.1692 43.8007 34.0665 44.1972C33.726 44.4242 33.6596 44.4478 33.2768 44.4485C33.1836 44.4492 33.0905 44.4499 32.9945 44.4507C32.8922 44.4503 32.7899 44.45 32.6844 44.4496C32.5214 44.4504 32.5214 44.4504 32.355 44.4512C31.9892 44.4526 31.6233 44.4524 31.2574 44.4522C30.9957 44.4529 30.7341 44.4536 30.4724 44.4545C29.7606 44.4564 29.0487 44.457 28.3368 44.4571C27.818 44.4572 27.2993 44.4579 26.7805 44.4586C25.3863 44.4605 23.992 44.4613 22.5977 44.4611C22.5185 44.4611 22.4393 44.4611 22.3577 44.4611C22.2784 44.4611 22.1991 44.4611 22.1174 44.4611C20.8316 44.461 19.5457 44.4631 18.2598 44.4663C16.9403 44.4695 15.6207 44.471 14.3012 44.4708C13.56 44.4707 12.8189 44.4714 12.0777 44.4737C11.3811 44.4759 10.6845 44.4759 9.98779 44.4743C9.73157 44.4741 9.47535 44.4746 9.21914 44.4759C8.87042 44.4776 8.52181 44.4766 8.17309 44.4749C8.07077 44.4761 7.96844 44.4772 7.86301 44.4784C7.18235 44.4709 7.18235 44.4709 6.89517 44.2151C6.75429 43.8896 6.74629 43.6574 6.79107 43.3066C6.92515 43.1212 6.92515 43.1212 7.12506 42.9726C7.3878 42.9347 7.3878 42.9347 7.69344 42.94C7.80287 42.9411 7.91229 42.9421 8.02503 42.9432C8.13905 42.946 8.25307 42.9488 8.37054 42.9517C8.48585 42.9532 8.60116 42.9547 8.71996 42.9563C9.00479 42.9602 9.28951 42.9657 9.57428 42.9726C9.57353 42.8662 9.57279 42.7598 9.57203 42.6502C9.56526 41.6476 9.56025 40.6451 9.55697 39.6426C9.55523 39.1272 9.55286 38.6118 9.54908 38.0964C9.54545 37.599 9.54346 37.1017 9.54259 36.6043C9.54197 36.4145 9.54077 36.2248 9.53896 36.035C9.53654 35.7692 9.53621 35.5035 9.53636 35.2378C9.53516 35.1592 9.53396 35.0807 9.53272 34.9997C9.53482 34.6667 9.56031 34.4278 9.71222 34.1289C9.95987 33.9092 10.0826 33.8987 10.411 33.8974C10.5631 33.8953 10.5631 33.8953 10.7183 33.8931C10.8276 33.894 10.9368 33.8949 11.0494 33.8959C11.1618 33.8954 11.2742 33.895 11.39 33.8946C11.6277 33.8943 11.8654 33.8951 12.1031 33.897C12.4674 33.8993 12.8316 33.897 13.1959 33.8941C13.4267 33.8944 13.6575 33.895 13.8882 33.8959C13.9975 33.895 14.1067 33.8941 14.2193 33.8931C14.3207 33.8945 14.4221 33.8959 14.5266 33.8974C14.6159 33.8977 14.7051 33.8981 14.797 33.8985C15.0294 33.955 15.0294 33.955 15.2254 34.1289C15.4129 34.4979 15.4074 34.8336 15.4013 35.2378C15.4013 35.3633 15.4013 35.3633 15.4014 35.4914C15.4012 35.7673 15.3986 36.0431 15.396 36.319C15.3953 36.5106 15.3949 36.7021 15.3945 36.8937C15.3932 37.3974 15.39 37.901 15.3863 38.4047C15.3829 38.9188 15.3813 39.433 15.3796 39.9472C15.3761 40.9557 15.3702 41.9641 15.3633 42.9726C16.0981 42.9726 16.8329 42.9726 17.5899 42.9726C17.5888 42.7185 17.5888 42.7185 17.5877 42.4592C17.5809 40.8652 17.5759 39.2713 17.5726 37.6773C17.5709 36.8577 17.5685 36.0382 17.5647 35.2186C17.5614 34.5044 17.5592 33.7902 17.5585 33.076C17.558 32.6977 17.557 32.3195 17.5546 31.9412C17.5522 31.5192 17.5518 31.0973 17.552 30.6753C17.5508 30.5495 17.5496 30.4237 17.5483 30.294C17.5488 30.1793 17.5493 30.0646 17.5497 29.9464C17.5494 29.8465 17.5491 29.7467 17.5488 29.6438C17.6322 29.1301 17.9328 29.0149 18.4146 29.0116ZM19.1485 30.5038C19.1485 34.6185 19.1485 38.7332 19.1485 42.9726C20.0302 42.9726 20.9119 42.9726 21.8204 42.9726C21.8204 38.8579 21.8204 34.7432 21.8204 30.5038C20.9387 30.5038 20.0569 30.5038 19.1485 30.5038ZM27.1641 32.9531C27.1641 36.2595 27.1641 39.566 27.1641 42.9726C28.0458 42.9726 28.9276 42.9726 29.836 42.9726C29.836 39.6661 29.836 36.3597 29.836 32.9531C28.9543 32.9531 28.0726 32.9531 27.1641 32.9531ZM11.1329 35.4023C11.1329 37.9005 11.1329 40.3987 11.1329 42.9726C12.0146 42.9726 12.8963 42.9726 13.8047 42.9726C13.8047 40.4744 13.8047 37.9762 13.8047 35.4023C12.923 35.4023 12.0413 35.4023 11.1329 35.4023Z" fill="#001B6A"/>
<path d="M45.7419 11.286C47.5827 12.8896 48.6103 14.9131 48.7843 17.3499C48.8216 19.4594 48.1884 21.2838 46.8691 22.9337C46.7865 23.0485 46.7038 23.1633 46.6187 23.2816C45.1524 24.8144 43.1421 25.7261 41.0314 25.8508C38.5559 25.8834 36.5051 25.109 34.7065 23.3998C33.8637 22.5262 33.2772 21.5022 32.8418 20.3731C32.7882 20.2345 32.7882 20.2345 32.7335 20.0931C32.1142 18.1226 32.4065 15.825 33.2662 13.9857C33.5841 13.3885 33.9667 12.8742 34.4004 12.3575C34.4808 12.2473 34.5611 12.1371 34.6439 12.0235C37.3774 8.83 42.5823 8.7956 45.7419 11.286ZM36.4043 12.5801C36.2895 12.6628 36.1747 12.7455 36.0564 12.8306C34.7228 14.1062 34.0482 15.7556 33.9529 17.5786C33.9303 19.3673 34.5995 20.9774 35.8349 22.2669C37.1492 23.5839 38.6991 24.2784 40.5582 24.3044C42.4472 24.2945 44.0677 23.5907 45.4219 22.2657C46.661 20.8193 47.2854 19.2229 47.2344 17.309C47.0834 15.4426 46.2502 13.9189 44.9209 12.6219C44.4946 12.2658 44.0222 12.0165 43.5293 11.7661C43.4553 11.7284 43.3813 11.6908 43.3051 11.6521C40.9881 10.5271 38.3891 11.0271 36.4043 12.5801Z" fill="#001B6A"/>
<path d="M44.3087 14.6953C44.5244 14.8136 44.5244 14.8136 44.6426 15.0293C44.6883 15.3886 44.718 15.6767 44.5331 16.0002C44.3761 16.1985 44.2107 16.3829 44.0373 16.567C43.9764 16.6347 43.9155 16.7024 43.8528 16.7722C43.6724 16.9721 43.4898 17.1697 43.3067 17.3671C43.1325 17.5594 42.9585 17.7519 42.7849 17.9447C42.7055 18.0321 42.6261 18.1195 42.5444 18.2095C42.1981 18.601 41.8707 19.007 41.5415 19.4128C40.507 20.6791 40.507 20.6791 39.9986 20.7479C39.5183 20.6942 39.2569 20.4682 38.9023 20.1643C38.7661 20.0521 38.6298 19.9401 38.4935 19.8281C38.4245 19.7708 38.3556 19.7134 38.2845 19.6543C37.8899 19.3316 37.4804 19.0279 37.0723 18.7225C36.6391 18.3933 36.6391 18.3933 36.5157 18.1464C36.4739 17.8264 36.4739 17.8264 36.5157 17.4785C36.7523 17.2071 36.7523 17.2071 37.0723 17.0332C37.713 17.0487 38.0643 17.3494 38.5335 17.7429C38.6683 17.8528 38.8031 17.9627 38.9379 18.0725C39.0003 18.124 39.0626 18.1755 39.1268 18.2285C39.3281 18.393 39.5344 18.5497 39.7442 18.7031C40.2317 18.5271 40.504 18.144 40.8227 17.7568C40.9417 17.6148 41.0609 17.4729 41.1802 17.3311C41.2387 17.2613 41.2972 17.1915 41.3575 17.1195C41.5859 16.8507 41.8229 16.5904 42.0612 16.3304C42.4498 15.9037 42.8055 15.4606 43.1497 14.9975C43.4723 14.6052 43.8278 14.6615 44.3087 14.6953Z" fill="#001B6A"/>
<path d="M13.0452 14.0953C13.1666 14.0945 13.1666 14.0945 13.2905 14.0936C13.5582 14.0921 13.8258 14.0931 14.0935 14.0942C14.2794 14.094 14.4653 14.0937 14.6512 14.0932C15.0409 14.0927 15.4306 14.0935 15.8203 14.095C16.3201 14.0969 16.8198 14.0958 17.3196 14.0938C17.7036 14.0926 18.0875 14.093 18.4714 14.0939C18.6557 14.0941 18.84 14.0938 19.0243 14.093C19.2818 14.0922 19.5392 14.0935 19.7966 14.0953C19.9432 14.0956 20.0898 14.0959 20.2408 14.0961C20.5957 14.1386 20.5957 14.1386 20.81 14.2839C21.013 14.6039 20.9689 14.8856 20.9297 15.2518C20.8107 15.4403 20.8107 15.4403 20.5957 15.5858C20.3169 15.6199 20.0654 15.6338 19.7864 15.6326C19.7044 15.6335 19.6223 15.6345 19.5378 15.6354C19.2665 15.638 18.9953 15.6381 18.724 15.638C18.5356 15.6388 18.3472 15.6397 18.1588 15.6406C17.7638 15.6421 17.3689 15.6422 16.974 15.6416C16.4674 15.6409 15.961 15.6443 15.4544 15.6488C15.0653 15.6517 14.6763 15.652 14.2872 15.6516C14.1004 15.6518 13.9136 15.6529 13.7268 15.6549C13.4658 15.6573 13.2051 15.6563 12.9441 15.6543C12.8667 15.6558 12.7893 15.6573 12.7096 15.6588C12.4939 15.655 12.4939 15.655 12.1348 15.5858C11.8836 15.2819 11.7959 15.1321 11.8147 14.7369C12.0515 14.0941 12.3941 14.0965 13.0452 14.0953Z" fill="#001B6A"/>
<path d="M13.0141 10.7575C13.2125 10.7564 13.2125 10.7564 13.4149 10.7554C13.5573 10.7564 13.6997 10.7574 13.8464 10.7585C14.0663 10.7584 14.0663 10.7584 14.2906 10.7583C14.6006 10.7583 14.9105 10.7595 15.2204 10.7615C15.6172 10.764 16.014 10.7641 16.4108 10.7633C16.7899 10.7629 17.169 10.7642 17.5481 10.7654C17.6905 10.7653 17.8329 10.7652 17.9797 10.7651C18.1119 10.7662 18.2442 10.7673 18.3804 10.7683C18.5549 10.7691 18.5549 10.7691 18.733 10.7699C19.0416 10.7993 19.2244 10.8528 19.4824 11.0216C19.6522 11.3611 19.62 11.6497 19.5938 12.0235C19.4672 12.2124 19.4672 12.2124 19.2598 12.3575C18.9563 12.4014 18.9563 12.4014 18.5851 12.4043C18.3766 12.4069 18.3766 12.4069 18.164 12.4096C18.0122 12.4098 17.8604 12.4098 17.7086 12.4097C17.5529 12.4105 17.3972 12.4113 17.2415 12.4123C16.9151 12.4138 16.5888 12.4139 16.2625 12.4133C15.8445 12.4126 15.4267 12.416 15.0088 12.4205C14.6872 12.4234 14.3656 12.4237 14.0441 12.4233C13.89 12.4235 13.7359 12.4246 13.5819 12.4266C13.3663 12.429 13.1507 12.4276 12.9352 12.426C12.8126 12.4262 12.69 12.4265 12.5637 12.4267C12.2461 12.3575 12.2461 12.3575 11.9804 12.0967C11.8008 11.8009 11.8008 11.8009 11.8008 11.453C12.0156 10.8353 12.3995 10.7571 13.0141 10.7575Z" fill="#001B6A"/>
</svg>
