<svg width="56" height="57" viewBox="0 0 56 57" fill="none" xmlns="http://www.w3.org/2000/svg">
<path d="M26.5055 22.3505C26.6005 22.3494 26.6956 22.3484 26.7935 22.3472C29.6976 22.3209 32.4235 22.5146 35.2188 23.379C35.3557 23.4199 35.4926 23.4608 35.6336 23.503C40.1796 24.9461 44.308 27.9372 47.25 31.7286C47.3354 31.8347 47.4209 31.9407 47.5089 32.05C50.0477 35.274 51.5478 39.1617 52.2813 43.1954C52.3216 43.4081 52.3216 43.4081 52.3629 43.6251C52.5107 44.5424 52.5283 45.461 52.541 46.3891C52.5439 46.517 52.5467 46.6448 52.5497 46.7765C52.5499 46.8971 52.5502 47.0177 52.5504 47.1419C52.5513 47.2502 52.5522 47.3585 52.5531 47.4701C52.4847 47.8434 52.351 47.9718 52.0625 48.2052C51.7104 48.3246 51.4589 48.3302 51.0887 48.3299C50.9539 48.3301 50.8191 48.3302 50.6802 48.3304C50.5305 48.33 50.3809 48.3296 50.2312 48.3292C50.0739 48.3291 49.9165 48.3291 49.7591 48.3292C49.3316 48.3292 48.9041 48.3286 48.4766 48.3278C48.0299 48.3271 47.5832 48.327 47.1365 48.3269C46.2905 48.3266 45.4445 48.3256 44.5985 48.3245C43.6355 48.3233 42.6724 48.3227 41.7093 48.3221C39.7281 48.321 37.7469 48.319 35.7656 48.3165C35.7491 48.4575 35.7327 48.5986 35.7157 48.7439C35.5615 50.0629 34.7977 51.1916 33.8106 52.0321C32.3071 53.1711 30.6085 53.5402 28.752 53.278C27.1202 52.9224 25.7792 52.0477 24.8281 50.6544C24.5027 50.0693 24.2911 49.5113 24.165 48.8521C24.1457 48.7518 24.1264 48.6515 24.1065 48.5482C24.092 48.4717 24.0775 48.3953 24.0625 48.3165C23.9104 48.317 23.9104 48.317 23.7552 48.3174C21.2878 48.3249 18.8204 48.3303 16.3529 48.3338C15.1597 48.3355 13.9665 48.3379 12.7733 48.3417C11.7333 48.345 10.6934 48.3472 9.65339 48.3479C9.10269 48.3484 8.55201 48.3494 8.00132 48.3518C7.48297 48.3541 6.96463 48.3548 6.44628 48.3543C6.25607 48.3544 6.06586 48.355 5.87565 48.3563C5.61578 48.358 5.35599 48.3576 5.09612 48.3567C5.021 48.3576 4.94588 48.3586 4.86849 48.3596C4.37159 48.3549 4.03041 48.2503 3.60938 47.9825C3.28516 47.3915 3.37397 46.7041 3.40431 46.0482C3.40978 45.9256 3.41525 45.803 3.42089 45.6767C3.65789 41.2879 5.10688 36.8546 7.65626 33.2872C7.73225 33.1796 7.80825 33.072 7.88654 32.9611C9.4606 30.7776 11.2918 28.7552 13.4531 27.1642C13.5479 27.0931 13.6426 27.0221 13.7402 26.9489C17.4081 24.2626 21.9422 22.394 26.5055 22.3505ZM18.375 26.3849C18.3001 26.4194 18.2252 26.4539 18.1481 26.4895C16.5177 27.2469 15.0564 28.262 13.6582 29.3977C13.5824 29.4587 13.5065 29.5197 13.4284 29.5826C13.2476 29.7333 13.0759 29.8952 12.9063 30.0587C12.8718 30.3927 12.8718 30.3927 13.0669 30.5941C13.1402 30.667 13.2135 30.7399 13.2891 30.8149C13.368 30.8942 13.447 30.9735 13.5283 31.0552C13.6118 31.1374 13.6953 31.2195 13.7813 31.3042C13.9065 31.4294 13.9065 31.4294 14.0342 31.5571C14.2408 31.7635 14.4482 31.969 14.6563 32.1739C14.9517 32.0322 15.2049 31.8777 15.4616 31.6725C15.5307 31.6181 15.5997 31.5637 15.6709 31.5076C15.7444 31.4497 15.8179 31.3917 15.8936 31.332C19.2176 28.7634 22.9986 27.5216 27.125 27.1642C27.125 26.209 27.125 25.2538 27.125 24.2696C24.0653 24.2696 21.1403 25.0817 18.375 26.3849ZM28.875 24.2696C28.875 25.2248 28.875 26.18 28.875 27.1642C29.5112 27.2296 29.5112 27.2296 30.1602 27.2964C34.3123 27.7681 37.9176 29.4809 41.125 32.1739C41.4698 32.0188 41.7005 31.8372 41.9641 31.5642C42.0367 31.4896 42.1093 31.415 42.1841 31.3381C42.2587 31.2603 42.3333 31.1825 42.4102 31.1024C42.4864 31.0238 42.5627 30.9451 42.6413 30.8641C42.8291 30.6703 43.0163 30.4761 43.2031 30.2814C42.8424 29.771 42.4194 29.4183 41.9316 29.0428C41.8501 28.9799 41.7685 28.9169 41.6845 28.8521C38.0162 26.068 33.477 24.2696 28.875 24.2696ZM15.4219 34.0665C15.3064 34.1698 15.3064 34.1698 15.1886 34.2753C12.2115 37.1153 10.5162 41.4651 10.0625 45.5333C10.0625 45.8272 10.0625 46.1211 10.0625 46.4239C14.5742 46.4239 19.0859 46.4239 23.7344 46.4239C23.5448 45.0735 23.3557 43.7265 23.1356 42.3814C23.0693 41.9751 23.0033 41.5688 22.9377 41.1624C22.7961 40.2858 22.654 39.4092 22.5112 38.5327C22.4231 37.9916 22.3355 37.4504 22.2484 36.9092C22.2153 36.7047 22.1821 36.5003 22.1486 36.2959C22.1019 36.0114 22.0561 35.7267 22.0104 35.4421C21.9966 35.359 21.9828 35.276 21.9685 35.1904C21.8436 34.4025 21.7572 33.7533 22.2031 33.0646C22.5988 32.7092 22.9683 32.6892 23.4742 32.6753C24.1922 32.8278 24.7196 33.4807 25.2143 33.9908C25.2941 34.0721 25.3738 34.1534 25.456 34.2372C25.7186 34.5053 25.9805 34.774 26.2423 35.0428C26.4256 35.2301 26.6089 35.4173 26.7923 35.6044C27.2747 36.0969 27.7565 36.5899 28.238 37.0832C29.0079 37.8716 29.7785 38.6593 30.5494 39.4465C30.8177 39.7207 31.0856 39.9953 31.3535 40.27C31.5193 40.4396 31.6852 40.6092 31.8511 40.7787C31.9615 40.8922 31.9615 40.8922 32.074 41.0079C32.4971 41.4396 32.9323 41.8496 33.3872 42.2464C34.6696 43.3863 35.4342 44.737 35.7656 46.4239C39.1223 46.4239 42.4791 46.4239 45.9375 46.4239C45.9427 45.6849 45.9427 45.6849 45.861 44.9771C45.8441 44.8792 45.8273 44.7813 45.8099 44.6805C45.7817 44.5274 45.7817 44.5274 45.7529 44.3713C45.7332 44.2636 45.7134 44.1558 45.693 44.0448C44.7944 39.3195 42.3663 35.062 38.4464 32.2946C31.2266 27.3371 21.8486 28.2519 15.4219 34.0665ZM11.1366 31.843C7.60803 35.7209 5.30638 41.1046 5.35938 46.4239C5.81283 46.4271 6.26628 46.4291 6.71974 46.4309C6.84924 46.4318 6.97874 46.4328 7.11216 46.4337C7.23518 46.4341 7.35819 46.4344 7.48493 46.4348C7.65591 46.4357 7.65591 46.4357 7.83033 46.4366C8.08843 46.4543 8.08843 46.4543 8.20313 46.3126C8.22469 46.1022 8.24547 45.8918 8.2626 45.681C8.61164 41.4594 10.1623 37.3315 12.9827 34.1744C13.2888 33.8422 13.2888 33.8422 13.3438 33.3985C13.1846 33.1865 13.1846 33.1865 12.9686 32.9763C12.8907 32.897 12.8127 32.8177 12.7324 32.736C12.6499 32.6539 12.5674 32.5717 12.4824 32.487C12.36 32.3619 12.36 32.3619 12.2351 32.2342C11.7372 31.6149 11.7372 31.6149 11.1366 31.843ZM44.4063 31.6173C43.7927 32.2418 43.1791 32.8664 42.5469 33.5099C43.049 34.2001 43.049 34.2001 43.5877 34.8419C46.1191 37.7488 47.4054 41.8476 47.7318 45.6583C47.7309 46.0759 47.7309 46.0759 47.9063 46.4239C48.109 46.4337 48.3121 46.4358 48.5151 46.4348C48.6381 46.4344 48.7611 46.4341 48.8879 46.4337C49.0174 46.4328 49.1469 46.4319 49.2803 46.4309C49.4102 46.4304 49.5401 46.4299 49.674 46.4294C49.9962 46.4281 50.3184 46.4262 50.6406 46.4239C50.6637 45.5162 50.609 44.6544 50.4629 43.759C50.4436 43.6391 50.4242 43.5191 50.4043 43.3955C49.986 40.9313 49.1718 38.6053 48.0156 36.4044C47.9628 36.3032 47.9628 36.3032 47.9088 36.2C47.203 34.8625 46.357 33.6463 45.4043 32.4801C45.3548 32.4189 45.3054 32.3578 45.2544 32.2948C44.9795 31.9659 44.796 31.8157 44.4063 31.6173ZM23.8438 35.2911C24.1523 37.6747 24.5255 40.0457 24.9083 42.4179C24.9876 42.9102 25.0657 43.4027 25.1427 43.8954C25.2369 44.4977 25.3333 45.0996 25.4311 45.7013C25.4676 45.9281 25.5034 46.1551 25.5384 46.3822C25.7913 48.0165 26.0645 49.6002 27.4531 50.6544C28.5856 51.3315 29.6456 51.6773 30.9625 51.3498C32.0613 50.9591 33.0505 50.2707 33.5892 49.1876C34.1216 47.9966 34.1928 46.8591 33.7379 45.6146C33.3046 44.7904 32.6727 44.1343 32.0258 43.4809C31.9384 43.3917 31.851 43.3026 31.761 43.2107C31.4744 42.9186 31.1871 42.6274 30.8997 42.3361C30.6998 42.1327 30.4999 41.9293 30.3001 41.7259C29.8826 41.3011 29.4647 40.8767 29.0465 40.4526C28.5626 39.9618 28.0794 39.4705 27.5964 38.9788C27.1311 38.5051 26.6655 38.0318 26.1997 37.5586C26.0016 37.3573 25.8036 37.156 25.6056 36.9545C25.3302 36.6744 25.0544 36.3946 24.7784 36.115C24.696 36.031 24.6136 35.9471 24.5286 35.8606C24.454 35.785 24.3793 35.7095 24.3024 35.6317C24.2372 35.5655 24.172 35.4994 24.1048 35.4312C23.9738 35.2787 23.9738 35.2787 23.8438 35.2911Z" fill="#001B6A"/>
<path d="M47.25 5.45513C49.282 7.16604 50.5485 9.30431 50.9341 11.9844C51.1889 14.7311 50.5536 17.2571 48.8564 19.4477C47.2077 21.4173 44.9715 22.6764 42.4375 22.9336C39.8768 23.1265 37.3664 22.4232 35.3794 20.7271C33.385 18.9348 32.207 16.7277 31.958 13.9996C31.8325 11.3559 32.6394 8.65358 34.377 6.65854C37.6141 3.11733 43.4299 2.56745 47.25 5.45513ZM35.6255 8.19963C34.272 9.94696 33.6261 11.9601 33.8652 14.1805C34.1537 16.0777 34.8828 17.5541 36.2031 18.9258C36.2678 18.9957 36.3325 19.0656 36.3992 19.1376C37.7725 20.4984 39.8071 21.0411 41.6718 21.0411C43.7837 20.8997 45.7418 20.1314 47.2092 18.5438C48.5825 16.9466 49.1803 14.8983 49.1427 12.7976C48.9706 10.5248 47.9417 8.66351 46.2788 7.17768C43.0722 4.56568 38.3184 5.0127 35.6255 8.19963Z" fill="#001B6A"/>
<path d="M20.4745 5.61163C22.6133 7.33787 23.6976 9.74748 24.0133 12.4709C24.2507 14.9596 23.4944 17.341 22.0036 19.3063C20.3424 21.3129 18.126 22.636 15.5312 22.9336C12.7387 23.1115 10.2438 22.3539 8.11142 20.485C6.37133 18.8936 5.1657 16.5362 5.01758 14.1407C4.91853 11.4697 5.5542 8.79586 7.35544 6.77014C8.83212 5.17891 10.4801 4.23194 12.5781 3.78515C12.6764 3.76391 12.7746 3.74267 12.8759 3.72079C15.588 3.36544 18.2793 3.90165 20.4745 5.61163ZM8.72861 8.10999C7.32746 9.81089 6.73636 11.8338 6.8906 14.0273C7.1731 16.1226 8.02922 17.9533 9.61685 19.3393C11.4173 20.7016 13.5247 21.2427 15.7527 20.9415C17.7863 20.6157 19.559 19.4986 20.7812 17.8125C21.881 16.2442 22.358 14.1992 22.1595 12.2891C21.7676 10.0432 20.6785 8.12059 18.8279 6.78753C15.4676 4.64351 11.4624 5.19461 8.72861 8.10999Z" fill="#001B6A"/>
<path d="M31.5 44.42C32.1857 44.881 32.5562 45.5301 32.8125 46.3126C32.9029 47.4867 32.7763 48.2662 32.1357 49.235C31.4838 49.8838 30.7536 50.2183 29.8457 50.2439C28.9625 50.2307 28.2849 49.9681 27.6308 49.3602C26.9468 48.5963 26.7145 47.7776 26.7558 46.7527C26.8665 45.8653 27.2138 45.2112 27.862 44.6088C28.9872 43.7503 30.2857 43.7585 31.5 44.42ZM28.7861 46.3891C28.5951 46.7678 28.5831 47.1259 28.6562 47.5372C28.8826 47.9158 29.1052 48.1961 29.5312 48.3165C30.0961 48.3165 30.3009 48.2968 30.7343 47.9199C30.9929 47.4676 31.0807 47.1572 30.9531 46.6466C30.7595 46.3112 30.5348 46.0441 30.1875 45.8673C29.567 45.8112 29.2362 45.9626 28.7861 46.3891Z" fill="#001B6A"/>
<path d="M45.3817 16.0786C45.7728 16.3991 45.9214 16.5548 45.9785 17.0679C45.9375 17.4784 45.9375 17.4784 45.7119 17.8054C45.3067 18.095 45.1128 18.0842 44.625 18.0351C44.3131 17.8559 44.3131 17.8559 44.0098 17.6176C43.1835 17.0224 42.159 16.5488 41.125 16.6991C40.1574 16.915 39.4103 17.289 38.6064 17.8559C38.2399 18.0579 38.0354 18.0852 37.625 18.0351C37.2513 17.8153 37.1085 17.6804 36.9688 17.2627C36.9688 16.7734 37.1228 16.5497 37.4511 16.2016C39.6637 14.1146 43.073 14.3317 45.3817 16.0786Z" fill="#001B6A"/>
<path d="M11.4844 14.8065C11.6789 14.9242 11.8701 15.0478 12.0586 15.1753C13.047 15.8423 14.006 16.2059 15.2031 16.0311C15.9686 15.8203 16.6143 15.497 17.2676 15.0431C17.863 14.6367 17.863 14.6367 18.2656 14.6813C18.5898 14.805 18.7128 14.8708 18.9219 15.1405C18.9973 15.4821 18.9834 15.7989 18.9219 16.1425C18.71 16.4417 18.71 16.4417 18.375 16.6991C18.2771 16.7794 18.2771 16.7794 18.1772 16.8613C17.4439 17.4186 16.6174 17.6657 15.75 17.9237C15.6763 17.9465 15.6025 17.9694 15.5266 17.9929C13.8224 18.3287 12.1476 17.7227 10.7188 16.8104C10.3169 16.4856 10.0897 16.2077 10.0078 15.6763C10.0786 15.2712 10.1414 15.0286 10.4658 14.7717C10.8389 14.6588 11.123 14.6769 11.4844 14.8065Z" fill="#001B6A"/>
<path d="M45.5 9.24021C45.8704 9.51297 46.0236 9.67038 46.1084 10.1308C46.0304 10.5544 45.9248 10.7333 45.6094 11.0215C45.1593 11.163 44.95 11.1892 44.5293 10.9658C44.2274 10.6043 44.1875 10.3799 44.1875 9.90818C44.4877 9.23881 44.7928 9.16701 45.5 9.24021Z" fill="#001B6A"/>
<path d="M10.8896 9.17773C11.2656 9.24036 11.2656 9.24036 11.5254 9.42126C11.7452 9.74832 11.8045 9.95727 11.8125 10.3536C11.637 10.7465 11.5126 10.8911 11.1562 11.1329C10.6985 11.1245 10.4684 11.0927 10.124 10.7781C9.91889 10.4023 9.87518 10.22 9.95309 9.797C10.2417 9.38752 10.3972 9.25687 10.8896 9.17773Z" fill="#001B6A"/>
<path d="M38.1718 9.24012C38.4931 9.46974 38.4931 9.46974 38.7187 9.79676C38.7878 10.2419 38.793 10.4656 38.541 10.8405C38.2197 11.0642 38.0144 11.1246 37.625 11.1327C37.1256 10.8955 37.1256 10.8955 36.9687 10.5761C36.9062 9.78722 36.9062 9.78722 37.1396 9.40711C37.5146 9.1722 37.7389 9.17055 38.1718 9.24012Z" fill="#001B6A"/>
<path d="M18.5937 9.24019C18.8603 9.40718 18.8603 9.40718 19.0312 9.6855C19.1059 10.1072 19.0834 10.4543 18.915 10.8475C18.5956 11.1097 18.3428 11.1257 17.9375 11.1328C17.6151 10.983 17.4406 10.9006 17.2812 10.5761C17.2276 10.0937 17.229 9.87253 17.5068 9.4698C17.9091 9.18229 18.1116 9.15989 18.5937 9.24019Z" fill="#001B6A"/>
</svg>
