<svg width="484" height="812" viewBox="0 0 484 812" fill="none" xmlns="http://www.w3.org/2000/svg">
<path d="M484.852 823.793L484.852 645.33L465.618 626.079L465.618 591.912" stroke="#333F4D" stroke-miterlimit="10"/>
<path d="M459.896 669.264L459.896 694.412L449.499 704.644L449.499 840.096" stroke="#333F4D" stroke-miterlimit="10"/>
<path d="M391.969 661.809L391.969 677.938L416.922 703.086L416.922 838.364" stroke="#333F4D" stroke-miterlimit="10"/>
<path d="M391.969 830.729L391.969 703.949" stroke="#333F4D" stroke-miterlimit="10"/>
<path d="M371.009 834.894L371.009 684.527" stroke="#333F4D" stroke-miterlimit="10"/>
<path d="M207.256 557.573C207.256 562.429 203.27 566.245 198.592 566.245C193.74 566.245 189.927 562.256 189.927 557.573C189.927 552.89 193.913 548.901 198.592 548.901C203.27 548.728 207.256 552.717 207.256 557.573Z" fill="#333F4D" stroke="#333F4D" stroke-miterlimit="10"/>
<path d="M281.246 631.457C281.246 636.313 277.261 640.128 272.582 640.128C267.73 640.128 263.918 636.139 263.918 631.457C263.918 626.774 267.903 622.785 272.582 622.785C277.261 622.785 281.246 626.6 281.246 631.457Z" fill="#333F4D" stroke="#333F4D" stroke-miterlimit="10"/>
<path d="M468.564 660.592C468.564 665.449 464.578 669.264 459.899 669.264C455.047 669.264 451.235 665.275 451.235 660.592C451.235 655.736 455.221 651.921 459.899 651.921C464.751 651.747 468.564 655.736 468.564 660.592Z" stroke="#333F4D" stroke-miterlimit="10"/>
<path d="M391.97 661.808C396.755 661.808 400.634 657.925 400.634 653.136C400.634 648.347 396.755 644.465 391.97 644.465C387.185 644.465 383.305 648.347 383.305 653.136C383.305 657.925 387.185 661.808 391.97 661.808Z" stroke="#333F4D" stroke-miterlimit="10"/>
<path d="M124.943 720.945C124.943 725.802 120.958 729.617 116.279 729.617C111.427 729.617 107.615 725.628 107.615 720.945C107.615 716.089 111.601 712.274 116.279 712.274C121.131 712.1 124.943 716.089 124.943 720.945Z" stroke="#333F4D" stroke-miterlimit="10"/>
<path d="M437.203 677.067C437.203 681.923 433.218 685.739 428.539 685.739C423.687 685.739 419.875 681.75 419.875 677.067C419.875 672.384 423.861 668.395 428.539 668.395C433.218 668.395 437.203 672.211 437.203 677.067Z" stroke="#333F4D" stroke-miterlimit="10"/>
<path d="M437.198 641.863C437.198 646.719 433.213 650.535 428.534 650.535C423.682 650.535 419.87 646.546 419.87 641.863C419.87 637.007 423.855 633.192 428.534 633.192C433.213 633.192 437.198 637.007 437.198 641.863Z" fill="#333F4D" stroke="#333F4D" stroke-miterlimit="10"/>
<path d="M361.992 698.227C361.992 703.083 358.007 706.898 353.328 706.898C348.476 706.898 344.664 702.909 344.664 698.227C344.664 693.371 348.649 689.555 353.328 689.555C358.007 689.382 361.992 693.371 361.992 698.227Z" stroke="#333F4D" stroke-miterlimit="10"/>
<path d="M204.824 663.369C204.824 668.225 200.839 672.04 196.16 672.04C191.308 672.04 187.496 668.051 187.496 663.369C187.496 658.512 191.482 654.697 196.16 654.697C201.012 654.523 204.824 658.512 204.824 663.369Z" stroke="#333F4D" stroke-miterlimit="10"/>
<path d="M353.329 507.106C353.329 511.962 349.344 515.778 344.665 515.778C339.813 515.778 336.001 511.789 336.001 507.106C336.001 502.25 339.986 498.434 344.665 498.434C349.344 498.261 353.329 502.25 353.329 507.106Z" stroke="#333F4D" stroke-miterlimit="10"/>
<path d="M474.459 583.24C474.459 588.096 470.474 591.912 465.795 591.912C461.116 591.912 457.131 587.923 457.131 583.24C457.131 578.384 461.116 574.569 465.795 574.569C470.474 574.569 474.459 578.384 474.459 583.24Z" stroke="#333F4D" stroke-miterlimit="10"/>
<path d="M396.304 531.384C396.304 533.812 394.397 535.72 391.972 535.72C389.546 535.72 387.639 533.812 387.639 531.384C387.639 528.956 389.546 527.048 391.972 527.048C394.397 527.048 396.304 528.956 396.304 531.384Z" stroke="#333F4D" stroke-miterlimit="10"/>
<path d="M68.7951 681.403C68.7951 683.831 66.8889 685.739 64.463 685.739C62.037 685.739 60.1309 683.831 60.1309 681.403C60.1309 678.975 62.037 677.067 64.463 677.067C66.8889 677.067 68.7951 678.975 68.7951 681.403Z" stroke="#333F4D" stroke-miterlimit="10"/>
<path d="M155.612 567.982C155.612 570.41 153.706 572.317 151.28 572.317C148.854 572.317 146.948 570.41 146.948 567.982C146.948 565.554 148.854 563.646 151.28 563.646C153.706 563.646 155.612 565.554 155.612 567.982Z" stroke="#333F4D" stroke-miterlimit="10"/>
<path d="M428.359 385.876C428.359 388.304 426.453 390.212 424.027 390.212C421.601 390.212 419.695 388.304 419.695 385.876C419.695 383.448 421.601 381.54 424.027 381.54C426.453 381.54 428.359 383.448 428.359 385.876Z" stroke="#333F4D" stroke-miterlimit="10"/>
<path d="M375.339 680.191C375.339 682.619 373.433 684.527 371.007 684.527C368.581 684.527 366.675 682.619 366.675 680.191C366.675 677.763 368.581 675.855 371.007 675.855C373.433 675.855 375.339 677.763 375.339 680.191Z" stroke="#333F4D" stroke-miterlimit="10"/>
<path d="M313.646 693.72C313.646 696.148 311.74 698.055 309.314 698.055C306.888 698.055 304.982 696.148 304.982 693.72C304.982 691.292 306.888 689.384 309.314 689.384C311.74 689.384 313.646 691.292 313.646 693.72Z" stroke="#333F4D" stroke-miterlimit="10"/>
<path d="M256.287 706.9C256.287 709.328 254.381 711.236 251.955 711.236C249.529 711.236 247.623 709.328 247.623 706.9C247.623 704.472 249.529 702.564 251.955 702.564C254.381 702.564 256.287 704.472 256.287 706.9Z" stroke="#333F4D" stroke-miterlimit="10"/>
<path d="M139.151 751.992C139.151 754.42 137.245 756.328 134.819 756.328C132.393 756.328 130.487 754.42 130.487 751.992C130.487 749.564 132.393 747.656 134.819 747.656C137.245 747.656 139.151 749.564 139.151 751.992Z" stroke="#333F4D" stroke-miterlimit="10"/>
<path d="M90.2852 747.657C90.2852 750.085 88.3791 751.993 85.9531 751.993C83.5271 751.993 81.621 750.085 81.621 747.657C81.621 745.229 83.5271 743.321 85.9531 743.321C88.3791 743.148 90.2852 745.229 90.2852 747.657Z" stroke="#333F4D" stroke-miterlimit="10"/>
<path d="M27.7314 761.703C27.7314 764.131 25.8252 766.039 23.3992 766.039C20.9733 766.039 19.0671 764.131 19.0671 761.703C19.0671 759.275 20.9733 757.367 23.3992 757.367C25.8252 757.367 27.7313 759.449 27.7314 761.703Z" stroke="#333F4D" stroke-miterlimit="10"/>
<path d="M27.7314 747.657C27.7314 750.085 25.8252 751.993 23.3992 751.993C20.9733 751.993 19.0671 750.085 19.0671 747.657C19.0671 745.229 20.9733 743.321 23.3992 743.321C25.8252 743.148 27.7313 745.229 27.7314 747.657Z" stroke="#333F4D" stroke-miterlimit="10"/>
<path d="M9.53396 777.835C9.53396 780.263 7.62784 782.171 5.20186 782.171C2.77588 782.171 0.869752 780.263 0.869751 777.835C0.869751 775.407 2.77588 773.5 5.20186 773.5C7.62784 773.5 9.53396 775.407 9.53396 777.835Z" stroke="#333F4D" stroke-miterlimit="10"/>
<path d="M283.322 735.863C283.322 738.291 281.416 740.199 278.99 740.199C276.564 740.199 274.658 738.291 274.658 735.863C274.658 733.435 276.564 731.527 278.99 731.527C281.243 731.527 283.322 733.435 283.322 735.863Z" stroke="#333F4D" stroke-miterlimit="10"/>
<path d="M292.333 660.592C294.725 660.592 296.665 658.65 296.665 656.256C296.665 653.861 294.725 651.92 292.333 651.92C289.94 651.92 288.001 653.861 288.001 656.256C288.001 658.65 289.94 660.592 292.333 660.592Z" stroke="#333F4D" stroke-miterlimit="10"/>
<path d="M181.952 695.973C181.952 698.401 180.046 700.309 177.62 700.309C175.194 700.309 173.288 698.401 173.288 695.973C173.288 693.545 175.194 691.637 177.62 691.637C180.046 691.637 181.952 693.545 181.952 695.973Z" stroke="#333F4D" stroke-miterlimit="10"/>
<path d="M329.065 728.753C329.065 731.181 327.159 733.089 324.733 733.089C322.307 733.089 320.401 731.181 320.401 728.753C320.401 726.325 322.307 724.417 324.733 724.417C327.159 724.417 329.065 726.325 329.065 728.753Z" stroke="#333F4D" stroke-miterlimit="10"/>
<path d="M197.371 731.527C197.371 733.955 195.465 735.863 193.039 735.863C190.613 735.863 188.707 733.955 188.707 731.527C188.707 729.099 190.613 727.191 193.039 727.191C195.465 727.191 197.371 729.099 197.371 731.527Z" fill="#333F4D" stroke="#333F4D" stroke-miterlimit="10"/>
<path d="M41.414 725.283C41.414 727.711 39.5078 729.619 37.0819 729.619C34.6559 729.619 32.7498 727.711 32.7498 725.283C32.7498 722.855 34.6559 720.947 37.0819 720.947C39.5078 720.947 41.414 722.855 41.414 725.283Z" fill="#333F4D" stroke="#333F4D" stroke-miterlimit="10"/>
<path d="M80.2353 779.57C80.2353 781.998 78.3291 783.906 75.9032 783.906C73.4772 783.906 71.571 781.998 71.571 779.57C71.571 777.142 73.4772 775.234 75.9032 775.234C78.1558 775.234 80.2353 777.142 80.2353 779.57Z" fill="#333F4D" stroke="#333F4D" stroke-miterlimit="10"/>
<path d="M197.372 745.228C197.372 747.656 195.466 749.564 193.04 749.564C190.614 749.564 188.708 747.656 188.708 745.228C188.708 742.8 190.614 740.892 193.04 740.892C195.466 740.892 197.372 742.8 197.372 745.228Z" stroke="#333F4D" stroke-miterlimit="10"/>
<path d="M197.371 759.102C197.371 761.53 195.465 763.438 193.039 763.438C190.613 763.438 188.707 761.53 188.707 759.102C188.707 756.674 190.613 754.766 193.039 754.766C195.465 754.766 197.371 756.674 197.371 759.102Z" stroke="#333F4D" stroke-miterlimit="10"/>
<path d="M276.045 796.391C276.045 793.963 277.951 792.055 280.377 792.055C282.803 792.055 284.709 793.963 284.709 796.391C284.709 798.819 282.803 800.727 280.377 800.727C277.951 800.727 276.045 798.819 276.045 796.391Z" fill="#333F4D" stroke="#333F4D" stroke-miterlimit="10"/>
<path d="M276.045 782.69C276.045 780.262 277.951 778.354 280.377 778.354C282.803 778.354 284.709 780.262 284.709 782.69C284.709 785.118 282.803 787.026 280.377 787.026C277.951 787.026 276.045 785.118 276.045 782.69Z" stroke="#333F4D" stroke-miterlimit="10"/>
<path d="M276.045 768.988C276.045 766.56 277.951 764.653 280.377 764.653C282.803 764.653 284.709 766.56 284.709 768.988C284.709 771.416 282.803 773.324 280.377 773.324C277.951 773.324 276.045 771.416 276.045 768.988Z" stroke="#333F4D" stroke-miterlimit="10"/>
<path d="M432.868 614.981C432.868 617.409 430.962 619.317 428.536 619.317C426.11 619.317 424.204 617.409 424.204 614.981C424.204 612.553 426.11 610.646 428.536 610.646C430.962 610.646 432.868 612.553 432.868 614.981Z" stroke="#333F4D" stroke-miterlimit="10"/>
<path d="M427.325 719.04C429.718 719.04 431.657 717.098 431.657 714.704C431.657 712.309 429.718 710.368 427.325 710.368C424.932 710.368 422.993 712.309 422.993 714.704C422.993 717.098 424.932 719.04 427.325 719.04Z" stroke="#333F4D" stroke-miterlimit="10"/>
<path d="M427.325 738.812C429.718 738.812 431.657 736.871 431.657 734.476C431.657 732.081 429.718 730.14 427.325 730.14C424.932 730.14 422.993 732.081 422.993 734.476C422.993 736.871 424.932 738.812 427.325 738.812Z" stroke="#333F4D" stroke-miterlimit="10"/>
<path d="M431.657 767.429C431.657 769.857 429.751 771.764 427.325 771.764C424.899 771.764 422.993 769.857 422.993 767.429C422.993 765.001 424.899 763.093 427.325 763.093C429.751 763.093 431.657 765.001 431.657 767.429Z" fill="#333F4D" stroke="#333F4D" stroke-miterlimit="10"/>
<path d="M475.323 729.965C475.323 732.393 473.417 734.301 470.991 734.301C468.565 734.301 466.659 732.393 466.659 729.965C466.659 727.537 468.565 725.629 470.991 725.629C473.417 725.629 475.323 727.71 475.323 729.965Z" fill="#333F4D" stroke="#333F4D" stroke-miterlimit="10"/>
<path d="M475.323 787.026C475.323 789.454 473.417 791.362 470.991 791.362C468.565 791.362 466.659 789.454 466.659 787.026C466.659 784.598 468.565 782.69 470.991 782.69C473.417 782.69 475.323 784.598 475.323 787.026Z" stroke="#333F4D" stroke-miterlimit="10"/>
<path d="M479.133 381.54C479.133 383.968 477.227 385.876 474.801 385.876C472.375 385.876 470.469 383.968 470.469 381.54C470.469 379.112 472.375 377.204 474.801 377.204C477.227 377.204 479.133 379.112 479.133 381.54Z" stroke="#333F4D" stroke-miterlimit="10"/>
<path d="M483.467 553.24C483.467 555.668 481.561 557.575 479.135 557.575C476.709 557.575 474.802 555.668 474.802 553.24C474.802 550.811 476.709 548.904 479.135 548.904C481.561 548.73 483.467 550.811 483.467 553.24Z" stroke="#333F4D" stroke-miterlimit="10"/>
<path d="M348.824 586.365C348.824 588.793 346.918 590.7 344.492 590.7C342.066 590.7 340.16 588.793 340.16 586.365C340.16 583.937 342.066 582.029 344.492 582.029C346.918 582.029 348.824 583.937 348.824 586.365Z" stroke="#333F4D" stroke-miterlimit="10"/>
<path d="M333.575 695.973C333.575 698.401 331.669 700.309 329.243 700.309C326.817 700.309 324.911 698.401 324.911 695.973C324.911 693.545 326.817 691.637 329.243 691.637C331.669 691.637 333.575 693.545 333.575 695.973Z" stroke="#333F4D" stroke-miterlimit="10"/>
<path d="M356.622 618.276C361.407 618.276 365.286 614.393 365.286 609.604C365.286 604.815 361.407 600.932 356.622 600.932C351.837 600.932 347.958 604.815 347.958 609.604C347.958 614.393 351.837 618.276 356.622 618.276Z" stroke="#333F4D" stroke-miterlimit="10"/>
<path d="M356.624 570.06C359.016 570.06 360.956 568.118 360.956 565.724C360.956 563.329 359.016 561.388 356.624 561.388C354.231 561.388 352.292 563.329 352.292 565.724C352.292 568.118 354.231 570.06 356.624 570.06Z" fill="#333F4D" stroke="#333F4D" stroke-miterlimit="10"/>
<path d="M483.12 466.001C483.12 463.573 485.026 461.666 487.452 461.666C489.878 461.666 491.784 463.573 491.784 466.001C491.784 468.429 489.878 470.337 487.452 470.337C485.026 470.337 483.12 468.429 483.12 466.001Z" fill="#333F4D" stroke="#333F4D" stroke-miterlimit="10"/>
<path d="M470.123 363.33C470.123 360.902 472.029 358.994 474.455 358.994C476.881 358.994 478.787 360.902 478.787 363.33C478.787 365.758 476.881 367.666 474.455 367.666C472.029 367.666 470.123 365.758 470.123 363.33Z" fill="#333F4D" stroke="#333F4D" stroke-miterlimit="10"/>
<path d="M356.626 600.758L356.626 570.06" stroke="#333F4D" stroke-miterlimit="10"/>
<path d="M353.328 706.901L353.328 819.459" stroke="#333F4D" stroke-miterlimit="10"/>
<path d="M239.48 694.411C239.48 691.983 241.386 690.075 243.812 690.075C246.238 690.075 248.144 691.983 248.144 694.411C248.144 696.839 246.238 698.747 243.812 698.747C241.386 698.747 239.48 696.839 239.48 694.411Z" stroke="#333F4D" stroke-miterlimit="10"/>
<path d="M222.329 513.001C222.329 510.573 224.235 508.665 226.661 508.665C229.087 508.665 230.993 510.573 230.993 513.001C230.993 515.429 229.087 517.337 226.661 517.337C224.408 517.337 222.329 515.429 222.329 513.001Z" stroke="#333F4D" stroke-miterlimit="10"/>
<path d="M243.819 690.077L243.819 649.84L226.838 632.67L226.838 517.337" stroke="#333F4D" stroke-miterlimit="10"/>
<path d="M478.09 385.008L502.177 408.941L502.177 507.105" stroke="#333F4D" stroke-miterlimit="10"/>
<path d="M487.454 470.337L487.454 486.987L479.136 495.312L479.136 547.862" stroke="#333F4D" stroke-miterlimit="10"/>
<path d="M161.503 654.521C161.503 656.949 159.597 658.857 157.171 658.857C154.745 658.857 152.839 656.949 152.839 654.521C152.839 652.093 154.745 650.185 157.171 650.185C159.597 650.185 161.503 652.093 161.503 654.521Z" stroke="#333F4D" stroke-miterlimit="10"/>
<path d="M140.187 695.277C140.187 697.705 138.281 699.613 135.855 699.613C133.429 699.613 131.523 697.705 131.523 695.277C131.523 692.849 133.429 690.941 135.855 690.941C138.281 690.941 140.187 692.849 140.187 695.277Z" stroke="#333F4D" stroke-miterlimit="10"/>
<path d="M144.176 779.57C144.176 777.142 146.082 775.234 148.508 775.234C150.934 775.234 152.84 777.142 152.84 779.57C152.84 781.998 150.934 783.906 148.508 783.906C146.082 783.906 144.176 781.998 144.176 779.57Z" fill="#333F4D" stroke="#333F4D" stroke-miterlimit="10"/>
<path d="M131.177 677.067C131.177 674.639 133.084 672.731 135.51 672.731C137.936 672.731 139.842 674.639 139.842 677.067C139.842 679.495 137.936 681.403 135.51 681.403C133.084 681.403 131.177 679.495 131.177 677.067Z" fill="#333F4D" stroke="#333F4D" stroke-miterlimit="10"/>
<path d="M157.173 658.857L157.173 699.267L174.328 716.263L174.328 831.596" stroke="#333F4D" stroke-miterlimit="10"/>
<path d="M139.15 698.574L163.237 722.681L163.237 820.844" stroke="#333F4D" stroke-miterlimit="10"/>
<path d="M148.677 784.077L148.677 800.726L140.187 809.051L140.187 861.601" stroke="#333F4D" stroke-miterlimit="10"/>
<path d="M341.373 589.659C333.748 597.29 322.138 608.91 322.138 608.91L322.138 666.143L329.07 673.081L329.07 691.638" stroke="#333F4D" stroke-miterlimit="10"/>
<path d="M468.566 733.087L457.476 744.186L457.476 819.456" stroke="#333F4D" stroke-miterlimit="10"/>
<path d="M309.32 697.362L309.32 722.337L299.096 732.743L299.096 868.021" stroke="#333F4D" stroke-miterlimit="10"/>
<path d="M324.736 758.063C324.736 760.491 322.83 762.399 320.404 762.399C317.978 762.399 316.072 760.491 316.072 758.063C316.072 755.635 317.978 753.727 320.404 753.727C322.83 753.727 324.736 755.635 324.736 758.063Z" fill="#333F4D" stroke="#333F4D" stroke-miterlimit="10"/>
<path d="M318.157 761.183L306.893 772.283L306.893 847.379" stroke="#333F4D" stroke-miterlimit="10"/>
<path d="M430.27 718.001L440.321 728.06L440.321 819.112" stroke="#333F4D" stroke-miterlimit="10"/>
<path d="M327.333 731.527L339.636 743.841L339.636 814.948" stroke="#333F4D" stroke-miterlimit="10"/>
<path d="M292.338 660.592L292.338 692.677L248.844 736.036L248.844 819.457" stroke="#333F4D" stroke-miterlimit="10"/>
<path d="M276.05 738.812L261.841 753.034L261.841 834.894" stroke="#333F4D" stroke-miterlimit="10"/>
<path d="M248.837 710.368L239.48 719.907L239.48 834.893" stroke="#333F4D" stroke-miterlimit="10"/>
<path d="M203.786 669.264L219.555 685.219L219.555 820.844" stroke="#333F4D" stroke-miterlimit="10"/>
<path d="M181.085 699.613L204.825 723.373L204.825 776.27L192.695 788.411L192.695 816.68" stroke="#333F4D" stroke-miterlimit="10"/>
<path d="M131.522 754.766L118.526 767.6L118.526 814.948" stroke="#333F4D" stroke-miterlimit="10"/>
<path d="M40.0369 728.753L51.8202 740.546L51.8202 811.654" stroke="#333F4D" stroke-miterlimit="10"/>
<path d="M83.1795 749.737L64.4648 768.468L64.4648 811.653" stroke="#333F4D" stroke-miterlimit="10"/>
<path d="M75.7253 784.772L75.7253 808.533" stroke="#333F4D" stroke-miterlimit="10"/>
<path d="M8.66675 780.609L16.8111 788.934L16.8111 804.196" stroke="#333F4D" stroke-miterlimit="10"/>
<path d="M23.3961 766.212L23.3961 811.652" stroke="#333F4D" stroke-miterlimit="10"/>
</svg>
